<svg width="189" height="311" viewBox="0 0 189 311" fill="none" xmlns="http://www.w3.org/2000/svg">
<path d="M4.41721 59.6867C-3.58279 69.6867 1.08388 80.1867 4.41721 84.1867C7.91714 83.5201 15.717 81.5868 18.917 79.1868C22.117 76.7868 30.5837 74.5201 34.417 73.6868C37.5837 77.6868 43.717 85.9868 42.917 87.1868C41.917 88.6868 28.417 121.187 25.917 129.687C23.417 138.187 27.417 168.687 33.417 180.687C38.217 190.287 70.0837 201.353 85.417 205.687V227.687L51.417 239.687L52.917 272.687L74.917 277.687L63.917 285.187L72.917 310.687L111.417 308.687V243.687L144.417 231.187L126.417 204.187C131.917 204.353 145.917 202.787 157.917 195.187C169.917 187.587 183.584 144.02 188.917 123.187C182.417 124.187 167.717 126.087 160.917 125.687C152.417 125.187 125.417 114.687 112.417 113.187C99.417 111.687 70.917 119.187 73.917 111.687C76.917 104.187 96.917 81.1868 102.917 71.6868C108.917 62.1868 111.417 46.6868 110.417 36.1868C109.417 25.6868 94.917 10.1867 82.917 7.18672C70.917 4.18672 58.417 7.18672 42.917 12.6867C30.517 17.0867 25.0837 34.5201 23.917 42.6867C20.7504 44.1867 12.4172 49.6867 4.41721 59.6867Z" fill="white"/>
<path d="M8.04785 67.3874L13.3999 71.7888L38.0033 64.1083C38.0033 64.1083 42.8905 73.3467 46.7266 75.8258C50.5626 78.305 58.9676 81.27 58.9676 81.27C58.9676 81.27 43.6443 102.439 41.1693 111.267C38.6943 120.095 31.6965 141.181 35.3818 150.93C39.0671 160.68 42.3712 170.885 50.014 177.494C57.6568 184.102 63.9218 189.492 72.1467 192.566C80.3716 195.639 97.7175 201.54 113.61 197.968C129.503 194.396 143.021 186.016 146.3 183.47C154.308 177.247 164.212 162.225 164.212 162.225C164.212 162.225 150.647 158.313 149.584 156.873C148.52 155.432 154.584 155.939 154.584 155.939L168.199 150.817L155.736 146.68C155.736 146.68 168.111 140.67 170.376 138.769C172.642 136.868 174.614 133.635 174.614 133.635C174.614 133.635 164.911 135.699 160.933 135.117C156.954 134.535 140.249 129.233 140.249 129.233C140.249 129.233 134.947 127.793 129.8 126.741C124.654 125.69 108.69 122.863 100.569 123.048C81.2719 123.487 73.7464 126.792 70.3082 127.793C69.7764 127.947 69.278 128.186 68.8257 128.5L62.946 132.592C62.946 132.592 57.7489 120.342 58.5823 114.211C59.4157 108.08 68.8467 92.2672 68.8467 92.2672L89.3461 65.8881C89.3461 65.8881 96.725 56.298 96.5156 50.0289C96.3062 43.7597 94.3589 28.3066 92.0053 27.6114C89.6518 26.9163 80.4427 18.2475 68.8802 19.0892C57.3176 19.931 49.1723 20.4586 44.1469 24.7889C36.6967 31.2088 30.8547 50.6947 30.8547 50.6947L23.4549 52.5834L13.0188 59.9372L8.04785 67.3916V67.3874Z" fill="#F19EB7"/>
<path d="M97.3627 199.111V250.023L95.52 285.36C95.52 285.36 86.1644 283.366 82.5043 284.166C78.8441 284.966 74.3213 287.537 74.3213 287.537L84.4433 289.82L80.0293 295.984C80.0293 295.984 85.5237 297.333 88.1411 294.489C90.7585 291.645 89.2718 302.299 89.2718 302.299C89.2718 302.299 94.7537 300.105 96.4204 298.312C98.0872 296.52 101.006 291.001 101.006 291.001L101.957 252.837L102.907 199.111H97.3627Z" fill="#F2C5DB"/>
<path d="M104.076 199.112L122.347 226.194L95.5201 236.902L72.3028 246.187C72.3028 246.187 63.6759 248.511 62.4698 252.552C61.2637 256.594 58.7008 261.158 59.6347 262.783C60.5686 264.408 67.3612 259.366 67.3612 259.366C67.3612 259.366 65.9499 264.429 66.5697 265.979C67.1895 267.528 68.5254 269.191 68.5254 269.191L73.8817 259.835L77.5334 266.163C77.5334 266.163 79.351 262.695 79.4556 260.17C79.5603 257.645 76.8257 250.027 76.8257 250.027L108.042 237.648L130.128 228.523L110.043 198.622L104.08 199.116L104.076 199.112Z" fill="#F2C5DB"/>
<path d="M32.4254 49.5976C33.7069 44.2665 35.202 38.8894 37.8068 34.0357C40.4116 29.182 44.2393 25.0696 49.4908 23.0468C52.5898 21.8533 55.9066 21.1623 59.1856 20.6765C62.4647 20.1907 65.6474 20.0149 68.8846 20.1321C75.2041 20.3624 81.6407 21.8449 87.1352 25.057C89.719 26.5688 92.0014 28.5915 93.1279 31.435C94.3675 34.5634 94.7193 38.1021 95.0543 41.423C95.4187 45.0162 95.7034 48.7349 95.3307 52.3365C94.9831 55.7119 93.5551 58.7145 91.7795 61.5622C88.136 67.4001 83.6467 72.6474 79.1699 77.8529C74.7978 82.9327 70.3797 88.0125 66.6693 93.6075C63.1306 98.9427 60.2033 104.843 58.993 111.171C57.8455 117.177 58.1177 123.542 60.5215 129.221C61.0995 130.586 61.7905 131.893 62.6071 133.128C63.3441 134.25 65.1575 133.199 64.4162 132.073C61.0408 126.951 60.0023 120.736 60.5844 114.697C61.2042 108.286 63.7797 102.255 67.1174 96.8069C70.6351 91.0654 74.9988 85.9186 79.3751 80.8262C83.9775 75.4742 88.6386 70.1347 92.5458 64.2424C94.4303 61.4031 96.2227 58.3879 96.9975 55.0334C97.8267 51.457 97.6298 47.6754 97.3786 44.0404C97.1273 40.4054 96.7546 36.7829 95.9003 33.2861C95.1171 30.0698 93.5467 27.2598 90.9544 25.1575C88.3622 23.0552 85.4098 21.669 82.361 20.5593C79.3123 19.4495 76.0207 18.725 72.7416 18.3355C66.15 17.5566 59.3783 18.1722 52.95 19.7845C49.7463 20.5886 46.597 21.7528 43.8917 23.6792C41.6093 25.3083 39.6829 27.3394 38.0664 29.6259C34.8167 34.2199 32.9029 39.6641 31.4287 45.0497C31.0686 46.373 30.7336 47.7047 30.4111 49.0365C30.0886 50.3682 32.1155 50.9042 32.4296 49.5934L32.4254 49.5976Z" fill="#231815"/>
<path d="M63.9935 132.923C69.8565 128.48 76.67 125.573 83.9108 124.329C87.7678 123.668 91.6918 123.446 95.599 123.412C99.5188 123.379 103.447 123.517 107.358 123.793C115.118 124.342 122.832 125.481 130.425 127.198C134.248 128.061 138.038 129.07 141.782 130.217C145.497 131.357 149.14 132.722 152.847 133.894C159.706 136.068 167.307 137.4 174.154 134.447C174.929 134.112 175.67 133.723 176.386 133.283C177.53 132.575 176.478 130.766 175.331 131.474C169.154 135.289 161.532 134.296 154.915 132.341C151.197 131.239 147.566 129.853 143.872 128.681C140.178 127.508 136.359 126.444 132.548 125.544C124.935 123.743 117.183 122.516 109.389 121.863C101.596 121.209 93.6265 120.921 85.8623 121.942C78.0981 122.964 71.3306 125.389 65.0991 129.577C64.3662 130.071 63.6459 130.586 62.9424 131.122C62.4943 131.461 62.2556 132.027 62.5655 132.554C62.8251 132.998 63.5454 133.275 63.9977 132.931L63.9935 132.923Z" fill="#231815"/>
<path d="M174.954 132.014C174.615 133.576 173.438 134.707 172.307 135.758C171.114 136.868 169.853 137.906 168.53 138.857C165.837 140.787 162.906 142.417 159.819 143.627C158.056 144.318 156.247 144.887 154.404 145.331C153.554 145.536 153.349 146.839 154.153 147.245C156.603 148.489 159.204 149.444 161.888 150.038C163.216 150.332 164.564 150.537 165.913 150.667C167.102 150.78 168.354 150.788 169.401 151.425L169.652 149.511C166.256 150.884 162.885 152.354 159.426 153.56C156.151 154.704 152.629 155.579 149.145 155.022C148.68 154.946 148.215 155.072 147.964 155.503C147.737 155.893 147.788 156.458 148.127 156.772C152.792 161.065 159.078 163.448 165.423 163.272C166.767 163.234 166.771 161.14 165.423 161.178C159.631 161.337 153.877 159.218 149.609 155.29L148.592 157.04C152.34 157.643 156.054 156.919 159.61 155.709C163.165 154.498 166.696 152.953 170.213 151.529C171.018 151.203 171.294 150.118 170.465 149.615C169.321 148.924 168.019 148.757 166.712 148.644C165.406 148.531 164.108 148.367 162.818 148.099C160.175 147.551 157.617 146.659 155.213 145.44L154.961 147.354C161.884 145.687 168.35 142.236 173.597 137.42C175.055 136.085 176.537 134.573 176.973 132.575C177.257 131.26 175.243 130.699 174.954 132.018V132.014Z" fill="#231815"/>
<path d="M164.091 161.484C160.506 167.803 155.937 173.511 150.615 178.449C145.292 183.386 139.236 187.511 132.716 190.702C126.204 193.885 119.206 196.088 112.041 197.172C104.699 198.282 97.1445 198.136 89.8368 196.854C82.4411 195.56 75.2464 193.144 68.5752 189.701C61.904 186.259 55.7647 181.811 50.4796 176.476C44.6502 170.592 39.8133 163.695 37.5183 155.658C35.2402 147.681 35.2904 139.171 36.6389 131.034C37.9874 122.897 40.6089 114.789 44.0053 107.205C47.4016 99.6212 51.6774 92.4056 56.7027 85.7762C57.9298 84.1597 59.2071 82.5851 60.522 81.044C61.3931 80.0263 59.919 78.5355 59.0396 79.5615C53.5074 86.0442 48.7124 93.1468 44.8051 100.723C40.9021 108.29 37.8031 116.335 35.8097 124.618C33.8163 132.902 32.9494 141.73 34.2225 150.285C34.8423 154.461 36.0191 158.535 37.7696 162.376C39.5829 166.354 42.0579 169.998 44.8386 173.36C49.8222 179.399 55.8568 184.559 62.5154 188.675C69.0778 192.729 76.285 195.782 83.7603 197.683C91.2313 199.584 99.0207 200.359 106.718 199.836C114.415 199.312 121.58 197.616 128.536 194.827C135.492 192.038 142.017 188.231 147.884 183.549C153.718 178.897 158.848 173.365 163.027 167.179C164.045 165.672 165.004 164.122 165.9 162.539C166.566 161.366 164.757 160.307 164.091 161.484Z" fill="#231815"/>
<path d="M59.2744 79.0297C57.1093 79.4234 54.7558 78.8915 52.7163 78.1419C52.0881 77.9116 51.4432 77.6017 50.7648 77.2332C50.0235 76.8311 49.3074 76.3872 48.6122 75.914C45.7227 73.9415 43.0257 71.387 41.2166 68.3759C40.3539 66.9395 39.6964 65.3355 39.6838 63.7819C39.6712 62.4334 37.5773 62.4334 37.5899 63.7819C37.6192 67.4755 40.0482 70.8342 42.4813 73.4097C45.0652 76.1485 48.2353 78.5858 51.7447 80.0013C54.2574 81.0148 57.1428 81.5424 59.8272 81.0524C60.3842 80.9519 60.6983 80.2735 60.5601 79.7626C60.401 79.1763 59.8314 78.9292 59.2703 79.0297H59.2744Z" fill="#231815"/>
<path d="M31.8148 49.2876C28.6488 49.0405 25.6084 50.2047 22.8738 51.6998C20.1391 53.1948 17.6306 54.8281 15.231 56.6624C12.8314 58.4966 10.683 60.6031 9.04559 63.1535C7.57148 65.4484 6.51196 68.0407 5.93404 70.7083C5.2598 73.8157 5.22211 77.011 5.83772 80.1309C5.92566 80.579 6.41145 80.9015 6.84698 80.9015C7.34952 80.9015 7.67617 80.5623 7.85625 80.1309C8.77338 77.9574 9.74077 75.6709 11.3866 73.9329C13.1538 72.061 15.5828 71.2318 18.0327 70.6748C22.656 69.6279 27.3254 68.8489 31.8818 67.5088C34.3777 66.7759 36.8653 65.9049 39.1686 64.6778C40.3579 64.0455 39.3026 62.2363 38.1133 62.8687C33.8752 65.1259 29.0089 66.2148 24.3521 67.2282C22.0655 67.7266 19.7622 68.137 17.4799 68.6521C14.8499 69.2468 12.2367 70.1932 10.2559 72.0945C8.13264 74.134 6.96424 76.9021 5.83772 79.5656H7.85625C6.87211 74.582 7.84787 69.2761 10.4192 64.9082C13.2544 60.0922 18.0745 56.9304 22.7858 54.1497C25.5372 52.5248 28.5441 51.1135 31.8148 51.3689C32.3801 51.415 32.8617 50.858 32.8617 50.322C32.8617 49.7189 32.3801 49.3211 31.8148 49.275V49.2876Z" fill="#231815"/>
<path d="M73.047 145.608C71.9539 156.115 78.9015 166.015 87.9891 170.672C92.9642 173.222 98.5215 174.453 104.087 174.688C106.868 174.805 109.674 174.688 112.429 174.315C114.98 173.968 117.643 173.08 118.954 170.68C120.302 168.205 119.946 165.056 118.594 162.665C117.053 159.943 114.444 158.071 111.948 156.295C110.959 155.592 109.862 157.116 110.679 157.941C113.455 160.738 117.22 162.38 121.14 162.681C123.029 162.824 125.03 162.644 126.84 162.053C127.903 161.702 128.845 161.107 129.369 160.081C129.892 159.055 130.077 157.958 130.215 156.865C130.537 154.297 130.11 151.735 129.109 149.36L127.677 150.792C130.692 152.995 135.198 153.544 138.436 151.496C141.3 149.687 142.46 145.997 141.3 142.823C140.659 141.068 139.416 139.695 137.64 139.058C137.108 138.87 136.492 139.272 136.35 139.791C136.191 140.373 136.547 140.888 137.083 141.081C138.017 141.416 138.808 142.266 139.198 143.166C139.688 144.293 139.763 145.524 139.512 146.634C139.24 147.823 138.662 148.811 137.619 149.532C136.409 150.373 134.968 150.713 133.502 150.667C131.777 150.612 130.123 150.001 128.732 148.983C128.364 148.711 127.769 148.841 127.464 149.146C127.108 149.502 127.116 149.98 127.3 150.415C128.033 152.149 128.318 154.067 128.209 155.939C128.155 156.86 128 157.794 127.702 158.674C127.447 159.432 126.957 159.821 126.203 160.06C123.112 161.036 119.641 160.743 116.667 159.499C114.984 158.791 113.451 157.757 112.165 156.463L110.896 158.108C114.297 160.525 119.012 164.13 117.442 168.955C116.722 171.166 114.452 171.907 112.366 172.23C109.883 172.615 107.308 172.69 104.799 172.623C94.9618 172.355 84.8817 168.645 79.1486 160.269C76.2088 155.973 74.6048 150.834 75.1451 145.612C75.2037 145.051 74.6216 144.565 74.0981 144.565C73.4825 144.565 73.1098 145.047 73.0511 145.612L73.047 145.608Z" fill="#231815"/>
<path d="M96.0218 200.502C96.1056 211.545 96.2145 222.593 96.2564 233.636C96.2982 244.679 96.2312 255.752 95.7413 266.799C95.469 272.993 95.0586 279.183 94.4723 285.356C94.4179 285.921 94.9916 286.402 95.5193 286.402C96.1307 286.402 96.5118 285.921 96.5663 285.356C97.6132 274.388 98.0823 263.369 98.2623 252.355C98.4424 241.295 98.3419 230.231 98.2581 219.171C98.2121 212.948 98.166 206.721 98.1158 200.498C98.1074 199.149 96.0135 199.149 96.0218 200.498V200.502Z" fill="#231815"/>
<path d="M101.759 200.037C101.901 211.863 101.893 223.69 101.742 235.516C101.592 247.343 101.294 259.165 100.85 270.987C100.599 277.662 100.302 284.334 99.9583 291.005C99.8871 292.353 101.981 292.349 102.052 291.005C102.659 279.195 103.124 267.373 103.443 255.551C103.761 243.729 103.928 231.902 103.954 220.076C103.966 213.396 103.933 206.717 103.853 200.041C103.836 198.693 101.742 198.693 101.759 200.041V200.037Z" fill="#231815"/>
<path d="M103.171 200.028C108.192 206.67 112.912 213.538 117.309 220.611C118.566 222.634 119.793 224.669 120.995 226.722C121.677 227.882 123.486 226.83 122.804 225.666C118.595 218.484 114.06 211.49 109.21 204.719C107.824 202.784 106.413 200.87 104.98 198.973C104.641 198.521 104.076 198.286 103.548 198.596C103.104 198.856 102.828 199.576 103.171 200.028Z" fill="#231815"/>
<path d="M120.944 224.988C118.658 227.049 115.961 228.363 113.08 229.377C109.905 230.491 106.71 231.529 103.523 232.602C102.254 233.029 102.798 235.051 104.08 234.62C107.388 233.506 110.718 232.442 114.001 231.266C117.108 230.156 119.96 228.69 122.427 226.466C123.432 225.562 121.945 224.084 120.944 224.984V224.988Z" fill="#231815"/>
<path d="M74.4091 245.73C81.8006 242.485 89.4057 239.746 97.1616 237.509C98.4556 237.137 97.9028 235.114 96.6046 235.491C88.6728 237.777 80.9086 240.604 73.3538 243.921C72.8345 244.147 72.7172 244.905 72.9769 245.353C73.291 245.889 73.8898 245.956 74.4091 245.73Z" fill="#231815"/>
<path d="M109.636 199.639C115.114 207.156 120.709 214.611 125.776 222.417C127.191 224.594 128.561 226.801 129.872 229.046C130.55 230.21 132.363 229.155 131.681 227.991C127.007 219.988 121.567 212.471 116.115 204.991C114.557 202.855 113.003 200.72 111.445 198.584C111.114 198.127 110.536 197.901 110.013 198.207C109.561 198.471 109.301 199.178 109.636 199.639Z" fill="#231815"/>
<path d="M130.283 227.97C123.477 230.771 116.614 233.426 109.695 235.939C107.71 236.659 105.721 237.367 103.723 238.062C103.192 238.246 102.836 238.778 102.991 239.352C103.133 239.871 103.74 240.269 104.28 240.085C111.228 237.66 118.125 235.089 124.964 232.371C126.928 231.592 128.884 230.796 130.84 229.996C131.363 229.783 131.732 229.301 131.573 228.707C131.438 228.212 130.81 227.76 130.283 227.974V227.97Z" fill="#231815"/>
<path d="M96.2354 240.466C89.447 243.314 82.6585 246.166 75.87 249.013C75.3507 249.231 74.9738 249.704 75.1372 250.303C75.2712 250.793 75.8994 251.254 76.427 251.036C83.2155 248.188 90.0039 245.337 96.7924 242.489C97.3117 242.271 97.6886 241.798 97.5253 241.199C97.3913 240.709 96.7631 240.248 96.2354 240.466Z" fill="#231815"/>
<path d="M95.6124 284.379C89.0836 282.428 81.9601 282.206 75.6575 285.066C73.9865 285.824 72.4454 286.808 71.0299 287.972C70.6781 288.261 70.6488 288.869 70.8666 289.241C71.1095 289.66 71.5911 289.815 72.0475 289.723C75.9087 288.948 80.0044 289.472 83.5431 291.197L83.1662 289.765C82.0397 292.307 79.9709 294.388 77.3577 295.385C76.83 295.586 76.4657 296.088 76.6248 296.675C76.763 297.181 77.3828 297.609 77.9147 297.408C81.0221 296.222 83.6185 293.881 84.9754 290.824C85.1889 290.339 85.1512 289.66 84.5985 289.392C80.5237 287.407 75.9297 286.817 71.4864 287.709L72.504 289.459C77.2572 285.556 83.6771 284.455 89.6532 285.221C91.4832 285.456 93.284 285.879 95.0513 286.406C96.3453 286.791 96.8981 284.773 95.6082 284.388L95.6124 284.379Z" fill="#231815"/>
<path d="M77.2569 297.32C81.2521 298.811 85.9006 297.861 89.0833 295.059L87.4375 294.845C89.0373 297.182 88.9661 300.528 87.0899 302.702C86.4324 303.464 87.0481 304.741 88.1076 304.452C91.3238 303.569 94.2679 301.697 96.7177 299.465C99.1676 297.233 101.257 294.485 102.011 291.282C102.321 289.971 100.303 289.41 99.9926 290.725C99.3184 293.597 97.3794 296.031 95.2352 297.982C93.0911 299.934 90.4193 301.642 87.5506 302.43L88.5682 304.18C91.0307 301.328 91.395 296.931 89.2425 293.786C88.8446 293.208 88.1285 293.108 87.5967 293.572C84.9458 295.909 81.093 296.525 77.8097 295.298C77.2779 295.101 76.6623 295.52 76.5199 296.031C76.3607 296.617 76.7209 297.119 77.2527 297.32H77.2569Z" fill="#231815"/>
<path d="M75.405 250.764C77.4319 252.636 78.0433 255.571 78.2946 258.214C78.4495 259.839 78.4411 261.459 78.1271 263.067C77.7878 264.789 77.1974 266.443 76.4059 268.009L78.3574 268.537C78.2276 265.22 76.9419 262.075 74.7265 259.608C74.446 259.298 73.8094 259.181 73.4576 259.445C70.2288 261.874 68.227 265.597 68.0595 269.647L69.6342 268.742C68.3359 267.825 67.4732 266.259 67.423 264.667C67.3644 262.933 68.1768 261.342 69.5127 260.262C69.9524 259.906 69.8812 259.152 69.5127 258.779C69.0772 258.344 68.4741 258.423 68.0302 258.779C66.263 260.207 65.1951 262.548 65.3333 264.826C65.4715 267.104 66.6859 269.219 68.5746 270.551C69.2614 271.033 70.1199 270.379 70.1493 269.647C70.2791 266.401 71.904 263.214 74.5088 261.254L73.2399 261.091C75.0783 263.134 76.1504 265.794 76.2593 268.537C76.297 269.512 77.7167 270.04 78.2108 269.064C79.953 265.618 80.7612 261.916 80.3717 258.063C80.0576 254.922 79.2955 251.517 76.8833 249.285C75.895 248.372 74.4125 249.851 75.4008 250.768L75.405 250.764Z" fill="#231815"/>
<path d="M68.8012 258.445C66.8204 258.022 65.007 258.863 63.5078 260.107C62.0085 261.351 60.7061 262.8 59.3367 264.157C58.3777 265.107 59.8602 266.586 60.8192 265.639C62.0504 264.421 63.2523 263.152 64.538 261.983C65.5221 261.091 66.8497 260.166 68.2484 260.463C68.8012 260.58 69.3791 260.3 69.5383 259.73C69.6806 259.211 69.3624 258.562 68.8054 258.44L68.8012 258.445Z" fill="#231815"/>
<path d="M61.2474 264.626C60.7114 262.871 60.0957 260.995 60.3596 259.136C60.5983 257.439 61.5657 255.915 62.4535 254.487C63.3413 253.059 64.338 251.66 65.5315 250.446C66.6371 249.315 67.8767 248.465 69.2964 247.774C70.871 247.008 72.5294 246.442 74.1668 245.835C74.6987 245.638 75.0588 245.127 74.8997 244.545C74.7615 244.034 74.1459 243.615 73.6098 243.812C70.3475 245.018 66.9973 246.128 64.4301 248.586C63.0775 249.88 61.9426 251.401 60.9333 252.971C59.924 254.541 58.8394 256.275 58.4206 258.151C57.8888 260.53 58.5337 262.905 59.2289 265.174C59.6225 266.46 61.6452 265.911 61.2474 264.617V264.626Z" fill="#231815"/>
<path d="M14.138 69.942C12.8482 68.4762 11.5039 67.0984 9.65285 66.3781C9.121 66.1688 8.50958 66.6085 8.363 67.111C7.92747 68.6061 7.59663 70.0676 7.63432 71.6339C7.66782 73.1038 7.23648 74.4941 6.89308 75.9138C6.57899 77.2246 8.52214 77.7648 8.91161 76.4708C9.68635 73.8953 10.5616 71.3533 11.529 68.8406L9.47278 68.5642C9.61097 69.8163 10.0549 71.2109 11.3029 71.7679L11.5541 69.854C10.6496 70.1932 9.84968 70.6832 9.17544 71.3784C8.23737 72.3458 9.71567 73.8283 10.6579 72.8609C11.0725 72.4337 11.5499 72.0861 12.1111 71.8768C12.5048 71.7302 12.8105 71.4454 12.8607 71.0057C12.9068 70.6288 12.7393 70.1346 12.3624 69.9629C11.8263 69.7242 11.6337 69.1421 11.5709 68.5684C11.4411 67.3874 9.95019 67.1571 9.51465 68.292C8.54727 70.8005 7.67201 73.3467 6.89726 75.9222L8.9158 76.4792C9.27176 75.0051 9.75336 73.5058 9.7408 71.9773C9.73242 71.2737 9.70311 70.5785 9.82874 69.8834C9.96275 69.1379 10.1763 68.4051 10.3899 67.6764L9.10006 68.4092C10.5658 68.9788 11.6504 70.2854 12.6639 71.4328C13.0366 71.8558 13.7611 71.8139 14.1464 71.4328C14.5694 71.0099 14.5191 70.3775 14.1464 69.9504L14.138 69.942Z" fill="#231815"/>
<path d="M47.5064 39.149C46.5306 42.4951 48.813 45.7993 51.3383 47.7717C53.9892 49.8405 57.3855 50.8916 60.7483 50.5189C62.7459 50.297 64.6597 49.6688 66.3725 48.6135C67.5158 47.9057 66.4689 46.0966 65.3172 46.8043C62.8841 48.3036 59.9024 48.8815 57.0965 48.2491C54.5168 47.667 52.0292 46.1385 50.5258 43.9357C49.6799 42.6961 49.0936 41.201 49.5291 39.706C49.906 38.4077 47.8875 37.855 47.5106 39.149H47.5064Z" fill="#231815"/>
<path d="M78 2.38477L78 28.6925" stroke="#5451D7" stroke-width="2" stroke-linecap="round"/>
<path d="M84.25 48.0796V6.53536" stroke="#5451D7" stroke-width="2" stroke-linecap="round"/>
<path d="M89.5 1L89.5 35.6154" stroke="#5451D7" stroke-width="2" stroke-linecap="round"/>
<path d="M94.5 17.6152L94.5 54.9999" stroke="#5451D7" stroke-width="2" stroke-linecap="round"/>
<path d="M104.5 10.6924L104.5 48.077" stroke="#5451D7" stroke-width="2" stroke-linecap="round"/>
<path d="M109.5 14.8462L109.5 52.2308" stroke="#5451D7" stroke-width="2" stroke-linecap="round"/>
<path d="M114.5 6.53857L114.5 43.9232" stroke="#5451D7" stroke-width="2" stroke-linecap="round"/>
<path d="M99.5 5.15381L99.5 41.1538" stroke="#5451D7" stroke-width="2" stroke-linecap="round"/>
</svg>
