<svg width="266" height="334" viewBox="0 0 266 334" fill="none" xmlns="http://www.w3.org/2000/svg">
<path d="M196.599 96.0423C198.099 98.1919 199.766 100.851 201.767 102.503C204.257 102.602 207.116 101.917 209.551 101.452C213.578 100.682 217.792 99.1169 221.521 97.4408C226.388 95.2537 230.26 89.1724 229.545 83.6525C229.226 81.1824 228.089 77.6075 225.911 76.1377C223.989 74.8405 221.414 74.4502 219.125 74.2567C217.998 74.1614 217.67 74.6042 216.735 75.0523C215.572 75.6097 213.914 76.7158 213.158 77.7774C212.209 79.1083 211.043 80.1764 210.139 81.5324C210.478 79.8844 210.381 78.2631 210.646 76.6033C210.85 75.3177 210.442 73.3736 210.002 72.1659C209.648 71.1948 209.724 70.6497 208.851 69.934C207.078 68.4794 204.963 66.9675 202.677 66.5575C200.088 66.0931 196.764 67.8587 194.801 69.4026C190.413 72.8526 188.911 79.8955 190.855 84.8455C192.345 88.6389 194.259 92.6897 196.599 96.0423Z" fill="#F89797"/>
<path d="M198.43 41.7784C199.918 43.1395 201.618 44.8547 203.398 45.758C205.284 45.4132 207.316 44.4171 209.065 43.6577C211.959 42.4015 214.859 40.5167 217.376 38.6302C220.661 36.1685 222.544 30.9508 221.078 26.9272C220.422 25.1266 218.966 22.6342 217.083 21.8977C215.422 21.2476 213.423 21.3883 211.672 21.6286C210.81 21.7469 210.638 22.1346 210.012 22.6285C209.232 23.2428 208.174 24.3524 207.785 25.2769C207.297 26.4358 206.602 27.4341 206.151 28.6044C206.129 27.31 205.783 26.1091 205.701 24.8186C205.638 23.819 205.004 22.4282 204.471 21.5957C204.041 20.9263 204.006 20.5042 203.231 20.1139C201.655 19.3206 199.812 18.5417 198.027 18.619C196.005 18.7065 193.807 20.5918 192.593 22.0816C189.88 25.4108 189.939 30.9511 192.232 34.3399C193.99 36.9368 196.109 39.6555 198.43 41.7784Z" fill="#F89797"/>
<path d="M22.5021 75.5257C24.9254 75.8006 27.8075 76.2718 30.191 75.8915C31.7922 74.2143 33.0725 71.7966 34.2453 69.8107C36.1854 66.5256 37.6843 62.6215 38.8081 58.987C40.2746 54.2443 38.411 47.8005 34.1179 44.9042C32.1968 43.6081 29.0019 42.2027 26.6362 42.8193C24.5482 43.3634 22.6923 44.9204 21.1489 46.3997C20.3895 47.1276 20.4966 47.6292 20.2343 48.5576C19.908 49.7124 19.6608 51.5497 19.9366 52.7309C20.2823 54.2116 20.3105 55.6829 20.701 57.1481C19.7595 55.8974 18.5679 54.9678 17.5717 53.7625C16.8 52.829 15.1916 51.9183 14.0777 51.4827C13.1821 51.1325 12.8483 50.7441 11.8121 50.913C9.70594 51.2562 7.34956 51.8026 5.65746 53.1462C3.74034 54.6684 2.92865 58.0746 2.79876 60.3949C2.5085 65.5801 6.50146 70.9605 11.1529 72.648C14.7175 73.9412 18.7226 75.0968 22.5021 75.5257Z" fill="#F89797"/>
<path d="M35.1525 22.7054C36.7795 23.2393 38.6939 23.9733 40.3868 24.051C41.7262 23.1258 42.9505 21.6457 44.0395 20.4472C45.8407 18.4647 47.4268 15.9938 48.7166 13.6549C50.3998 10.6029 50.0354 5.90747 47.4959 3.30529C46.3595 2.14082 44.3629 0.71998 42.6487 0.807225C41.1357 0.88423 39.6382 1.69065 38.3666 2.48809C37.7409 2.88044 37.7432 3.24054 37.4307 3.84156C37.0421 4.58902 36.6107 5.81706 36.6322 6.66841C36.6592 7.73564 36.4692 8.75121 36.5292 9.81412C36.0599 8.82025 35.3729 8.0116 34.8595 7.04118C34.4618 6.28952 33.4856 5.43453 32.7817 4.97658C32.2158 4.60837 32.0416 4.29385 31.3051 4.26249C29.8082 4.19875 28.1104 4.23914 26.7559 4.9221C25.2212 5.69587 24.1785 7.92219 23.759 9.49899C22.8216 13.0226 24.8013 17.2899 27.7591 19.112C30.0259 20.5083 32.615 21.8727 35.1525 22.7054Z" fill="#F89797"/>
<path d="M81.4172 82.6867C73.4172 92.6867 78.0839 103.187 81.4172 107.187C84.9171 106.52 92.717 104.587 95.917 102.187C99.117 99.7868 107.584 97.5201 111.417 96.6868C114.584 100.687 120.717 108.987 119.917 110.187C118.917 111.687 105.417 144.187 102.917 152.687C100.417 161.187 104.417 191.687 110.417 203.687C115.217 213.287 147.084 224.353 162.417 228.687V250.687L128.417 262.687L129.917 295.687L151.917 300.687L140.917 308.187L149.917 333.687L188.417 331.687V266.687L221.417 254.187L203.417 227.187C208.917 227.353 222.917 225.787 234.917 218.187C246.917 210.587 260.584 167.02 265.917 146.187C259.417 147.187 244.717 149.087 237.917 148.687C229.417 148.187 202.417 137.687 189.417 136.187C176.417 134.687 147.917 142.187 150.917 134.687C153.917 127.187 173.917 104.187 179.917 94.6868C185.917 85.1868 188.417 69.6868 187.417 59.1868C186.417 48.6868 171.917 33.1867 159.917 30.1867C147.917 27.1867 135.417 30.1867 119.917 35.6867C107.517 40.0867 102.084 57.5201 100.917 65.6867C97.7504 67.1867 89.4172 72.6867 81.4172 82.6867Z" fill="white"/>
<path d="M84.6538 90.5026L90.0183 94.9142L114.679 87.2159C114.679 87.2159 119.578 96.4757 123.423 98.9607C127.268 101.446 135.692 104.418 135.692 104.418C135.692 104.418 120.333 125.636 117.853 134.485C115.372 143.333 108.358 164.468 112.051 174.24C115.745 184.012 119.057 194.242 126.718 200.865C134.378 207.489 140.658 212.892 148.902 215.973C157.146 219.054 174.532 224.968 190.462 221.387C206.392 217.807 219.942 209.408 223.229 206.855C231.254 200.618 241.182 185.561 241.182 185.561C241.182 185.561 227.586 181.641 226.52 180.197C225.453 178.753 231.531 179.26 231.531 179.26L245.178 174.127L232.686 169.98C232.686 169.98 245.09 163.956 247.361 162.05C249.631 160.145 251.609 156.904 251.609 156.904C251.609 156.904 241.883 158.974 237.895 158.39C233.907 157.807 217.163 152.493 217.163 152.493C217.163 152.493 211.849 151.049 206.69 149.995C201.531 148.941 185.53 146.108 177.391 146.293C158.049 146.733 150.506 150.045 147.059 151.049C146.526 151.204 146.027 151.443 145.573 151.758L139.68 155.859C139.68 155.859 134.471 143.581 135.306 137.436C136.141 131.291 145.594 115.44 145.594 115.44L166.142 88.9998C166.142 88.9998 173.538 79.3874 173.328 73.1036C173.118 66.8198 171.166 51.3307 168.807 50.6339C166.448 49.9371 157.217 41.2481 145.628 42.0918C134.038 42.9356 125.874 43.4644 120.837 47.8047C113.369 54.2396 107.514 73.771 107.514 73.771L100.097 75.6641L89.6363 83.0351L84.6538 90.5068V90.5026Z" fill="#F2A0B8"/>
<path d="M174.176 222.534V273.564L172.329 308.983C172.329 308.983 162.952 306.985 159.283 307.786C155.614 308.588 151.081 311.166 151.081 311.166L161.227 313.453L156.802 319.632C156.802 319.632 162.31 320.984 164.933 318.134C167.557 315.283 166.066 325.962 166.066 325.962C166.066 325.962 171.561 323.762 173.232 321.966C174.902 320.169 177.828 314.637 177.828 314.637L178.781 276.384L179.734 222.534H174.176Z" fill="#F3C6DC"/>
<path d="M180.905 222.533L199.219 249.679L172.329 260.412L149.058 269.718C149.058 269.718 140.411 272.048 139.202 276.099C137.993 280.149 135.424 284.725 136.36 286.353C137.296 287.982 144.105 282.928 144.105 282.928C144.105 282.928 142.69 288.003 143.311 289.556C143.933 291.109 145.272 292.776 145.272 292.776L150.64 283.398L154.301 289.741C154.301 289.741 156.122 286.265 156.227 283.734C156.332 281.203 153.591 273.568 153.591 273.568L184.88 261.159L207.018 252.013L186.887 222.042L180.909 222.538L180.905 222.533Z" fill="#F3C6DC"/>
<path d="M109.088 72.6713C110.373 67.3278 111.871 61.9381 114.482 57.0731C117.093 52.2081 120.93 48.086 126.194 46.0586C129.3 44.8623 132.624 44.1697 135.911 43.6828C139.198 43.1959 142.388 43.0196 145.633 43.1371C151.967 43.368 158.418 44.8539 163.926 48.0734C166.516 49.5888 168.803 51.6162 169.932 54.4664C171.175 57.602 171.527 61.1489 171.863 64.4776C172.228 68.0791 172.514 71.8066 172.14 75.4165C171.792 78.7998 170.361 81.8094 168.581 84.6638C164.929 90.5152 160.429 95.7748 155.942 100.992C151.56 106.084 147.131 111.176 143.412 116.784C139.865 122.131 136.931 128.046 135.718 134.388C134.568 140.408 134.841 146.788 137.25 152.48C137.829 153.848 138.522 155.158 139.34 156.396C140.079 157.521 141.897 156.468 141.154 155.339C137.771 150.205 136.73 143.976 137.313 137.923C137.934 131.496 140.516 125.452 143.861 119.991C147.387 114.236 151.761 109.077 156.148 103.973C160.761 98.6082 165.433 93.2562 169.349 87.3502C171.238 84.5043 173.034 81.482 173.811 78.1198C174.642 74.535 174.445 70.7446 174.193 67.1011C173.941 63.4576 173.568 59.8267 172.711 56.3217C171.926 53.098 170.352 50.2814 167.754 48.1742C165.156 46.067 162.196 44.6776 159.14 43.5652C156.085 42.4529 152.785 41.7267 149.499 41.3363C142.892 40.5556 136.104 41.1726 129.661 42.7887C126.45 43.5946 123.293 44.7616 120.581 46.6924C118.294 48.3253 116.363 50.3611 114.743 52.653C111.485 57.2578 109.567 62.7146 108.089 68.1127C107.728 69.4391 107.393 70.774 107.069 72.1088C106.746 73.4436 108.778 73.9809 109.093 72.6671L109.088 72.6713Z" fill="#231815"/>
<path d="M140.73 156.191C146.607 151.737 153.436 148.824 160.694 147.577C164.56 146.914 168.493 146.691 172.409 146.658C176.338 146.624 180.276 146.763 184.196 147.04C191.974 147.59 199.706 148.731 207.316 150.452C211.149 151.317 214.948 152.329 218.7 153.479C222.423 154.621 226.075 155.989 229.79 157.164C236.666 159.343 244.284 160.678 251.148 157.718C251.924 157.383 252.667 156.992 253.385 156.552C254.531 155.842 253.477 154.029 252.327 154.738C246.136 158.562 238.496 157.567 231.864 155.607C228.136 154.503 224.497 153.114 220.795 151.938C217.093 150.763 213.264 149.697 209.445 148.794C201.813 146.989 194.044 145.76 186.232 145.105C178.42 144.45 170.432 144.16 162.65 145.184C154.868 146.209 148.084 148.639 141.838 152.837C141.104 153.332 140.382 153.848 139.676 154.386C139.227 154.726 138.988 155.292 139.299 155.821C139.559 156.266 140.281 156.543 140.734 156.199L140.73 156.191Z" fill="#231815"/>
<path d="M251.949 155.28C251.609 156.846 250.429 157.979 249.296 159.032C248.1 160.145 246.836 161.186 245.51 162.139C242.811 164.074 239.873 165.707 236.779 166.92C235.012 167.612 233.198 168.183 231.351 168.628C230.499 168.834 230.294 170.139 231.1 170.546C233.555 171.793 236.162 172.75 238.853 173.346C240.183 173.64 241.535 173.846 242.886 173.976C244.079 174.089 245.334 174.098 246.383 174.736L246.635 172.817C243.231 174.194 239.852 175.668 236.384 176.876C233.102 178.022 229.572 178.9 226.079 178.341C225.613 178.266 225.147 178.392 224.896 178.824C224.669 179.214 224.719 179.781 225.059 180.096C229.735 184.398 236.036 186.787 242.395 186.611C243.743 186.573 243.747 184.474 242.395 184.512C236.59 184.671 230.823 182.547 226.545 178.61L225.525 180.365C229.282 180.969 233.005 180.243 236.569 179.03C240.133 177.817 243.671 176.268 247.197 174.841C248.003 174.513 248.28 173.426 247.449 172.922C246.303 172.23 244.998 172.062 243.688 171.948C242.379 171.835 241.077 171.671 239.784 171.403C237.136 170.853 234.571 169.959 232.162 168.737L231.91 170.656C238.848 168.985 245.329 165.526 250.589 160.699C252.05 159.36 253.536 157.845 253.972 155.842C254.258 154.524 252.239 153.962 251.949 155.284V155.28Z" fill="#231815"/>
<path d="M241.06 184.818C237.467 191.152 232.888 196.874 227.552 201.822C222.217 206.771 216.148 210.906 209.612 214.105C203.085 217.295 196.071 219.503 188.888 220.59C181.53 221.702 173.958 221.555 166.633 220.271C159.22 218.974 152.008 216.552 145.322 213.101C138.635 209.651 132.481 205.193 127.184 199.845C121.341 193.948 116.493 187.034 114.192 178.979C111.909 170.983 111.959 162.453 113.311 154.297C114.663 146.142 117.29 138.015 120.695 130.413C124.099 122.811 128.384 115.579 133.422 108.934C134.651 107.314 135.932 105.736 137.25 104.191C138.123 103.171 136.645 101.677 135.764 102.705C130.219 109.203 125.413 116.322 121.496 123.915C117.584 131.5 114.478 139.564 112.48 147.867C110.482 156.17 109.613 165.018 110.889 173.594C111.51 177.779 112.69 181.863 114.444 185.712C116.262 189.7 118.743 193.352 121.53 196.722C126.525 202.775 132.574 207.947 139.248 212.073C145.825 216.136 153.049 219.196 160.542 221.102C168.031 223.008 175.838 223.784 183.553 223.26C191.268 222.735 198.451 221.035 205.423 218.239C212.395 215.444 218.935 211.628 224.816 206.935C230.663 202.272 235.805 196.727 239.994 190.527C241.014 189.016 241.975 187.463 242.874 185.876C243.541 184.701 241.728 183.639 241.06 184.818Z" fill="#231815"/>
<path d="M135.999 102.172C133.829 102.567 131.47 102.033 129.425 101.282C128.796 101.051 128.149 100.741 127.469 100.371C126.726 99.9683 126.009 99.5233 125.312 99.049C122.415 97.0719 119.712 94.5114 117.899 91.4933C117.034 90.0536 116.375 88.4459 116.363 86.8886C116.35 85.537 114.251 85.537 114.264 86.8886C114.293 90.5908 116.728 93.9573 119.167 96.5388C121.756 99.284 124.934 101.727 128.452 103.146C130.97 104.162 133.862 104.691 136.553 104.199C137.111 104.099 137.426 103.419 137.287 102.907C137.128 102.319 136.557 102.071 135.995 102.172H135.999Z" fill="#231815"/>
<path d="M108.475 72.3606C105.302 72.1129 102.255 73.2798 99.5136 74.7784C96.7726 76.2769 94.2583 77.914 91.853 79.7525C89.4478 81.591 87.2945 83.7024 85.6532 86.2588C84.1757 88.559 83.1137 91.1573 82.5344 93.8312C81.8586 96.9458 81.8208 100.149 82.4379 103.276C82.526 103.725 83.0129 104.048 83.4495 104.048C83.9532 104.048 84.2806 103.708 84.4611 103.276C85.3804 101.097 86.35 98.8053 87.9997 97.0633C89.771 95.187 92.2056 94.3559 94.6612 93.7976C99.2954 92.7482 103.976 91.9675 108.543 90.6242C111.044 89.8897 113.538 89.0166 115.846 87.7867C117.039 87.1528 115.981 85.3395 114.789 85.9733C110.541 88.2358 105.663 89.3272 100.995 90.343C98.7035 90.8425 96.3948 91.2539 94.1071 91.7702C91.4711 92.3662 88.8518 93.3149 86.8663 95.2206C84.7381 97.2648 83.567 100.039 82.4379 102.709H84.4611C83.4747 97.714 84.4527 92.3956 87.03 88.0175C89.8718 83.1903 94.7032 80.0211 99.4255 77.234C102.183 75.6053 105.197 74.1907 108.475 74.4468C109.042 74.4929 109.525 73.9346 109.525 73.3974C109.525 72.7929 109.042 72.3941 108.475 72.348V72.3606Z" fill="#231815"/>
<path d="M149.805 168.905C148.709 179.437 155.673 189.36 164.782 194.028C169.768 196.584 175.338 197.818 180.917 198.053C183.704 198.171 186.517 198.053 189.279 197.68C191.835 197.331 194.505 196.441 195.818 194.036C197.17 191.555 196.813 188.399 195.457 186.002C193.913 183.273 191.298 181.397 188.796 179.617C187.805 178.912 186.706 180.44 187.524 181.267C190.307 184.071 194.081 185.716 198.01 186.019C199.903 186.161 201.909 185.981 203.723 185.389C204.789 185.036 205.733 184.44 206.258 183.412C206.783 182.384 206.967 181.284 207.106 180.188C207.429 177.615 207.001 175.046 205.998 172.666L204.562 174.102C207.584 176.31 212.101 176.859 215.346 174.807C218.217 172.994 219.38 169.295 218.217 166.114C217.575 164.355 216.328 162.978 214.548 162.34C214.015 162.151 213.398 162.554 213.255 163.075C213.096 163.658 213.453 164.174 213.99 164.367C214.926 164.703 215.719 165.555 216.11 166.458C216.601 167.587 216.676 168.821 216.424 169.933C216.152 171.126 215.572 172.116 214.527 172.838C213.314 173.682 211.87 174.022 210.401 173.976C208.671 173.921 207.013 173.308 205.62 172.288C205.25 172.015 204.654 172.146 204.348 172.452C203.991 172.809 204 173.287 204.184 173.724C204.919 175.462 205.204 177.384 205.095 179.261C205.041 180.184 204.885 181.12 204.587 182.002C204.331 182.761 203.84 183.152 203.084 183.391C199.987 184.369 196.507 184.075 193.527 182.828C191.839 182.119 190.303 181.082 189.014 179.785L187.742 181.435C191.151 183.857 195.877 187.471 194.303 192.307C193.581 194.523 191.306 195.266 189.216 195.589C186.726 195.975 184.145 196.051 181.631 195.984C171.771 195.715 161.667 191.996 155.92 183.601C152.974 179.294 151.366 174.144 151.908 168.909C151.966 168.347 151.383 167.86 150.858 167.86C150.241 167.86 149.868 168.343 149.809 168.909L149.805 168.905Z" fill="#231815"/>
<path d="M172.833 223.927C172.917 234.996 173.026 246.069 173.068 257.138C173.11 268.207 173.042 279.306 172.551 290.379C172.279 296.587 171.867 302.791 171.279 308.979C171.225 309.545 171.8 310.028 172.329 310.028C172.942 310.028 173.324 309.545 173.378 308.979C174.428 297.985 174.898 286.941 175.078 275.902C175.259 264.816 175.158 253.726 175.074 242.64C175.028 236.402 174.982 230.161 174.931 223.923C174.923 222.571 172.824 222.571 172.833 223.923V223.927Z" fill="#231815"/>
<path d="M178.584 223.461C178.726 235.315 178.718 247.169 178.567 259.023C178.416 270.877 178.118 282.727 177.673 294.577C177.421 301.267 177.123 307.954 176.779 314.641C176.707 315.993 178.806 315.988 178.877 314.641C179.486 302.804 179.952 290.954 180.271 279.104C180.59 267.254 180.758 255.4 180.783 243.546C180.796 236.851 180.762 230.156 180.682 223.465C180.666 222.114 178.567 222.114 178.584 223.465V223.461Z" fill="#231815"/>
<path d="M179.998 223.453C185.031 230.11 189.762 236.994 194.169 244.084C195.429 246.111 196.658 248.151 197.863 250.208C198.547 251.371 200.361 250.317 199.677 249.15C195.458 241.951 190.912 234.941 186.051 228.154C184.662 226.215 183.247 224.296 181.812 222.395C181.472 221.942 180.905 221.706 180.376 222.017C179.931 222.277 179.654 222.999 179.998 223.453Z" fill="#231815"/>
<path d="M197.813 248.47C195.521 250.535 192.818 251.854 189.93 252.869C186.748 253.986 183.545 255.027 180.351 256.101C179.079 256.53 179.625 258.557 180.909 258.125C184.225 257.008 187.562 255.942 190.853 254.762C193.968 253.65 196.826 252.181 199.299 249.952C200.306 249.045 198.816 247.564 197.813 248.466V248.47Z" fill="#231815"/>
<path d="M151.169 269.261C158.578 266.008 166.201 263.262 173.975 261.021C175.272 260.647 174.718 258.62 173.416 258.998C165.466 261.29 157.684 264.123 150.111 267.447C149.591 267.674 149.473 268.434 149.734 268.883C150.048 269.42 150.649 269.488 151.169 269.261Z" fill="#231815"/>
<path d="M186.479 223.062C191.97 230.597 197.578 238.069 202.657 245.893C204.075 248.076 205.448 250.288 206.762 252.538C207.442 253.705 209.259 252.647 208.575 251.48C203.891 243.458 198.438 235.924 192.973 228.427C191.411 226.286 189.854 224.145 188.293 222.005C187.961 221.547 187.382 221.32 186.857 221.627C186.404 221.891 186.143 222.601 186.479 223.062Z" fill="#231815"/>
<path d="M207.173 251.459C200.352 254.267 193.472 256.928 186.538 259.447C184.548 260.169 182.554 260.878 180.552 261.575C180.019 261.76 179.662 262.293 179.817 262.868C179.96 263.389 180.569 263.787 181.11 263.603C188.074 261.172 194.987 258.595 201.842 255.871C203.811 255.09 205.771 254.292 207.731 253.491C208.256 253.277 208.625 252.794 208.466 252.198C208.332 251.702 207.702 251.249 207.173 251.463V251.459Z" fill="#231815"/>
<path d="M173.047 263.985C166.243 266.839 159.439 269.698 152.635 272.552C152.114 272.77 151.736 273.244 151.9 273.845C152.034 274.336 152.664 274.798 153.193 274.579C159.997 271.725 166.801 268.866 173.606 266.012C174.126 265.794 174.504 265.319 174.34 264.719C174.206 264.228 173.576 263.766 173.047 263.985Z" fill="#231815"/>
<path d="M172.422 308C165.878 306.044 158.738 305.822 152.42 308.689C150.746 309.449 149.201 310.435 147.782 311.602C147.429 311.892 147.4 312.5 147.618 312.874C147.862 313.294 148.345 313.449 148.802 313.357C152.672 312.58 156.777 313.105 160.324 314.834L159.947 313.399C158.818 315.946 156.744 318.033 154.125 319.032C153.596 319.233 153.231 319.737 153.39 320.325C153.529 320.832 154.15 321.261 154.683 321.059C157.798 319.871 160.4 317.525 161.76 314.46C161.974 313.974 161.936 313.294 161.382 313.025C157.298 311.035 152.693 310.443 148.24 311.338L149.26 313.092C154.024 309.18 160.459 308.076 166.449 308.844C168.283 309.079 170.088 309.503 171.859 310.032C173.156 310.418 173.711 308.395 172.418 308.009L172.422 308Z" fill="#231815"/>
<path d="M154.023 320.971C158.028 322.465 162.687 321.512 165.877 318.704L164.228 318.49C165.831 320.832 165.76 324.186 163.879 326.365C163.22 327.129 163.837 328.409 164.899 328.119C168.123 327.234 171.074 325.357 173.53 323.12C175.985 320.883 178.08 318.129 178.835 314.918C179.146 313.604 177.123 313.042 176.812 314.36C176.136 317.239 174.193 319.678 172.044 321.634C169.894 323.59 167.216 325.303 164.341 326.092L165.361 327.847C167.829 324.988 168.194 320.581 166.037 317.428C165.638 316.849 164.92 316.748 164.387 317.214C161.73 319.556 157.868 320.173 154.577 318.944C154.044 318.746 153.427 319.166 153.285 319.678C153.125 320.266 153.486 320.769 154.019 320.971H154.023Z" fill="#231815"/>
<path d="M152.168 274.306C154.2 276.183 154.813 279.125 155.065 281.774C155.22 283.403 155.211 285.027 154.897 286.639C154.557 288.364 153.965 290.022 153.171 291.592L155.128 292.121C154.997 288.796 153.709 285.644 151.488 283.172C151.207 282.861 150.569 282.744 150.216 283.008C146.98 285.443 144.974 289.174 144.806 293.233L146.384 292.327C145.083 291.407 144.218 289.837 144.168 288.242C144.109 286.505 144.923 284.909 146.262 283.827C146.703 283.47 146.632 282.714 146.262 282.341C145.826 281.904 145.221 281.984 144.776 282.341C143.005 283.772 141.935 286.118 142.073 288.402C142.212 290.685 143.429 292.805 145.322 294.14C146.01 294.623 146.871 293.968 146.9 293.233C147.03 289.98 148.659 286.786 151.27 284.821L149.998 284.658C151.841 286.706 152.915 289.372 153.025 292.121C153.062 293.099 154.485 293.628 154.981 292.65C156.727 289.195 157.537 285.485 157.147 281.623C156.832 278.475 156.068 275.062 153.65 272.825C152.659 271.91 151.173 273.391 152.164 274.311L152.168 274.306Z" fill="#231815"/>
<path d="M145.549 282.005C143.563 281.581 141.746 282.424 140.243 283.671C138.74 284.918 137.435 286.37 136.062 287.73C135.101 288.683 136.587 290.165 137.548 289.216C138.782 287.995 139.987 286.723 141.275 285.552C142.262 284.658 143.593 283.73 144.995 284.028C145.549 284.145 146.128 283.864 146.287 283.293C146.43 282.773 146.111 282.122 145.553 282.001L145.549 282.005Z" fill="#231815"/>
<path d="M137.977 288.2C137.439 286.441 136.822 284.561 137.087 282.697C137.326 280.997 138.296 279.469 139.186 278.038C140.075 276.607 141.074 275.205 142.271 273.987C143.379 272.854 144.621 272.002 146.044 271.309C147.623 270.541 149.285 269.974 150.926 269.366C151.459 269.168 151.82 268.656 151.661 268.073C151.522 267.561 150.905 267.141 150.368 267.338C147.098 268.547 143.74 269.66 141.167 272.124C139.811 273.421 138.673 274.944 137.662 276.518C136.65 278.093 135.563 279.83 135.143 281.711C134.61 284.095 135.257 286.475 135.953 288.75C136.348 290.039 138.375 289.489 137.977 288.192V288.2Z" fill="#231815"/>
<path d="M90.7575 93.0631C89.4647 91.594 88.1172 90.213 86.2619 89.491C85.7288 89.2811 85.116 89.7219 84.969 90.2256C84.5325 91.7241 84.2009 93.1891 84.2387 94.759C84.2722 96.2323 83.8399 97.6259 83.4957 99.0489C83.1809 100.363 85.1286 100.904 85.5189 99.6072C86.2955 97.0256 87.1728 94.4777 88.1424 91.9592L86.0814 91.6821C86.2199 92.9372 86.6649 94.335 87.9158 94.8933L88.1676 92.975C87.2609 93.315 86.4592 93.8061 85.7834 94.5029C84.8431 95.4725 86.3249 96.9585 87.2693 95.9888C87.6849 95.5607 88.1634 95.2123 88.7259 95.0024C89.1205 94.8555 89.4269 94.5701 89.4773 94.1293C89.5234 93.7515 89.3555 93.2562 88.9777 93.0841C88.4405 92.8449 88.2474 92.2614 88.1844 91.6863C88.0543 90.5026 86.5599 90.2717 86.1234 91.4093C85.1537 93.9236 84.2764 96.4758 83.4999 99.0573L85.5231 99.6156C85.8799 98.138 86.3626 96.6353 86.3501 95.1032C86.3417 94.398 86.3123 93.7012 86.4382 93.0044C86.5725 92.2572 86.7866 91.5226 87.0007 90.7922L85.7078 91.5268C87.177 92.0977 88.2642 93.4073 89.28 94.5575C89.6536 94.9814 90.3797 94.9394 90.7659 94.5575C91.1899 94.1335 91.1395 93.4997 90.7659 93.0715L90.7575 93.0631Z" fill="#231815"/>
<path d="M132.579 60.1497C129.728 62.9789 126.929 65.8584 124.179 68.7884C123.747 69.2501 123.764 70.1232 124.393 70.438C127.701 72.0793 131.101 73.54 134.568 74.8077C135.101 75.0008 135.718 74.5894 135.861 74.0731C136.021 73.4897 135.664 72.9775 135.127 72.7803C131.827 71.5714 128.599 70.1862 125.455 68.6247L125.669 70.2743C128.419 67.3444 131.219 64.4648 134.069 61.6357C135.03 60.6828 133.544 59.1969 132.583 60.1497H132.579Z" fill="#231815"/>
</svg>
