<svg width="269" height="329" viewBox="0 0 269 329" fill="none" xmlns="http://www.w3.org/2000/svg">
<path d="M199.599 58.0423C201.099 60.1919 202.766 62.8508 204.767 64.5028C207.257 64.6023 210.116 63.917 212.551 63.4517C216.578 62.6821 220.792 61.1169 224.521 59.4408C229.388 57.2537 233.26 51.1724 232.545 45.6525C232.226 43.1824 231.089 39.6075 228.911 38.1377C226.989 36.8405 224.414 36.4502 222.125 36.2567C220.998 36.1614 220.67 36.6042 219.735 37.0523C218.572 37.6097 216.914 38.7158 216.158 39.7774C215.209 41.1083 214.043 42.1764 213.139 43.5324C213.478 41.8844 213.381 40.2631 213.646 38.6033C213.85 37.3177 213.442 35.3736 213.002 34.1659C212.648 33.1948 212.724 32.6497 211.851 31.934C210.078 30.4794 207.963 28.9675 205.677 28.5575C203.088 28.0931 199.764 29.8587 197.801 31.4026C193.413 34.8526 191.911 41.8955 193.855 46.8455C195.345 50.6389 197.259 54.6897 199.599 58.0423Z" fill="#F89797"/>
<path d="M24.0059 37.6285C26.6104 37.924 29.708 38.4304 32.2697 38.0217C33.9906 36.2191 35.3667 33.6206 36.6272 31.4862C38.7123 27.9555 40.3233 23.7594 41.5312 19.8532C43.1074 14.7558 41.1044 7.83024 36.4903 4.71733C34.4255 3.32432 30.9917 1.81385 28.4491 2.47647C26.2049 3.06132 24.2103 4.73478 22.5515 6.32469C21.7353 7.10696 21.8504 7.64607 21.5685 8.64396C21.2178 9.88501 20.9521 11.8597 21.2485 13.1293C21.6201 14.7207 21.6504 16.302 22.0701 17.8768C21.0582 16.5325 19.7775 15.5335 18.7068 14.2381C17.8774 13.2347 16.1488 12.2559 14.9516 11.7878C13.9889 11.4114 13.6302 10.994 12.5165 11.1754C10.2529 11.5443 7.72028 12.1316 5.90166 13.5756C3.84118 15.2117 2.9688 18.8725 2.8292 21.3664C2.51724 26.9392 6.80877 32.722 11.808 34.5357C15.6392 35.9256 19.9437 37.1676 24.0059 37.6285Z" fill="#F89797"/>
<path d="M84.4172 77.6867C76.4172 87.6867 81.0839 98.1867 84.4172 102.187C87.9171 101.52 95.717 99.5868 98.917 97.1868C102.117 94.7868 110.584 92.5201 114.417 91.6868C117.584 95.6868 123.717 103.987 122.917 105.187C121.917 106.687 108.417 139.187 105.917 147.687C103.417 156.187 107.417 186.687 113.417 198.687C118.217 208.287 150.084 219.353 165.417 223.687V245.687L131.417 257.687L132.917 290.687L154.917 295.687L143.917 303.187L152.917 328.687L191.417 326.687V261.687L224.417 249.187L206.417 222.187C211.917 222.353 225.917 220.787 237.917 213.187C249.917 205.587 263.584 162.02 268.917 141.187C262.417 142.187 247.717 144.087 240.917 143.687C232.417 143.187 205.417 132.687 192.417 131.187C179.417 129.687 150.917 137.187 153.917 129.687C156.917 122.187 176.917 99.1868 182.917 89.6868C188.917 80.1868 191.417 64.6868 190.417 54.1868C189.417 43.6868 174.917 28.1867 162.917 25.1867C150.917 22.1867 138.417 25.1867 122.917 30.6867C110.517 35.0867 105.084 52.5201 103.917 60.6867C100.75 62.1867 92.4172 67.6867 84.4172 77.6867Z" fill="white"/>
<path d="M87.6538 85.5026L93.0183 89.9142L117.679 82.2159C117.679 82.2159 122.578 91.4757 126.423 93.9607C130.268 96.4457 138.692 99.4176 138.692 99.4176C138.692 99.4176 123.333 120.636 120.853 129.485C118.372 138.333 111.358 159.468 115.051 169.24C118.745 179.012 122.057 189.242 129.718 195.865C137.378 202.489 143.658 207.892 151.902 210.973C160.146 214.054 177.532 219.968 193.462 216.387C209.392 212.807 222.942 204.408 226.229 201.855C234.254 195.618 244.182 180.561 244.182 180.561C244.182 180.561 230.586 176.641 229.52 175.197C228.453 173.753 234.531 174.26 234.531 174.26L248.178 169.127L235.686 164.98C235.686 164.98 248.09 158.956 250.361 157.05C252.631 155.145 254.609 151.904 254.609 151.904C254.609 151.904 244.883 153.974 240.895 153.39C236.907 152.807 220.163 147.493 220.163 147.493C220.163 147.493 214.849 146.049 209.69 144.995C204.531 143.941 188.53 141.108 180.391 141.293C161.049 141.733 153.506 145.045 150.059 146.049C149.526 146.204 149.027 146.443 148.573 146.758L142.68 150.859C142.68 150.859 137.471 138.581 138.306 132.436C139.141 126.291 148.594 110.44 148.594 110.44L169.142 83.9998C169.142 83.9998 176.538 74.3874 176.328 68.1036C176.118 61.8198 174.166 46.3307 171.807 45.6339C169.448 44.9371 160.217 36.2481 148.628 37.0918C137.038 37.9356 128.874 38.4644 123.837 42.8047C116.369 49.2396 110.514 68.771 110.514 68.771L103.097 70.6641L92.6363 78.0351L87.6538 85.5068V85.5026Z" fill="#F2A0B8"/>
<path d="M177.176 217.534V268.564L175.329 303.983C175.329 303.983 165.952 301.985 162.283 302.786C158.614 303.588 154.081 306.166 154.081 306.166L164.227 308.453L159.802 314.632C159.802 314.632 165.31 315.984 167.933 313.134C170.557 310.283 169.066 320.962 169.066 320.962C169.066 320.962 174.561 318.762 176.232 316.966C177.902 315.169 180.828 309.637 180.828 309.637L181.781 271.384L182.734 217.534H177.176Z" fill="#F3C6DC"/>
<path d="M183.905 217.533L202.219 244.679L175.329 255.412L152.058 264.718C152.058 264.718 143.411 267.048 142.202 271.099C140.993 275.149 138.424 279.725 139.36 281.353C140.296 282.982 147.105 277.928 147.105 277.928C147.105 277.928 145.69 283.003 146.311 284.556C146.933 286.109 148.272 287.776 148.272 287.776L153.64 278.398L157.301 284.741C157.301 284.741 159.122 281.265 159.227 278.734C159.332 276.203 156.591 268.568 156.591 268.568L187.88 256.159L210.018 247.013L189.887 217.042L183.909 217.538L183.905 217.533Z" fill="#F3C6DC"/>
<path d="M112.088 67.6713C113.373 62.3278 114.871 56.9381 117.482 52.0731C120.093 47.2081 123.93 43.086 129.194 41.0586C132.3 39.8623 135.624 39.1697 138.911 38.6828C142.198 38.1959 145.388 38.0196 148.633 38.1371C154.967 38.368 161.418 39.8539 166.926 43.0734C169.516 44.5888 171.803 46.6162 172.932 49.4664C174.175 52.602 174.527 56.1489 174.863 59.4776C175.228 63.0791 175.514 66.8066 175.14 70.4165C174.792 73.7998 173.361 76.8094 171.581 79.6638C167.929 85.5152 163.429 90.7748 158.942 95.9924C154.56 101.084 150.131 106.176 146.412 111.784C142.865 117.131 139.931 123.046 138.718 129.388C137.568 135.408 137.841 141.788 140.25 147.48C140.829 148.848 141.522 150.158 142.34 151.396C143.079 152.521 144.897 151.468 144.154 150.339C140.771 145.205 139.73 138.976 140.313 132.923C140.934 126.496 143.516 120.452 146.861 114.991C150.387 109.236 154.761 104.077 159.148 98.9727C163.761 93.6082 168.433 88.2562 172.349 82.3502C174.238 79.5043 176.034 76.482 176.811 73.1198C177.642 69.535 177.445 65.7446 177.193 62.1011C176.941 58.4576 176.568 54.8267 175.711 51.3217C174.926 48.098 173.352 45.2814 170.754 43.1742C168.156 41.067 165.196 39.6776 162.14 38.5652C159.085 37.4529 155.785 36.7267 152.499 36.3363C145.892 35.5556 139.104 36.1726 132.661 37.7887C129.45 38.5946 126.293 39.7616 123.581 41.6924C121.294 43.3253 119.363 45.3611 117.743 47.653C114.485 52.2578 112.567 57.7146 111.089 63.1127C110.728 64.4391 110.393 65.774 110.069 67.1088C109.746 68.4436 111.778 68.9809 112.093 67.6671L112.088 67.6713Z" fill="#231815"/>
<path d="M143.73 151.191C149.607 146.737 156.436 143.824 163.694 142.577C167.56 141.914 171.493 141.691 175.409 141.658C179.338 141.624 183.276 141.763 187.196 142.04C194.974 142.59 202.706 143.731 210.316 145.452C214.149 146.317 217.948 147.329 221.7 148.479C225.423 149.621 229.075 150.989 232.79 152.164C239.666 154.343 247.284 155.678 254.148 152.718C254.924 152.383 255.667 151.992 256.385 151.552C257.531 150.842 256.477 149.029 255.327 149.738C249.136 153.562 241.496 152.567 234.864 150.607C231.136 149.503 227.497 148.114 223.795 146.938C220.093 145.763 216.264 144.697 212.445 143.794C204.813 141.989 197.044 140.76 189.232 140.105C181.42 139.45 173.432 139.16 165.65 140.184C157.868 141.209 151.084 143.639 144.838 147.837C144.104 148.332 143.382 148.848 142.676 149.386C142.227 149.726 141.988 150.292 142.299 150.821C142.559 151.266 143.281 151.543 143.734 151.199L143.73 151.191Z" fill="#231815"/>
<path d="M254.949 150.28C254.609 151.846 253.429 152.979 252.296 154.032C251.1 155.145 249.836 156.186 248.51 157.139C245.811 159.074 242.873 160.707 239.779 161.92C238.012 162.612 236.198 163.183 234.351 163.628C233.499 163.834 233.294 165.139 234.1 165.546C236.555 166.793 239.162 167.75 241.853 168.346C243.183 168.64 244.535 168.846 245.886 168.976C247.079 169.089 248.334 169.098 249.383 169.736L249.635 167.817C246.231 169.194 242.852 170.668 239.384 171.876C236.102 173.022 232.572 173.9 229.079 173.341C228.613 173.266 228.147 173.392 227.896 173.824C227.669 174.214 227.719 174.781 228.059 175.096C232.735 179.398 239.036 181.787 245.395 181.611C246.743 181.573 246.747 179.474 245.395 179.512C239.59 179.671 233.823 177.547 229.545 173.61L228.525 175.365C232.282 175.969 236.005 175.243 239.569 174.03C243.133 172.817 246.671 171.268 250.197 169.841C251.003 169.513 251.28 168.426 250.449 167.922C249.303 167.23 247.998 167.062 246.688 166.948C245.379 166.835 244.077 166.671 242.784 166.403C240.136 165.853 237.571 164.959 235.162 163.737L234.91 165.656C241.848 163.985 248.329 160.526 253.589 155.699C255.05 154.36 256.536 152.845 256.972 150.842C257.258 149.524 255.239 148.962 254.949 150.284V150.28Z" fill="#231815"/>
<path d="M244.06 179.818C240.467 186.152 235.888 191.874 230.552 196.822C225.217 201.771 219.148 205.906 212.612 209.105C206.085 212.295 199.071 214.503 191.888 215.59C184.53 216.702 176.958 216.555 169.633 215.271C162.22 213.974 155.008 211.552 148.322 208.101C141.635 204.651 135.481 200.193 130.184 194.845C124.341 188.948 119.493 182.034 117.192 173.979C114.909 165.983 114.959 157.453 116.311 149.297C117.663 141.142 120.29 133.015 123.695 125.413C127.099 117.811 131.384 110.579 136.422 103.934C137.651 102.314 138.932 100.736 140.25 99.1909C141.123 98.1709 139.645 96.6765 138.764 97.7049C133.219 104.203 128.413 111.322 124.496 118.915C120.584 126.5 117.478 134.564 115.48 142.867C113.482 151.17 112.613 160.018 113.889 168.594C114.51 172.779 115.69 176.863 117.444 180.712C119.262 184.7 121.743 188.352 124.53 191.722C129.525 197.775 135.574 202.947 142.248 207.073C148.825 211.136 156.049 214.196 163.542 216.102C171.031 218.008 178.838 218.784 186.553 218.26C194.268 217.735 201.451 216.035 208.423 213.239C215.395 210.444 221.935 206.628 227.816 201.935C233.663 197.272 238.805 191.727 242.994 185.527C244.014 184.016 244.975 182.463 245.874 180.876C246.541 179.701 244.728 178.639 244.06 179.818Z" fill="#231815"/>
<path d="M138.999 97.172C136.829 97.5666 134.47 97.0335 132.425 96.2821C131.796 96.0512 131.149 95.7406 130.469 95.3712C129.726 94.9683 129.009 94.5233 128.312 94.049C125.415 92.0719 122.712 89.5114 120.899 86.4933C120.034 85.0536 119.375 83.4459 119.363 81.8886C119.35 80.537 117.251 80.537 117.264 81.8886C117.293 85.5908 119.728 88.9573 122.167 91.5388C124.756 94.284 127.934 96.727 131.452 98.1458C133.97 99.1616 136.862 99.6905 139.553 99.1994C140.111 99.0987 140.426 98.4187 140.287 97.9066C140.128 97.3189 139.557 97.0712 138.995 97.172H138.999Z" fill="#231815"/>
<path d="M111.475 67.3605C108.302 67.1129 105.255 68.2798 102.514 69.7784C99.7726 71.2769 97.2583 72.914 94.853 74.7525C92.4478 76.591 90.2945 78.7024 88.6532 81.2587C87.1757 83.559 86.1137 86.1573 85.5344 88.8312C84.8586 91.9458 84.8208 95.1486 85.4379 98.2758C85.526 98.7249 86.0129 99.0481 86.4495 99.0481C86.9532 99.0481 87.2806 98.7081 87.4611 98.2758C88.3804 96.0972 89.35 93.8053 90.9997 92.0633C92.771 90.187 95.2056 89.3559 97.6612 88.7976C102.295 87.7482 106.976 86.9675 111.543 85.6242C114.044 84.8897 116.538 84.0166 118.846 82.7867C120.039 82.1528 118.981 80.3395 117.789 80.9733C113.541 83.2358 108.663 84.3272 103.995 85.343C101.703 85.8425 99.3948 86.2539 97.1071 86.7702C94.4711 87.3662 91.8518 88.3149 89.8663 90.2206C87.7381 92.2648 86.567 95.0394 85.4379 97.7091H87.4611C86.4747 92.714 87.4527 87.3956 90.03 83.0175C92.8718 78.1903 97.7032 75.0211 102.425 72.2339C105.183 70.6053 108.197 69.1907 111.475 69.4467C112.042 69.4929 112.525 68.9346 112.525 68.3974C112.525 67.7929 112.042 67.3941 111.475 67.348V67.3605Z" fill="#231815"/>
<path d="M152.805 163.905C151.709 174.437 158.673 184.36 167.782 189.028C172.768 191.584 178.338 192.818 183.917 193.053C186.704 193.171 189.517 193.053 192.279 192.68C194.835 192.331 197.505 191.441 198.818 189.036C200.17 186.555 199.813 183.399 198.457 181.002C196.913 178.273 194.298 176.397 191.796 174.617C190.805 173.912 189.706 175.44 190.524 176.267C193.307 179.071 197.081 180.716 201.01 181.019C202.903 181.161 204.909 180.981 206.723 180.389C207.789 180.036 208.733 179.44 209.258 178.412C209.783 177.384 209.967 176.284 210.106 175.188C210.429 172.615 210.001 170.046 208.998 167.666L207.562 169.102C210.584 171.31 215.101 171.859 218.346 169.807C221.217 167.994 222.38 164.295 221.217 161.114C220.575 159.355 219.328 157.978 217.548 157.34C217.015 157.151 216.398 157.554 216.255 158.075C216.096 158.658 216.453 159.174 216.99 159.367C217.926 159.703 218.719 160.555 219.11 161.458C219.601 162.587 219.676 163.821 219.424 164.933C219.152 166.126 218.572 167.116 217.527 167.838C216.314 168.682 214.87 169.022 213.401 168.976C211.671 168.921 210.013 168.308 208.62 167.288C208.25 167.015 207.654 167.146 207.348 167.452C206.991 167.809 207 168.287 207.184 168.724C207.919 170.462 208.204 172.384 208.095 174.261C208.041 175.184 207.885 176.12 207.587 177.002C207.331 177.761 206.84 178.152 206.084 178.391C202.987 179.369 199.507 179.075 196.527 177.828C194.839 177.119 193.303 176.082 192.014 174.785L190.742 176.435C194.151 178.857 198.877 182.471 197.303 187.307C196.581 189.523 194.306 190.266 192.216 190.589C189.726 190.975 187.145 191.051 184.631 190.984C174.771 190.715 164.667 186.996 158.92 178.601C155.974 174.294 154.366 169.144 154.908 163.909C154.966 163.347 154.383 162.86 153.858 162.86C153.241 162.86 152.868 163.343 152.809 163.909L152.805 163.905Z" fill="#231815"/>
<path d="M175.833 218.927C175.917 229.996 176.026 241.069 176.068 252.138C176.11 263.207 176.042 274.306 175.551 285.379C175.279 291.587 174.867 297.791 174.279 303.979C174.225 304.545 174.8 305.028 175.329 305.028C175.942 305.028 176.324 304.545 176.378 303.979C177.428 292.985 177.898 281.941 178.078 270.902C178.259 259.816 178.158 248.726 178.074 237.64C178.028 231.402 177.982 225.161 177.931 218.923C177.923 217.571 175.824 217.571 175.833 218.923V218.927Z" fill="#231815"/>
<path d="M181.584 218.461C181.726 230.315 181.718 242.169 181.567 254.023C181.416 265.877 181.118 277.727 180.673 289.577C180.421 296.267 180.123 302.954 179.779 309.641C179.707 310.993 181.806 310.988 181.877 309.641C182.486 297.804 182.952 285.954 183.271 274.104C183.59 262.254 183.758 250.4 183.783 238.546C183.796 231.851 183.762 225.156 183.682 218.465C183.666 217.114 181.567 217.114 181.584 218.465V218.461Z" fill="#231815"/>
<path d="M182.998 218.453C188.031 225.11 192.762 231.994 197.169 239.084C198.429 241.111 199.658 243.151 200.863 245.208C201.547 246.371 203.361 245.317 202.677 244.15C198.458 236.951 193.912 229.941 189.051 223.154C187.662 221.215 186.247 219.296 184.812 217.395C184.472 216.942 183.905 216.706 183.376 217.017C182.931 217.277 182.654 217.999 182.998 218.453Z" fill="#231815"/>
<path d="M200.813 243.47C198.521 245.535 195.818 246.854 192.93 247.869C189.748 248.986 186.545 250.027 183.351 251.101C182.079 251.53 182.625 253.557 183.909 253.125C187.225 252.008 190.562 250.942 193.853 249.762C196.968 248.65 199.826 247.181 202.299 244.952C203.306 244.045 201.816 242.564 200.813 243.466V243.47Z" fill="#231815"/>
<path d="M154.169 264.261C161.578 261.008 169.201 258.262 176.975 256.021C178.272 255.647 177.718 253.62 176.416 253.998C168.466 256.29 160.684 259.123 153.111 262.447C152.591 262.674 152.473 263.434 152.734 263.883C153.048 264.42 153.649 264.488 154.169 264.261Z" fill="#231815"/>
<path d="M189.479 218.062C194.97 225.597 200.578 233.069 205.657 240.893C207.075 243.076 208.448 245.288 209.762 247.538C210.442 248.705 212.259 247.647 211.575 246.48C206.891 238.458 201.438 230.924 195.973 223.427C194.411 221.286 192.854 219.145 191.293 217.005C190.961 216.547 190.382 216.32 189.857 216.627C189.404 216.891 189.143 217.601 189.479 218.062Z" fill="#231815"/>
<path d="M210.173 246.459C203.352 249.267 196.472 251.928 189.538 254.447C187.548 255.169 185.554 255.878 183.552 256.575C183.019 256.76 182.662 257.293 182.817 257.868C182.96 258.389 183.569 258.787 184.11 258.603C191.074 256.172 197.987 253.595 204.842 250.871C206.811 250.09 208.771 249.292 210.731 248.491C211.256 248.277 211.625 247.794 211.466 247.198C211.332 246.702 210.702 246.249 210.173 246.463V246.459Z" fill="#231815"/>
<path d="M176.047 258.985C169.243 261.839 162.439 264.698 155.635 267.552C155.114 267.77 154.736 268.244 154.9 268.845C155.034 269.336 155.664 269.798 156.193 269.579C162.997 266.725 169.801 263.866 176.606 261.012C177.126 260.794 177.504 260.319 177.34 259.719C177.206 259.228 176.576 258.766 176.047 258.985Z" fill="#231815"/>
<path d="M175.422 303C168.878 301.044 161.738 300.822 155.42 303.689C153.746 304.449 152.201 305.435 150.782 306.602C150.429 306.892 150.4 307.5 150.618 307.874C150.862 308.294 151.345 308.449 151.802 308.357C155.672 307.58 159.777 308.105 163.324 309.834L162.947 308.399C161.818 310.946 159.744 313.033 157.125 314.032C156.596 314.233 156.231 314.737 156.39 315.325C156.529 315.832 157.15 316.261 157.683 316.059C160.798 314.871 163.4 312.525 164.76 309.46C164.974 308.974 164.936 308.294 164.382 308.025C160.298 306.035 155.693 305.443 151.24 306.338L152.26 308.092C157.024 304.18 163.459 303.076 169.449 303.844C171.283 304.079 173.088 304.503 174.859 305.032C176.156 305.418 176.711 303.395 175.418 303.009L175.422 303Z" fill="#231815"/>
<path d="M157.023 315.971C161.028 317.465 165.687 316.512 168.877 313.704L167.228 313.49C168.831 315.832 168.76 319.186 166.879 321.365C166.22 322.129 166.837 323.409 167.899 323.119C171.123 322.234 174.074 320.357 176.53 318.12C178.985 315.883 181.08 313.129 181.835 309.918C182.146 308.604 180.123 308.042 179.812 309.36C179.136 312.239 177.193 314.678 175.044 316.634C172.894 318.59 170.216 320.303 167.341 321.092L168.361 322.847C170.829 319.988 171.194 315.581 169.037 312.428C168.638 311.849 167.92 311.748 167.387 312.214C164.73 314.556 160.868 315.173 157.577 313.944C157.044 313.746 156.427 314.166 156.285 314.678C156.125 315.266 156.486 315.769 157.019 315.971H157.023Z" fill="#231815"/>
<path d="M155.168 269.306C157.2 271.183 157.813 274.125 158.065 276.774C158.22 278.403 158.211 280.027 157.897 281.639C157.557 283.364 156.965 285.022 156.171 286.592L158.128 287.121C157.997 283.796 156.709 280.644 154.488 278.172C154.207 277.861 153.569 277.744 153.216 278.008C149.98 280.443 147.974 284.174 147.806 288.233L149.384 287.327C148.083 286.407 147.218 284.837 147.168 283.242C147.109 281.505 147.923 279.909 149.262 278.827C149.703 278.47 149.632 277.714 149.262 277.341C148.826 276.904 148.221 276.984 147.776 277.341C146.005 278.772 144.935 281.118 145.073 283.402C145.212 285.685 146.429 287.805 148.322 289.14C149.01 289.623 149.871 288.968 149.9 288.233C150.03 284.98 151.659 281.786 154.27 279.821L152.998 279.658C154.841 281.706 155.915 284.372 156.025 287.121C156.062 288.099 157.485 288.628 157.981 287.65C159.727 284.195 160.537 280.485 160.147 276.623C159.832 273.475 159.068 270.062 156.65 267.825C155.659 266.91 154.173 268.391 155.164 269.311L155.168 269.306Z" fill="#231815"/>
<path d="M148.549 277.005C146.563 276.581 144.746 277.424 143.243 278.671C141.74 279.918 140.435 281.37 139.062 282.73C138.101 283.683 139.587 285.165 140.548 284.216C141.782 282.995 142.987 281.723 144.275 280.552C145.262 279.658 146.593 278.73 147.995 279.028C148.549 279.145 149.128 278.864 149.287 278.293C149.43 277.773 149.111 277.122 148.553 277.001L148.549 277.005Z" fill="#231815"/>
<path d="M140.977 283.2C140.439 281.441 139.822 279.561 140.087 277.697C140.326 275.997 141.296 274.469 142.186 273.038C143.075 271.607 144.074 270.205 145.271 268.987C146.379 267.854 147.621 267.002 149.044 266.309C150.623 265.541 152.285 264.974 153.926 264.366C154.459 264.168 154.82 263.656 154.661 263.073C154.522 262.561 153.905 262.141 153.368 262.338C150.098 263.547 146.74 264.66 144.167 267.124C142.811 268.421 141.673 269.944 140.662 271.518C139.65 273.093 138.563 274.83 138.143 276.711C137.61 279.095 138.257 281.475 138.953 283.75C139.348 285.039 141.375 284.489 140.977 283.192V283.2Z" fill="#231815"/>
<path d="M93.7575 88.0631C92.4647 86.594 91.1172 85.213 89.2619 84.491C88.7288 84.2811 88.116 84.7219 87.969 85.2256C87.5325 86.7241 87.2009 88.1891 87.2387 89.759C87.2722 91.2323 86.8399 92.6259 86.4957 94.0489C86.1809 95.3627 88.1286 95.9042 88.5189 94.6072C89.2955 92.0256 90.1728 89.4777 91.1424 86.9592L89.0814 86.6821C89.2199 87.9372 89.6649 89.335 90.9158 89.8933L91.1676 87.975C90.2609 88.315 89.4592 88.8061 88.7834 89.5029C87.8431 90.4725 89.3249 91.9585 90.2693 90.9888C90.6849 90.5607 91.1634 90.2123 91.7259 90.0024C92.1205 89.8555 92.4269 89.5701 92.4773 89.1293C92.5234 88.7515 92.3555 88.2562 91.9777 88.0841C91.4405 87.8449 91.2474 87.2614 91.1844 86.6863C91.0543 85.5026 89.5599 85.2717 89.1234 86.4093C88.1537 88.9236 87.2764 91.4758 86.4999 94.0573L88.5231 94.6156C88.8799 93.138 89.3626 91.6353 89.3501 90.1032C89.3417 89.398 89.3123 88.7012 89.4382 88.0044C89.5725 87.2572 89.7866 86.5226 90.0007 85.7922L88.7078 86.5268C90.177 87.0977 91.2642 88.4073 92.28 89.5575C92.6536 89.9814 93.3797 89.9394 93.7659 89.5575C94.1899 89.1335 94.1395 88.4997 93.7659 88.0715L93.7575 88.0631Z" fill="#231815"/>
<path d="M135.579 55.1497C132.728 57.9789 129.929 60.8584 127.179 63.7884C126.747 64.2501 126.764 65.1232 127.393 65.438C130.701 67.0793 134.101 68.54 137.568 69.8077C138.101 70.0008 138.718 69.5894 138.861 69.0731C139.021 68.4897 138.664 67.9776 138.127 67.7803C134.827 66.5714 131.599 65.1862 128.455 63.6247L128.669 65.2743C131.419 62.3444 134.219 59.4649 137.069 56.6357C138.03 55.6828 136.544 54.1969 135.583 55.1497H135.579Z" fill="#231815"/>
</svg>
