<svg width="189" height="305" viewBox="0 0 189 305" fill="none" xmlns="http://www.w3.org/2000/svg">
<path d="M4.41721 53.6867C-3.58279 63.6867 1.08388 74.1867 4.41721 78.1867C7.91714 77.5201 15.717 75.5868 18.917 73.1868C22.117 70.7868 30.5837 68.5201 34.417 67.6868C37.5837 71.6868 43.717 79.9868 42.917 81.1868C41.917 82.6868 28.417 115.187 25.917 123.687C23.417 132.187 27.417 162.687 33.417 174.687C38.217 184.287 70.0837 195.353 85.417 199.687V221.687L51.417 233.687L52.917 266.687L74.917 271.687L63.917 279.187L72.917 304.687L111.417 302.687V237.687L144.417 225.187L126.417 198.187C131.917 198.353 145.917 196.787 157.917 189.187C169.917 181.587 183.584 138.02 188.917 117.187C182.417 118.187 167.717 120.087 160.917 119.687C152.417 119.187 125.417 108.687 112.417 107.187C99.417 105.687 70.917 113.187 73.917 105.687C76.917 98.1868 96.917 75.1868 102.917 65.6868C108.917 56.1868 111.417 40.6868 110.417 30.1868C109.417 19.6868 94.917 4.18672 82.917 1.18672C70.917 -1.81328 58.417 1.18672 42.917 6.68672C30.517 11.0867 25.0837 28.5201 23.917 36.6867C20.7504 38.1867 12.4172 43.6867 4.41721 53.6867Z" fill="white"/>
<path d="M7.65381 61.5026L13.0183 65.9142L37.6791 58.2159C37.6791 58.2159 42.5777 67.4757 46.4227 69.9607C50.2677 72.4457 58.6922 75.4176 58.6922 75.4176C58.6922 75.4176 43.3333 96.6364 40.8525 105.485C38.3717 114.333 31.3576 135.468 35.0514 145.24C38.7453 155.012 42.0572 165.242 49.7178 171.865C57.3784 178.489 63.658 183.892 71.902 186.973C80.1461 190.054 97.5325 195.968 113.462 192.387C129.392 188.807 142.942 180.408 146.229 177.855C154.254 171.618 164.182 156.561 164.182 156.561C164.182 156.561 150.586 152.641 149.52 151.197C148.453 149.753 154.531 150.26 154.531 150.26L168.178 145.127L155.686 140.98C155.686 140.98 168.09 134.956 170.361 133.05C172.631 131.145 174.609 127.904 174.609 127.904C174.609 127.904 164.883 129.974 160.895 129.39C156.907 128.807 140.163 123.493 140.163 123.493C140.163 123.493 134.849 122.049 129.69 120.995C124.531 119.941 108.53 117.108 100.391 117.293C81.0486 117.733 73.5055 121.045 70.0593 122.049C69.5262 122.204 69.0267 122.443 68.5733 122.758L62.6799 126.859C62.6799 126.859 57.4707 114.581 58.3061 108.436C59.1414 102.291 68.5943 86.4404 68.5943 86.4404L89.1415 59.9998C89.1415 59.9998 96.5377 50.3874 96.3278 44.1036C96.1179 37.8198 94.166 22.3307 91.807 21.6339C89.4479 20.9371 80.2174 12.2481 68.6279 13.0918C57.0384 13.9356 48.8741 14.4644 43.837 18.8047C36.3695 25.2396 30.5139 44.771 30.5139 44.771L23.0967 46.6641L12.6363 54.0351L7.65381 61.5068V61.5026Z" fill="#F2A0B8"/>
<path d="M97.1762 193.534V244.564L95.3292 279.983C95.3292 279.983 85.9518 277.985 82.2831 278.786C78.6144 279.588 74.0811 282.166 74.0811 282.166L84.2266 284.453L79.8024 290.632C79.8024 290.632 85.3096 291.984 87.9331 289.134C90.5566 286.283 89.0664 296.962 89.0664 296.962C89.0664 296.962 94.5611 294.762 96.2317 292.966C97.9023 291.169 100.828 285.637 100.828 285.637L101.781 247.384L102.734 193.534H97.1762Z" fill="#F3C6DC"/>
<path d="M103.905 193.533L122.219 220.679L95.3293 231.412L72.0579 240.718C72.0579 240.718 63.4109 243.048 62.202 247.099C60.9931 251.149 58.4242 255.725 59.3602 257.353C60.2963 258.982 67.1048 253.928 67.1048 253.928C67.1048 253.928 65.6902 259.003 66.3114 260.556C66.9327 262.109 68.2717 263.776 68.2717 263.776L73.6404 254.398L77.3007 260.741C77.3007 260.741 79.1225 257.265 79.2274 254.734C79.3324 252.203 76.5913 244.568 76.5913 244.568L107.88 232.159L130.018 223.013L109.887 193.042L103.909 193.538L103.905 193.533Z" fill="#F3C6DC"/>
<path d="M32.0884 43.6713C33.3729 38.3278 34.8714 32.9381 37.4823 28.0731C40.0932 23.2081 43.9298 19.086 49.1936 17.0586C52.2998 15.8623 55.6243 15.1697 58.911 14.6828C62.1977 14.1959 65.3879 14.0196 68.6326 14.1371C74.9667 14.368 81.4184 15.8539 86.9257 19.0734C89.5156 20.5888 91.8033 22.6162 92.9324 25.4664C94.1749 28.602 94.5275 32.1489 94.8633 35.4776C95.2285 39.0791 95.5139 42.8066 95.1403 46.4165C94.7919 49.7998 93.3606 52.8094 91.5808 55.6638C87.9289 61.5152 83.4291 66.7748 78.9419 71.9924C74.5596 77.0841 70.1311 82.1757 66.4121 87.7837C62.8651 93.1314 59.931 99.0458 58.7179 105.388C57.5678 111.408 57.8406 117.788 60.25 123.48C60.8293 124.848 61.5219 126.158 62.3404 127.396C63.0792 128.521 64.8967 127.468 64.1538 126.339C60.7705 121.205 59.7295 114.976 60.313 108.923C60.9342 102.496 63.5157 96.4517 66.8612 90.9907C70.3872 85.2358 74.7611 80.0769 79.1475 74.9727C83.7607 69.6082 88.4326 64.2562 92.3489 58.3502C94.2379 55.5043 96.0344 52.482 96.811 49.1198C97.6421 45.535 97.4448 41.7446 97.193 38.1011C96.9411 34.4576 96.5675 30.8267 95.7112 27.3217C94.9263 24.098 93.3522 21.2814 90.7539 19.1742C88.1556 17.067 85.1963 15.6776 82.1404 14.5652C79.0846 13.4529 75.7853 12.7267 72.4986 12.3363C65.8916 11.5556 59.1041 12.1726 52.6608 13.7887C49.4496 14.5946 46.2931 15.7616 43.5814 17.6924C41.2937 19.3253 39.3628 21.3611 37.7426 23.653C34.4852 28.2578 32.567 33.7146 31.0894 39.1127C30.7284 40.4391 30.3926 41.774 30.0694 43.1088C29.7462 44.4436 31.7778 44.9809 32.0926 43.6671L32.0884 43.6713Z" fill="#231815"/>
<path d="M63.7301 127.191C69.6067 122.737 76.4362 119.824 83.6938 118.577C87.5598 117.914 91.4929 117.691 95.4092 117.658C99.3382 117.624 103.276 117.763 107.196 118.04C114.974 118.59 122.706 119.731 130.316 121.452C134.149 122.317 137.948 123.329 141.7 124.479C145.423 125.621 149.075 126.989 152.79 128.164C159.666 130.343 167.284 131.678 174.148 128.718C174.924 128.383 175.667 127.992 176.385 127.552C177.531 126.842 176.477 125.029 175.327 125.738C169.136 129.562 161.496 128.567 154.864 126.607C151.136 125.503 147.497 124.114 143.795 122.938C140.093 121.763 136.264 120.697 132.445 119.794C124.813 117.989 117.044 116.76 109.232 116.105C101.42 115.45 93.4322 115.16 85.6499 116.184C77.8675 117.209 71.0842 119.639 64.8382 123.837C64.1037 124.332 63.3817 124.848 62.6765 125.386C62.2273 125.726 61.9881 126.292 62.2987 126.821C62.5589 127.266 63.2809 127.543 63.7343 127.199L63.7301 127.191Z" fill="#231815"/>
<path d="M174.949 126.28C174.609 127.846 173.429 128.979 172.296 130.032C171.1 131.145 169.836 132.186 168.51 133.139C165.811 135.074 162.873 136.707 159.779 137.92C158.012 138.612 156.198 139.183 154.351 139.628C153.499 139.834 153.294 141.139 154.1 141.546C156.555 142.793 159.162 143.75 161.853 144.346C163.183 144.64 164.535 144.846 165.886 144.976C167.079 145.089 168.334 145.098 169.383 145.736L169.635 143.817C166.231 145.194 162.852 146.668 159.384 147.876C156.102 149.022 152.572 149.9 149.079 149.341C148.613 149.266 148.147 149.392 147.896 149.824C147.669 150.214 147.719 150.781 148.059 151.096C152.735 155.398 159.036 157.787 165.395 157.611C166.743 157.573 166.747 155.474 165.395 155.512C159.59 155.671 153.823 153.547 149.545 149.61L148.525 151.365C152.282 151.969 156.005 151.243 159.569 150.03C163.133 148.817 166.671 147.268 170.197 145.841C171.003 145.513 171.28 144.426 170.449 143.922C169.303 143.23 167.998 143.062 166.688 142.948C165.379 142.835 164.077 142.671 162.784 142.403C160.136 141.853 157.571 140.959 155.162 139.737L154.91 141.656C161.848 139.985 168.329 136.526 173.589 131.699C175.05 130.36 176.536 128.845 176.972 126.842C177.258 125.524 175.239 124.962 174.949 126.284V126.28Z" fill="#231815"/>
<path d="M164.06 155.818C160.467 162.152 155.888 167.874 150.552 172.822C145.217 177.771 139.148 181.906 132.612 185.105C126.085 188.295 119.071 190.503 111.888 191.59C104.53 192.702 96.9576 192.555 89.6329 191.271C82.2199 189.974 75.0085 187.552 68.3217 184.101C61.635 180.651 55.4813 176.193 50.184 170.845C44.3409 164.948 39.4927 158.034 37.1924 149.979C34.909 141.983 34.9593 133.453 36.311 125.297C37.6626 117.142 40.2903 109.015 43.6945 101.413C47.0987 93.8114 51.3845 86.5789 56.4216 79.9341C57.6515 78.3139 58.9317 76.7356 60.2498 75.1909C61.1229 74.1709 59.6453 72.6765 58.7638 73.7049C53.2188 80.2028 48.4126 87.3219 44.4962 94.9153C40.5841 102.5 37.4779 110.564 35.4798 118.867C33.4818 127.17 32.6129 136.018 33.8889 144.594C34.5102 148.779 35.6897 152.863 37.4443 156.712C39.2619 160.7 41.7426 164.352 44.5298 167.722C49.525 173.775 55.5737 178.947 62.2478 183.073C68.8254 187.136 76.0495 190.196 83.5422 192.102C91.0307 194.008 98.8382 194.784 106.553 194.26C114.268 193.735 121.451 192.035 128.423 189.239C135.395 186.444 141.935 182.628 147.816 177.935C153.663 173.272 158.805 167.727 162.994 161.527C164.014 160.016 164.975 158.463 165.874 156.876C166.541 155.701 164.728 154.639 164.06 155.818Z" fill="#231815"/>
<path d="M58.9988 73.172C56.8287 73.5666 54.4696 73.0335 52.4254 72.2821C51.7958 72.0512 51.1493 71.7406 50.4693 71.3712C49.7264 70.9683 49.0086 70.5233 48.3118 70.049C45.4154 68.0719 42.7122 65.5114 40.8988 62.4933C40.0341 61.0536 39.3751 59.4459 39.3625 57.8886C39.3499 56.537 37.2511 56.537 37.2637 57.8886C37.2931 61.5908 39.7277 64.9573 42.1665 67.5388C44.7564 70.284 47.934 72.727 51.4516 74.1458C53.9701 75.1616 56.8623 75.6905 59.5529 75.1994C60.1112 75.0987 60.426 74.4187 60.2875 73.9066C60.128 73.3189 59.5571 73.0712 58.9946 73.172H58.9988Z" fill="#231815"/>
<path d="M31.4755 43.3605C28.3021 43.1129 25.2547 44.2798 22.5136 45.7784C19.7726 47.2769 17.2583 48.914 14.853 50.7525C12.4478 52.591 10.2945 54.7024 8.65321 57.2587C7.17566 59.559 6.11367 62.1573 5.5344 64.8312C4.85859 67.9458 4.82081 71.1486 5.43786 74.2758C5.52601 74.7249 6.01293 75.0481 6.44947 75.0481C6.95318 75.0481 7.2806 74.7081 7.46109 74.2758C8.38036 72.0972 9.35001 69.8053 10.9997 68.0633C12.771 66.187 15.2056 65.3559 17.6612 64.7976C22.2954 63.7482 26.9757 62.9675 31.5426 61.6242C34.0444 60.8897 36.5378 60.0166 38.8464 58.7867C40.0385 58.1528 38.9807 56.3395 37.7886 56.9733C33.5407 59.2358 28.6631 60.3272 23.9954 61.343C21.7035 61.8425 19.3948 62.2539 17.1071 62.7702C14.4711 63.3662 11.8518 64.3149 9.86631 66.2206C7.73813 68.2648 6.56701 71.0394 5.43786 73.7091H7.46109C6.47466 68.714 7.4527 63.3956 10.03 59.0175C12.8718 54.1903 17.7032 51.0211 22.4255 48.2339C25.1833 46.6053 28.1972 45.1907 31.4755 45.4467C32.0421 45.4929 32.5249 44.9346 32.5249 44.3974C32.5249 43.7929 32.0421 43.3941 31.4755 43.348V43.3605Z" fill="#231815"/>
<path d="M72.8045 139.905C71.709 150.437 78.6728 160.36 87.7815 165.028C92.7683 167.584 98.3384 168.818 103.917 169.053C106.704 169.171 109.517 169.053 112.279 168.68C114.835 168.331 117.505 167.441 118.818 165.036C120.17 162.555 119.813 159.399 118.457 157.002C116.913 154.273 114.298 152.397 111.796 150.617C110.805 149.912 109.706 151.44 110.524 152.267C113.307 155.071 117.081 156.716 121.01 157.019C122.903 157.161 124.909 156.981 126.723 156.389C127.789 156.036 128.733 155.44 129.258 154.412C129.783 153.384 129.967 152.284 130.106 151.188C130.429 148.615 130.001 146.046 128.998 143.666L127.562 145.102C130.584 147.31 135.101 147.859 138.346 145.807C141.217 143.994 142.38 140.295 141.217 137.114C140.575 135.355 139.328 133.978 137.548 133.34C137.015 133.151 136.398 133.554 136.255 134.075C136.096 134.658 136.453 135.174 136.99 135.367C137.926 135.703 138.719 136.555 139.11 137.458C139.601 138.587 139.676 139.821 139.424 140.933C139.152 142.126 138.572 143.116 137.527 143.838C136.314 144.682 134.87 145.022 133.401 144.976C131.671 144.921 130.013 144.308 128.62 143.288C128.25 143.015 127.654 143.146 127.348 143.452C126.991 143.809 127 144.287 127.184 144.724C127.919 146.462 128.204 148.384 128.095 150.261C128.041 151.184 127.885 152.12 127.587 153.002C127.331 153.761 126.84 154.152 126.084 154.391C122.987 155.369 119.507 155.075 116.527 153.828C114.839 153.119 113.303 152.082 112.014 150.785L110.742 152.435C114.151 154.857 118.877 158.471 117.303 163.307C116.581 165.523 114.306 166.266 112.216 166.589C109.726 166.975 107.145 167.051 104.631 166.984C94.7705 166.715 84.6669 162.996 78.9204 154.601C75.9737 150.294 74.366 145.144 74.9075 139.909C74.9663 139.347 74.3828 138.86 73.8581 138.86C73.2411 138.86 72.8675 139.343 72.8087 139.909L72.8045 139.905Z" fill="#231815"/>
<path d="M95.8326 194.927C95.9165 205.996 96.0257 217.069 96.0677 228.138C96.1096 239.207 96.0425 250.306 95.5514 261.379C95.2785 267.587 94.8671 273.791 94.2795 279.979C94.2249 280.545 94.8 281.028 95.3289 281.028C95.9417 281.028 96.3237 280.545 96.3783 279.979C97.4277 268.985 97.8978 257.941 98.0783 246.902C98.2588 235.816 98.158 224.726 98.0741 213.64C98.0279 207.402 97.9818 201.161 97.9314 194.923C97.923 193.571 95.8242 193.571 95.8326 194.923V194.927Z" fill="#231815"/>
<path d="M101.584 194.461C101.726 206.315 101.718 218.169 101.567 230.023C101.416 241.877 101.118 253.727 100.673 265.577C100.421 272.267 100.123 278.954 99.7786 285.641C99.7073 286.993 101.806 286.988 101.877 285.641C102.486 273.804 102.952 261.954 103.271 250.104C103.59 238.254 103.758 226.4 103.783 214.546C103.796 207.851 103.762 201.156 103.682 194.465C103.666 193.114 101.567 193.114 101.584 194.465V194.461Z" fill="#231815"/>
<path d="M102.998 194.453C108.031 201.11 112.762 207.994 117.169 215.084C118.429 217.111 119.658 219.151 120.863 221.208C121.547 222.371 123.361 221.317 122.677 220.15C118.458 212.951 113.912 205.941 109.051 199.154C107.662 197.215 106.247 195.296 104.812 193.395C104.472 192.942 103.905 192.706 103.376 193.017C102.931 193.277 102.654 193.999 102.998 194.453Z" fill="#231815"/>
<path d="M120.813 219.47C118.521 221.535 115.818 222.854 112.93 223.869C109.748 224.986 106.545 226.027 103.351 227.101C102.079 227.53 102.625 229.557 103.909 229.125C107.225 228.008 110.562 226.942 113.853 225.762C116.968 224.65 119.826 223.181 122.299 220.952C123.306 220.045 121.816 218.564 120.813 219.466V219.47Z" fill="#231815"/>
<path d="M74.1691 240.261C81.5779 237.008 89.2007 234.262 96.9746 232.021C98.2717 231.647 97.7176 229.62 96.4163 229.998C88.4661 232.29 80.6838 235.123 73.1113 238.447C72.5908 238.674 72.4733 239.434 72.7335 239.883C73.0484 240.42 73.6486 240.488 74.1691 240.261Z" fill="#231815"/>
<path d="M109.479 194.062C114.97 201.597 120.578 209.069 125.657 216.893C127.075 219.076 128.448 221.288 129.762 223.538C130.442 224.705 132.259 223.647 131.575 222.48C126.891 214.458 121.438 206.924 115.973 199.427C114.411 197.286 112.854 195.145 111.293 193.005C110.961 192.547 110.382 192.32 109.857 192.627C109.404 192.891 109.143 193.601 109.479 194.062Z" fill="#231815"/>
<path d="M130.173 222.459C123.352 225.267 116.472 227.928 109.538 230.447C107.548 231.169 105.554 231.878 103.552 232.575C103.019 232.76 102.662 233.293 102.817 233.868C102.96 234.389 103.569 234.787 104.11 234.603C111.074 232.172 117.987 229.595 124.842 226.871C126.811 226.09 128.771 225.292 130.731 224.491C131.256 224.277 131.625 223.794 131.466 223.198C131.332 222.702 130.702 222.249 130.173 222.463V222.459Z" fill="#231815"/>
<path d="M96.0474 234.985C89.2431 237.839 82.4388 240.698 75.6345 243.552C75.114 243.77 74.7362 244.244 74.9 244.845C75.0343 245.336 75.6639 245.798 76.1928 245.579C82.9971 242.725 89.8014 239.866 96.6057 237.012C97.1262 236.794 97.5039 236.319 97.3402 235.719C97.2059 235.228 96.5763 234.766 96.0474 234.985Z" fill="#231815"/>
<path d="M95.4219 279C88.8779 277.044 81.7378 276.822 75.4204 279.689C73.7456 280.449 72.2009 281.435 70.7821 282.602C70.4295 282.892 70.4001 283.5 70.6184 283.874C70.8618 284.294 71.3446 284.449 71.8021 284.357C75.6723 283.58 79.7775 284.105 83.3245 285.834L82.9467 284.399C81.8175 286.946 79.7439 289.033 77.1246 290.032C76.5957 290.233 76.2305 290.737 76.3901 291.325C76.5286 291.832 77.1498 292.261 77.6829 292.059C80.7975 290.871 83.4 288.525 84.76 285.46C84.9741 284.974 84.9363 284.294 84.3823 284.025C80.298 282.035 75.6933 281.443 71.2396 282.338L72.2596 284.092C77.0239 280.18 83.4588 279.076 89.4487 279.844C91.2831 280.079 93.088 280.503 94.8594 281.032C96.1565 281.418 96.7106 279.395 95.4177 279.009L95.4219 279Z" fill="#231815"/>
<path d="M77.0234 291.971C81.0279 293.465 85.6872 292.512 88.8774 289.704L87.2277 289.49C88.8312 291.832 88.7598 295.186 86.8793 297.365C86.2203 298.129 86.8373 299.409 87.8993 299.119C91.1231 298.234 94.074 296.357 96.5296 294.12C98.9851 291.883 101.08 289.129 101.835 285.918C102.146 284.604 100.123 284.042 99.8121 285.36C99.1362 288.239 97.1928 290.678 95.0436 292.634C92.8944 294.59 90.2164 296.303 87.341 297.092L88.3611 298.847C90.8292 295.988 91.1944 291.581 89.0369 288.428C88.6381 287.849 87.9203 287.748 87.3872 288.214C84.7301 290.556 80.8684 291.173 77.5775 289.944C77.0444 289.746 76.4273 290.166 76.2846 290.678C76.1251 291.266 76.4861 291.769 77.0192 291.971H77.0234Z" fill="#231815"/>
<path d="M75.1682 245.306C77.1999 247.183 77.8127 250.125 78.0646 252.774C78.2199 254.403 78.2115 256.027 77.8967 257.639C77.5567 259.364 76.9648 261.022 76.1714 262.592L78.1275 263.121C77.9974 259.796 76.7087 256.644 74.4882 254.172C74.207 253.861 73.5689 253.744 73.2163 254.008C69.98 256.443 67.9736 260.174 67.8057 264.233L69.384 263.327C68.0827 262.407 67.218 260.837 67.1676 259.242C67.1089 257.505 67.9232 255.909 69.2622 254.827C69.703 254.47 69.6316 253.714 69.2622 253.341C68.8257 252.904 68.2212 252.984 67.7763 253.341C66.0049 254.772 64.9345 257.118 65.073 259.402C65.2116 261.685 66.4289 263.805 68.322 265.14C69.0104 265.623 69.8709 264.968 69.9003 264.233C70.0304 260.98 71.659 257.786 74.2699 255.821L72.9981 255.658C74.8408 257.706 75.9154 260.372 76.0245 263.121C76.0623 264.099 77.4853 264.628 77.9806 263.65C79.7268 260.195 80.5369 256.485 80.1466 252.623C79.8317 249.475 79.0678 246.062 76.65 243.825C75.6593 242.91 74.1734 244.391 75.164 245.311L75.1682 245.306Z" fill="#231815"/>
<path d="M68.5486 253.005C66.5631 252.581 64.7456 253.424 63.2428 254.671C61.7401 255.918 60.4347 257.37 59.062 258.73C58.1008 259.683 59.5868 261.165 60.548 260.216C61.7821 258.995 62.9868 257.723 64.2755 256.552C65.2619 255.658 66.5925 254.73 67.9945 255.028C68.5486 255.145 69.1279 254.864 69.2874 254.293C69.4301 253.773 69.1111 253.122 68.5528 253.001L68.5486 253.005Z" fill="#231815"/>
<path d="M60.9766 259.2C60.4393 257.441 59.8223 255.561 60.0867 253.697C60.326 251.997 61.2956 250.469 62.1855 249.038C63.0754 247.607 64.0744 246.205 65.2707 244.987C66.3789 243.854 67.6214 243.002 69.0444 242.309C70.6227 241.541 72.2849 240.974 73.9262 240.366C74.4593 240.168 74.8202 239.656 74.6607 239.073C74.5222 238.561 73.9052 238.141 73.3679 238.338C70.098 239.547 66.7399 240.66 64.1668 243.124C62.811 244.421 61.6734 245.944 60.6618 247.518C59.6502 249.093 58.563 250.83 58.1432 252.711C57.6101 255.095 58.2566 257.475 58.9534 259.75C59.3479 261.039 61.3754 260.489 60.9766 259.192V259.2Z" fill="#231815"/>
<path d="M13.7575 64.0631C12.4647 62.594 11.1172 61.213 9.2619 60.491C8.72881 60.2811 8.11596 60.7219 7.96905 61.2256C7.5325 62.7241 7.20089 64.1891 7.23867 65.759C7.27225 67.2323 6.8399 68.6259 6.4957 70.0489C6.18088 71.3627 8.12856 71.9042 8.51893 70.6072C9.29548 68.0256 10.1728 65.4777 11.1424 62.9592L9.08141 62.6821C9.21993 63.9372 9.66487 65.335 10.9158 65.8933L11.1676 63.975C10.2609 64.315 9.45919 64.8061 8.78338 65.5029C7.84312 66.4725 9.32487 67.9585 10.2693 66.9888C10.6849 66.5607 11.1634 66.2123 11.7259 66.0024C12.1205 65.8555 12.4269 65.5701 12.4773 65.1293C12.5234 64.7515 12.3555 64.2562 11.9777 64.0841C11.4405 63.8449 11.2474 63.2614 11.1844 62.6863C11.0543 61.5026 9.55993 61.2717 9.12338 62.4093C8.15374 64.9236 7.27645 67.4758 6.49989 70.0573L8.52313 70.6156C8.87992 69.138 9.36265 67.6353 9.35005 66.1032C9.34166 65.398 9.31227 64.7012 9.4382 64.0044C9.57252 63.2572 9.7866 62.5226 10.0007 61.7922L8.70782 62.5268C10.177 63.0977 11.2642 64.4073 12.28 65.5575C12.6536 65.9814 13.3797 65.9394 13.7659 65.5575C14.1899 65.1335 14.1395 64.4997 13.7659 64.0715L13.7575 64.0631Z" fill="#231815"/>
<path d="M55.5786 31.1497C52.7284 33.9789 49.9287 36.8584 47.1792 39.7884C46.7469 40.2501 46.7637 41.1232 47.3933 41.438C50.701 43.0793 54.1011 44.54 57.5683 45.8077C58.1014 46.0008 58.7184 45.5894 58.8611 45.0731C59.0206 44.4897 58.6638 43.9776 58.1265 43.7803C54.8272 42.5714 51.5993 41.1862 48.4553 39.6247L48.6694 41.2743C51.4188 38.3444 54.2186 35.4649 57.0687 32.6357C58.03 31.6828 56.5441 30.1969 55.5828 31.1497H55.5786Z" fill="#231815"/>
</svg>
