<svg width="189" height="305" viewBox="0 0 189 305" fill="none" xmlns="http://www.w3.org/2000/svg">
<path d="M4.41721 53.6867C-3.58279 63.6867 1.08388 74.1867 4.41721 78.1867C7.91714 77.5201 15.717 75.5868 18.917 73.1868C22.117 70.7868 30.5837 68.5201 34.417 67.6868C37.5837 71.6868 43.717 79.9868 42.917 81.1868C41.917 82.6868 28.417 115.187 25.917 123.687C23.417 132.187 27.417 162.687 33.417 174.687C38.217 184.287 70.0837 195.353 85.417 199.687V221.687L51.417 233.687L52.917 266.687L74.917 271.687L63.917 279.187L72.917 304.687L111.417 302.687V237.687L144.417 225.187L126.417 198.187C131.917 198.353 145.917 196.787 157.917 189.187C169.917 181.587 183.584 138.02 188.917 117.187C182.417 118.187 167.717 120.087 160.917 119.687C152.417 119.187 125.417 108.687 112.417 107.187C99.417 105.687 70.917 113.187 73.917 105.687C76.917 98.1868 96.917 75.1868 102.917 65.6868C108.917 56.1868 111.417 40.6868 110.417 30.1868C109.417 19.6868 94.917 4.18672 82.917 1.18672C70.917 -1.81328 58.417 1.18672 42.917 6.68672C30.517 11.0867 25.0837 28.5201 23.917 36.6867C20.7504 38.1867 12.4172 43.6867 4.41721 53.6867Z" fill="white"/>
<g clip-path="url(#clip0_530_2121)">
<path d="M9.0542 61.4888L14.3875 65.8826L38.9049 58.2153C38.9049 58.2153 43.775 67.4378 47.5976 69.9127C51.4203 72.3876 59.7958 75.3475 59.7958 75.3475C59.7958 75.3475 44.5262 96.4805 42.0598 105.293C39.5935 114.106 32.6201 135.155 36.2925 144.888C39.9649 154.62 43.2575 164.808 50.8736 171.405C58.4896 178.002 64.7327 183.383 72.9288 186.452C81.1249 189.52 98.4102 195.411 114.247 191.844C130.085 188.278 143.556 179.913 146.823 177.371C154.802 171.159 164.672 156.163 164.672 156.163C164.672 156.163 151.155 152.258 150.095 150.82C149.035 149.382 155.078 149.888 155.078 149.888L168.645 144.775L156.225 140.645C156.225 140.645 168.557 134.645 170.815 132.747C173.072 130.849 175.038 127.622 175.038 127.622C175.038 127.622 165.369 129.683 161.404 129.102C157.44 128.521 140.793 123.228 140.793 123.228C140.793 123.228 135.51 121.79 130.381 120.741C125.252 119.691 109.344 116.869 101.252 117.053C82.0221 117.492 74.523 120.791 71.0968 121.79C70.5668 121.945 70.0702 122.183 69.6195 122.496L63.7603 126.581C63.7603 126.581 58.5814 114.353 59.4119 108.232C60.2424 102.112 69.6403 86.3258 69.6403 86.3258L90.068 59.9921C90.068 59.9921 97.4212 50.4185 97.2125 44.1601C97.0039 37.9017 95.0633 22.4753 92.718 21.7813C90.3727 21.0873 81.1959 12.4334 69.6737 13.2737C58.1516 14.114 50.0348 14.6408 45.027 18.9635C37.6029 25.3724 31.7813 44.8248 31.7813 44.8248L24.4073 46.7103L14.0078 54.0514L9.0542 61.4929V61.4888Z" fill="#F2A0B8"/>
<path d="M98.0555 192.986V243.81L96.2193 279.086C96.2193 279.086 86.8965 277.096 83.2491 277.894C79.6018 278.693 75.0947 281.259 75.0947 281.259L85.1813 283.538L80.7828 289.692C80.7828 289.692 86.258 291.038 88.8662 288.199C91.4744 285.361 89.993 295.996 89.993 295.996C89.993 295.996 95.4556 293.805 97.1166 292.016C98.7775 290.227 101.686 284.717 101.686 284.717L102.634 246.619L103.581 192.986H98.0555Z" fill="#F3C6DC"/>
<path d="M104.745 192.986L122.952 220.022L96.2191 230.712L73.083 239.98C73.083 239.98 64.4863 242.3 63.2844 246.335C62.0825 250.369 59.5286 254.926 60.4592 256.548C61.3898 258.17 68.1587 253.136 68.1587 253.136C68.1587 253.136 66.7523 258.191 67.37 259.738C67.9876 261.285 69.3188 262.944 69.3188 262.944L74.6563 253.605L78.2953 259.922C78.2953 259.922 80.1065 256.46 80.2108 253.939C80.3151 251.418 77.5901 243.814 77.5901 243.814L108.697 231.456L130.706 222.346L110.692 192.497L104.749 192.99L104.745 192.986Z" fill="#F3C6DC"/>
<path d="M33.3465 43.7295C34.6235 38.4076 36.1133 33.0397 38.709 28.1944C41.3047 23.349 45.119 19.2437 50.3522 17.2244C53.4403 16.0329 56.7455 15.3431 60.0131 14.8582C63.2807 14.3732 66.4523 14.1977 69.6782 14.3147C75.9755 14.5446 82.3897 16.0246 87.8649 19.2311C90.4397 20.7403 92.7141 22.7596 93.8367 25.5982C95.0719 28.7211 95.4225 32.2537 95.7563 35.569C96.1194 39.1559 96.4032 42.8683 96.0318 46.4636C95.6854 49.8332 94.2623 52.8307 92.4929 55.6735C88.8622 61.5013 84.3886 66.7396 79.9275 71.9361C75.5707 77.0072 71.168 82.0783 67.4706 87.6636C63.9442 92.9897 61.0272 98.8802 59.8211 105.197C58.6777 111.192 58.9489 117.547 61.3443 123.216C61.9202 124.578 62.6088 125.883 63.4226 127.116C64.1571 128.236 65.964 127.187 65.2254 126.063C61.8618 120.95 60.8269 114.746 61.4069 108.717C62.0246 102.317 64.5911 96.2966 67.9171 90.8576C71.4226 85.126 75.771 79.988 80.132 74.9044C84.7183 69.5615 89.363 64.2312 93.2566 58.3491C95.1345 55.5147 96.9206 52.5046 97.6927 49.1559C98.519 45.5857 98.3228 41.8106 98.0724 38.1818C97.8221 34.5531 97.4506 30.9368 96.5993 27.446C95.8189 24.2353 94.254 21.4301 91.6708 19.3314C89.0876 17.2328 86.1455 15.849 83.1074 14.7411C80.0694 13.6333 76.7893 12.91 73.5217 12.5212C66.9531 11.7436 60.2051 12.3582 53.7992 13.9677C50.6068 14.7704 47.4685 15.9326 44.7727 17.8557C42.4983 19.4819 40.5786 21.5095 38.9678 23.7922C35.7294 28.3783 33.8222 33.8131 32.3533 39.1894C31.9944 40.5104 31.6605 41.8399 31.3392 43.1693C31.0179 44.4987 33.0377 45.0339 33.3507 43.7253L33.3465 43.7295Z" fill="#231815"/>
<path d="M64.8039 126.911C70.6464 122.476 77.4361 119.574 84.6516 118.333C88.495 117.672 92.4053 117.45 96.2989 117.417C100.205 117.384 104.119 117.522 108.017 117.797C115.75 118.345 123.437 119.482 131.003 121.196C134.813 122.057 138.59 123.065 142.321 124.211C146.022 125.348 149.653 126.711 153.346 127.881C160.182 130.051 167.756 131.38 174.579 128.433C175.351 128.098 176.09 127.71 176.804 127.271C177.943 126.564 176.895 124.758 175.752 125.465C169.597 129.273 162.001 128.282 155.408 126.33C151.702 125.231 148.084 123.847 144.403 122.676C140.722 121.506 136.916 120.444 133.119 119.545C125.532 117.747 117.807 116.522 110.041 115.87C102.275 115.218 94.3333 114.93 86.5963 115.95C78.8592 116.97 72.1153 119.39 65.9057 123.571C65.1753 124.064 64.4576 124.578 63.7565 125.114C63.3099 125.452 63.0721 126.017 63.3809 126.543C63.6396 126.986 64.3574 127.262 64.8081 126.92L64.8039 126.911Z" fill="#231815"/>
<path d="M175.376 126.004C175.038 127.563 173.866 128.692 172.739 129.741C171.55 130.849 170.293 131.886 168.975 132.835C166.291 134.762 163.37 136.389 160.294 137.597C158.538 138.287 156.735 138.855 154.899 139.298C154.051 139.503 153.847 140.803 154.648 141.209C157.089 142.451 159.681 143.404 162.356 143.997C163.679 144.29 165.023 144.495 166.366 144.624C167.552 144.737 168.799 144.746 169.843 145.381L170.093 143.471C166.709 144.842 163.349 146.309 159.902 147.513C156.639 148.655 153.129 149.528 149.657 148.972C149.194 148.897 148.731 149.022 148.48 149.453C148.255 149.842 148.305 150.406 148.643 150.72C153.292 155.005 159.556 157.384 165.878 157.208C167.218 157.17 167.222 155.08 165.878 155.118C160.107 155.277 154.373 153.161 150.12 149.24L149.106 150.987C152.841 151.589 156.543 150.866 160.086 149.658C163.629 148.45 167.147 146.907 170.652 145.486C171.454 145.16 171.729 144.077 170.903 143.575C169.763 142.885 168.466 142.718 167.164 142.605C165.861 142.492 164.568 142.329 163.282 142.062C160.649 141.514 158.099 140.624 155.704 139.407L155.454 141.318C162.352 139.654 168.795 136.209 174.024 131.401C175.476 130.068 176.954 128.558 177.388 126.564C177.672 125.251 175.664 124.691 175.376 126.008V126.004Z" fill="#231815"/>
<path d="M164.551 155.423C160.979 161.732 156.426 167.43 151.122 172.359C145.818 177.288 139.783 181.406 133.286 184.591C126.797 187.768 119.823 189.967 112.683 191.05C105.367 192.158 97.8389 192.012 90.5567 190.732C83.1869 189.441 76.0173 187.028 69.3695 183.592C62.7216 180.156 56.6037 175.716 51.3372 170.39C45.5281 164.516 40.7081 157.63 38.4212 149.608C36.151 141.644 36.2011 133.149 37.5448 125.026C38.8886 116.903 41.501 108.809 44.8855 101.238C48.2699 93.6669 52.5307 86.4637 57.5385 79.8458C58.7613 78.2321 60.0341 76.6602 61.3445 75.1217C62.2125 74.1058 60.7435 72.6175 59.8672 73.6418C54.3544 80.1134 49.5761 87.2037 45.6825 94.7664C41.7931 102.321 38.705 110.352 36.7186 118.621C34.7321 126.89 33.8683 135.703 35.1369 144.244C35.7546 148.412 36.9272 152.48 38.6716 156.313C40.4786 160.285 42.9449 163.922 45.7159 167.279C50.682 173.308 56.6955 178.458 63.3309 182.568C69.8703 186.615 77.0523 189.662 84.5014 191.56C91.9464 193.458 99.7085 194.232 107.379 193.709C115.049 193.186 122.189 191.493 129.121 188.709C136.053 185.925 142.554 182.125 148.401 177.451C154.214 172.806 159.326 167.283 163.491 161.109C164.505 159.604 165.461 158.057 166.354 156.477C167.018 155.306 165.215 154.248 164.551 155.423Z" fill="#231815"/>
<path d="M60.1009 73.1109C57.9434 73.5039 55.5981 72.9729 53.5657 72.2246C52.9398 71.9947 52.2971 71.6853 51.621 71.3174C50.8824 70.9161 50.1688 70.4729 49.476 70.0005C46.5965 68.0314 43.909 65.4813 42.1062 62.4754C41.2465 61.0414 40.5914 59.4403 40.5788 57.8893C40.5663 56.5431 38.4797 56.5431 38.4922 57.8893C38.5215 61.5766 40.9419 64.9294 43.3665 67.5005C45.9414 70.2346 49.1005 72.6677 52.5976 74.0808C55.1015 75.0925 57.9768 75.6192 60.6518 75.1301C61.2068 75.0298 61.5198 74.3525 61.3821 73.8425C61.2235 73.2572 60.656 73.0105 60.0968 73.1109H60.1009Z" fill="#231815"/>
<path d="M32.737 43.4201C29.5821 43.1735 26.5524 44.3357 23.8273 45.8282C21.1022 47.3207 18.6025 48.9511 16.2113 50.7822C13.82 52.6133 11.6792 54.7162 10.0475 57.2622C8.57853 59.5531 7.52272 62.1409 6.94682 64.804C6.27494 67.906 6.23738 71.0958 6.85084 74.2104C6.93847 74.6577 7.42256 74.9796 7.85657 74.9796C8.35735 74.9796 8.68286 74.641 8.86231 74.2104C9.77623 72.0406 10.7402 69.758 12.3803 68.0231C14.1414 66.1543 16.5618 65.3266 19.0031 64.7705C23.6103 63.7254 28.2634 62.9478 32.8038 61.61C35.291 60.8784 37.7699 60.0088 40.0651 58.7839C41.2503 58.1526 40.1987 56.3466 39.0135 56.9779C34.7902 59.2312 29.941 60.3182 25.3004 61.3299C23.0219 61.8274 20.7266 62.2371 18.4523 62.7513C15.8315 63.3449 13.2274 64.2898 11.2535 66.1878C9.13774 68.2237 7.97342 70.9871 6.85084 73.646H8.86231C7.88161 68.6711 8.85396 63.3742 11.4163 59.0138C14.2415 54.2061 19.0449 51.0498 23.7397 48.2738C26.4814 46.6518 29.4778 45.2429 32.737 45.4979C33.3004 45.5439 33.7803 44.9879 33.7803 44.4528C33.7803 43.8507 33.3004 43.4536 32.737 43.4076V43.4201Z" fill="#231815"/>
<path d="M73.8263 139.574C72.7371 150.063 79.6604 159.946 88.7162 164.595C93.674 167.141 99.2118 168.37 104.758 168.604C107.529 168.721 110.325 168.604 113.071 168.232C115.612 167.885 118.266 166.999 119.573 164.604C120.916 162.133 120.562 158.989 119.214 156.602C117.678 153.885 115.078 152.016 112.591 150.243C111.606 149.541 110.513 151.063 111.326 151.886C114.093 154.679 117.845 156.318 121.751 156.619C123.633 156.761 125.628 156.581 127.431 155.992C128.491 155.64 129.43 155.047 129.951 154.022C130.473 152.998 130.657 151.903 130.794 150.812C131.116 148.249 130.69 145.691 129.693 143.32L128.265 144.75C131.27 146.949 135.76 147.497 138.986 145.452C141.841 143.646 142.997 139.963 141.841 136.794C141.202 135.042 139.963 133.671 138.193 133.036C137.663 132.848 137.05 133.249 136.908 133.767C136.749 134.348 137.104 134.863 137.638 135.055C138.569 135.389 139.358 136.238 139.746 137.137C140.234 138.262 140.309 139.491 140.059 140.599C139.788 141.786 139.212 142.772 138.173 143.491C136.966 144.332 135.531 144.67 134.07 144.624C132.351 144.57 130.703 143.96 129.317 142.944C128.95 142.672 128.357 142.802 128.053 143.107C127.698 143.462 127.706 143.939 127.89 144.374C128.62 146.104 128.904 148.019 128.795 149.888C128.741 150.808 128.587 151.74 128.29 152.618C128.036 153.374 127.548 153.763 126.796 154.002C123.717 154.976 120.257 154.683 117.294 153.441C115.617 152.735 114.089 151.702 112.808 150.41L111.543 152.053C114.932 154.466 119.631 158.065 118.066 162.881C117.348 165.089 115.087 165.829 113.008 166.15C110.534 166.535 107.967 166.61 105.467 166.543C95.6646 166.276 85.6197 162.572 79.9067 154.211C76.9771 149.921 75.3788 144.792 75.9171 139.578C75.9755 139.018 75.3955 138.533 74.8738 138.533C74.2604 138.533 73.8889 139.014 73.8305 139.578L73.8263 139.574Z" fill="#231815"/>
<path d="M96.7205 194.374C96.804 205.398 96.9125 216.426 96.9542 227.451C96.9959 238.475 96.9292 249.529 96.4409 260.557C96.1696 266.74 95.7607 272.919 95.1764 279.081C95.1222 279.646 95.6939 280.127 96.2197 280.127C96.829 280.127 97.2088 279.646 97.263 279.081C98.3063 268.132 98.7737 257.133 98.9532 246.138C99.1326 235.097 99.0324 224.052 98.949 213.011C98.9031 206.799 98.8572 200.582 98.8071 194.37C98.7987 193.023 96.7122 193.023 96.7205 194.37V194.374Z" fill="#231815"/>
<path d="M102.437 193.91C102.579 205.716 102.571 217.522 102.421 229.328C102.27 241.134 101.974 252.936 101.532 264.738C101.281 271.402 100.985 278.061 100.643 284.721C100.572 286.067 102.659 286.063 102.729 284.721C103.335 272.932 103.798 261.13 104.115 249.328C104.432 237.526 104.599 225.72 104.624 213.914C104.637 207.246 104.603 200.578 104.524 193.914C104.507 192.568 102.421 192.568 102.437 193.914V193.91Z" fill="#231815"/>
<path d="M103.844 193.901C108.848 200.532 113.551 207.388 117.933 214.449C119.185 216.468 120.407 218.5 121.605 220.549C122.285 221.707 124.088 220.657 123.408 219.495C119.214 212.325 114.694 205.344 109.862 198.584C108.48 196.652 107.074 194.742 105.647 192.848C105.309 192.396 104.745 192.162 104.22 192.472C103.777 192.731 103.502 193.45 103.844 193.901Z" fill="#231815"/>
<path d="M121.555 218.818C119.276 220.875 116.589 222.187 113.717 223.199C110.554 224.311 107.37 225.348 104.194 226.418C102.93 226.845 103.472 228.864 104.749 228.433C108.046 227.321 111.364 226.259 114.636 225.085C117.732 223.977 120.574 222.513 123.032 220.294C124.034 219.391 122.552 217.915 121.555 218.814V218.818Z" fill="#231815"/>
<path d="M75.1825 239.524C82.5481 236.284 90.1266 233.55 97.8553 231.318C99.1448 230.946 98.594 228.927 97.3003 229.303C89.3963 231.585 81.6592 234.407 74.1308 237.718C73.6133 237.944 73.4965 238.701 73.7552 239.148C74.0682 239.683 74.665 239.75 75.1825 239.524Z" fill="#231815"/>
<path d="M110.287 193.513C115.746 201.017 121.321 208.458 126.371 216.251C127.781 218.425 129.146 220.628 130.452 222.869C131.128 224.031 132.935 222.978 132.255 221.815C127.598 213.826 122.177 206.322 116.743 198.855C115.191 196.723 113.643 194.591 112.09 192.459C111.76 192.003 111.185 191.778 110.663 192.083C110.212 192.346 109.954 193.053 110.287 193.513Z" fill="#231815"/>
<path d="M130.861 221.794C124.079 224.591 117.24 227.242 110.346 229.75C108.367 230.469 106.385 231.176 104.395 231.87C103.865 232.054 103.51 232.585 103.664 233.157C103.806 233.676 104.411 234.073 104.95 233.889C111.873 231.468 118.746 228.901 125.561 226.188C127.518 225.411 129.467 224.616 131.416 223.818C131.938 223.605 132.305 223.124 132.146 222.53C132.013 222.037 131.387 221.585 130.861 221.799V221.794Z" fill="#231815"/>
<path d="M96.933 234.269C90.1683 237.112 83.4035 239.959 76.6388 242.802C76.1214 243.019 75.7458 243.492 75.9085 244.09C76.0421 244.579 76.668 245.039 77.1939 244.821C83.9586 241.978 90.7233 239.131 97.488 236.289C98.0055 236.071 98.3811 235.599 98.2183 235.001C98.0848 234.512 97.4588 234.052 96.933 234.269Z" fill="#231815"/>
<path d="M96.3115 278.107C89.8055 276.159 82.707 275.938 76.4263 278.793C74.7612 279.55 73.2255 280.532 71.815 281.694C71.4644 281.983 71.4352 282.589 71.6522 282.961C71.8943 283.379 72.3742 283.534 72.8291 283.442C76.6767 282.668 80.7581 283.191 84.2844 284.913L83.9088 283.484C82.7863 286.021 80.7247 288.099 78.1207 289.094C77.5948 289.295 77.2318 289.796 77.3904 290.382C77.5281 290.887 78.1457 291.314 78.6757 291.113C81.7722 289.93 84.3595 287.593 85.7117 284.541C85.9245 284.056 85.8869 283.379 85.3361 283.111C81.2756 281.13 76.6976 280.54 72.2699 281.431L73.2839 283.178C78.0205 279.282 84.418 278.183 90.3731 278.948C92.1968 279.182 93.9912 279.604 95.7523 280.131C97.0418 280.515 97.5927 278.5 96.3073 278.116L96.3115 278.107Z" fill="#231815"/>
<path d="M78.0203 291.025C82.0015 292.514 86.6338 291.565 89.8054 288.768L88.1653 288.555C89.7595 290.887 89.6885 294.228 87.8189 296.398C87.1637 297.158 87.7772 298.433 88.833 298.145C92.038 297.263 94.9718 295.394 97.4131 293.166C99.8544 290.938 101.937 288.195 102.688 284.997C102.997 283.688 100.985 283.128 100.676 284.441C100.005 287.309 98.0724 289.738 95.9358 291.686C93.7991 293.634 91.1366 295.34 88.278 296.126L89.2921 297.873C91.7459 295.026 92.109 290.637 89.9639 287.497C89.5675 286.92 88.8539 286.82 88.3239 287.284C85.6823 289.617 81.8429 290.231 78.5712 289.006C78.0412 288.81 77.4277 289.228 77.2858 289.738C77.1273 290.323 77.4862 290.825 78.0162 291.025H78.0203Z" fill="#231815"/>
<path d="M76.1759 244.549C78.1957 246.418 78.805 249.349 79.0553 251.987C79.2098 253.609 79.2014 255.227 78.8884 256.832C78.5504 258.55 77.962 260.202 77.1732 261.765L79.1179 262.292C78.9886 258.981 77.7074 255.841 75.4998 253.379C75.2202 253.07 74.5859 252.953 74.2353 253.216C71.0178 255.641 69.023 259.357 68.8561 263.4L70.4252 262.497C69.1315 261.581 68.2719 260.018 68.2218 258.429C68.1634 256.698 68.973 255.11 70.3042 254.031C70.7424 253.676 70.6714 252.923 70.3042 252.551C69.8702 252.116 69.2693 252.196 68.8269 252.551C67.0658 253.977 66.0017 256.314 66.1394 258.588C66.2771 260.862 67.4873 262.973 69.3694 264.303C70.0538 264.784 70.9093 264.131 70.9385 263.4C71.0679 260.16 72.6871 256.978 75.2828 255.022L74.0183 254.859C75.8504 256.899 76.9187 259.554 77.0272 262.292C77.0647 263.266 78.4795 263.793 78.9719 262.819C80.7079 259.378 81.5133 255.682 81.1252 251.836C80.8123 248.701 80.0527 245.302 77.649 243.074C76.6641 242.162 75.1868 243.638 76.1717 244.554L76.1759 244.549Z" fill="#231815"/>
<path d="M69.5946 252.217C67.6207 251.795 65.8137 252.635 64.3198 253.876C62.8258 255.118 61.5279 256.565 60.1633 257.919C59.2076 258.868 60.6849 260.344 61.6406 259.399C62.8675 258.182 64.0652 256.916 65.3464 255.749C66.3271 254.859 67.6499 253.935 69.0438 254.232C69.5946 254.349 70.1705 254.069 70.3291 253.5C70.471 252.982 70.1538 252.334 69.5988 252.213L69.5946 252.217Z" fill="#231815"/>
<path d="M62.0664 258.387C61.5323 256.636 60.9188 254.763 61.1817 252.907C61.4196 251.213 62.3836 249.692 63.2683 248.266C64.153 246.84 65.1462 245.444 66.3356 244.232C67.4373 243.103 68.6726 242.254 70.0873 241.565C71.6564 240.799 73.3089 240.235 74.9407 239.629C75.4706 239.432 75.8295 238.922 75.671 238.341C75.5332 237.831 74.9198 237.413 74.3856 237.61C71.1347 238.814 67.7962 239.922 65.238 242.376C63.8901 243.667 62.7592 245.185 61.7534 246.753C60.7477 248.32 59.6668 250.051 59.2495 251.924C58.7195 254.299 59.3622 256.669 60.0549 258.935C60.4472 260.218 62.4629 259.671 62.0664 258.379V258.387Z" fill="#231815"/>
<path d="M54.905 46.8775C53.9953 47.0113 53.0772 46.5263 52.4888 45.8156C51.9003 45.1049 51.6082 44.2019 51.4121 43.3031C50.9781 41.3173 51.0407 39.0723 52.2676 37.4544C52.5055 37.1409 52.7851 36.8566 53.1189 36.6517C53.4862 36.4302 53.9076 36.3131 54.3333 36.2504C54.7924 36.1793 55.2639 36.1626 55.7271 36.2253C58.0307 36.5347 59.7334 38.926 59.6082 41.2504C59.483 43.5748 57.772 45.64 55.6312 46.5472" fill="#231815"/>
<path d="M54.905 45.8324C53.0771 46.033 52.5012 43.7713 52.2967 42.3708C52.0755 40.8783 52.1841 39.0263 53.2774 37.8683C54.3708 36.7103 56.3614 37.1743 57.3671 38.1735C58.3729 39.1726 58.7985 40.6359 58.4396 42.0071C57.9973 43.6961 56.6702 44.9544 55.1053 45.64C54.5878 45.8658 54.4709 46.6225 54.7297 47.0698C55.0427 47.6049 55.6394 47.6718 56.1569 47.4461C58.1308 46.5849 59.75 44.8541 60.3843 42.7805C61.0187 40.7069 60.4469 38.3783 58.9404 36.798C58.2352 36.0581 57.292 35.477 56.2863 35.2638C55.0468 35.0004 53.5278 35.1133 52.4511 35.8407C50.473 37.1743 49.9389 39.9293 50.1768 42.1534C50.3228 43.4912 50.6066 44.9377 51.3786 46.0707C52.1507 47.2036 53.4652 48.0815 54.9008 47.9268C55.46 47.8641 55.9441 47.4921 55.9441 46.8817C55.9441 46.3633 55.4642 45.7738 54.9008 45.8365L54.905 45.8324Z" fill="#231815"/>
<path d="M15.1223 64.0389C13.837 62.5757 12.4974 61.2003 10.6528 60.4812C10.1229 60.2722 9.51357 60.7112 9.36751 61.2128C8.9335 62.7053 8.60382 64.1644 8.64137 65.7279C8.67476 67.1953 8.24492 68.5833 7.90272 70.0005C7.58973 71.309 9.52609 71.8483 9.91419 70.5565C10.6862 67.9854 11.5584 65.4478 12.5224 62.9394L10.4734 62.6635C10.6111 63.9135 11.0535 65.3057 12.2971 65.8617L12.5475 63.9511C11.6461 64.2898 10.849 64.7789 10.1771 65.4729C9.24231 66.4386 10.7154 67.9185 11.6544 66.9528C12.0676 66.5264 12.5433 66.1794 13.1025 65.9704C13.4948 65.8241 13.7994 65.5398 13.8495 65.1008C13.8954 64.7246 13.7285 64.2312 13.3529 64.0598C12.8187 63.8215 12.6268 63.2404 12.5642 62.6677C12.4348 61.4888 10.9491 61.2588 10.5151 62.3918C9.55113 64.896 8.67893 67.4378 7.9069 70.0089L9.91837 70.5649C10.2731 69.0933 10.753 67.5966 10.7405 66.0707C10.7321 65.3684 10.7029 64.6744 10.8281 63.9804C10.9617 63.2363 11.1745 62.5047 11.3873 61.7772L10.102 62.5088C11.5626 63.0774 12.6434 64.3817 13.6534 65.5272C14.0248 65.9495 14.7467 65.9077 15.1307 65.5272C15.5522 65.105 15.5021 64.4737 15.1307 64.0473L15.1223 64.0389Z" fill="#231815"/>
</g>
<defs>
<clipPath id="clip0_530_2121">
<rect width="171" height="286" fill="white" transform="translate(6.41699 12.1868)"/>
</clipPath>
</defs>
</svg>
