<svg width="189" height="305" viewBox="0 0 189 305" fill="none" xmlns="http://www.w3.org/2000/svg">
<path d="M4.41721 53.6867C-3.58279 63.6867 1.08388 74.1867 4.41721 78.1867C7.91714 77.5201 15.717 75.5868 18.917 73.1868C22.117 70.7868 30.5837 68.5201 34.417 67.6868C37.5837 71.6868 43.717 79.9868 42.917 81.1868C41.917 82.6868 28.417 115.187 25.917 123.687C23.417 132.187 27.417 162.687 33.417 174.687C38.217 184.287 70.0837 195.353 85.417 199.687V221.687L51.417 233.687L52.917 266.687L74.917 271.687L63.917 279.187L72.917 304.687L111.417 302.687V237.687L144.417 225.187L126.417 198.187C131.917 198.353 145.917 196.787 157.917 189.187C169.917 181.587 183.584 138.02 188.917 117.187C182.417 118.187 167.717 120.087 160.917 119.687C152.417 119.187 125.417 108.687 112.417 107.187C99.417 105.687 70.917 113.187 73.917 105.687C76.917 98.1868 96.917 75.1868 102.917 65.6868C108.917 56.1868 111.417 40.6868 110.417 30.1868C109.417 19.6868 94.917 4.18672 82.917 1.18672C70.917 -1.81328 58.417 1.18672 42.917 6.68672C30.517 11.0867 25.0837 28.5201 23.917 36.6867C20.7504 38.1867 12.4172 43.6867 4.41721 53.6867Z" fill="white"/>
<path d="M9.06689 61.6191L14.4238 66.0246L39.0497 58.3371C39.0497 58.3371 43.9413 67.5838 47.7808 70.0653C51.6204 72.5467 60.033 75.5144 60.033 75.5144C60.033 75.5144 44.6958 96.7031 42.2185 105.539C39.7413 114.375 32.7371 135.48 36.4257 145.238C40.1143 154.996 43.4215 165.211 51.0713 171.826C58.721 178.44 64.9917 183.835 73.2241 186.911C81.4564 189.988 98.8182 195.894 114.725 192.318C130.633 188.743 144.163 180.356 147.445 177.807C155.46 171.578 165.373 156.543 165.373 156.543C165.373 156.543 151.796 152.628 150.732 151.186C149.667 149.744 155.736 150.251 155.736 150.251L169.363 145.125L156.889 140.984C156.889 140.984 169.275 134.969 171.543 133.066C173.811 131.163 175.785 127.927 175.785 127.927C175.785 127.927 166.073 129.993 162.091 129.41C158.109 128.828 141.388 123.521 141.388 123.521C141.388 123.521 136.082 122.079 130.93 121.027C125.779 119.975 109.8 117.146 101.673 117.33C82.3576 117.77 74.8253 121.077 71.3839 122.079C70.8516 122.234 70.3528 122.473 69.9001 122.788L64.015 126.883C64.015 126.883 58.8132 114.622 59.6473 108.486C60.4815 102.349 69.921 86.5216 69.921 86.5216L90.4391 60.1185C90.4391 60.1185 97.8248 50.5197 97.6152 44.2448C97.4056 37.9699 95.4565 22.5028 93.1008 21.807C90.7451 21.1112 81.5277 12.4345 69.9546 13.277C58.3815 14.1195 50.2287 14.6477 45.1988 18.9818C37.7419 25.4076 31.8945 44.9113 31.8945 44.9113L24.4879 46.8017L14.0424 54.1622L9.06689 61.6233V61.6191Z" fill="#F2A0B8"/>
<path d="M98.4623 193.463V244.421L96.618 279.79C96.618 279.79 87.2538 277.794 83.5904 278.595C79.9269 279.396 75.3999 281.969 75.3999 281.969L85.5311 284.254L81.1131 290.424C81.1131 290.424 86.6125 291.773 89.2323 288.927C91.8521 286.081 90.364 296.745 90.364 296.745C90.364 296.745 95.8509 294.548 97.5192 292.754C99.1874 290.96 102.109 285.436 102.109 285.436L103.06 247.237L104.012 193.463H98.4623Z" fill="#F3C6DC"/>
<path d="M105.181 193.463L123.47 220.57L96.6179 231.288L73.3795 240.581C73.3795 240.581 64.7447 242.907 63.5375 246.952C62.3304 250.997 59.7651 255.566 60.6998 257.193C61.6345 258.819 68.4334 253.772 68.4334 253.772C68.4334 253.772 67.0208 258.84 67.6412 260.391C68.2615 261.942 69.5986 263.606 69.5986 263.606L74.9598 254.242L78.6149 260.575C78.6149 260.575 80.434 257.105 80.5388 254.577C80.6436 252.049 77.9065 244.425 77.9065 244.425L109.151 232.034L131.258 222.901L111.155 192.973L105.186 193.467L105.181 193.463Z" fill="#F3C6DC"/>
<path d="M56.4034 21.9664C56.5879 25.7263 58.4322 29.1844 61.4753 31.4018C62.9089 32.4455 64.6148 33.1832 66.3586 33.4976C68.3873 33.8623 70.4915 33.7533 72.537 33.6233C73.1029 33.5856 73.5849 33.1665 73.5849 32.5754C73.5849 32.0347 73.1029 31.4898 72.537 31.5275C70.7472 31.6407 68.861 31.7874 67.0837 31.5066C65.5454 31.2635 64.0951 30.6682 62.8082 29.788C60.243 28.0317 58.6501 25.0556 58.4992 21.9664C58.4322 20.6251 56.3364 20.6167 56.4034 21.9664Z" fill="#231815"/>
<path d="M33.4669 43.8132C34.7495 38.4773 36.2459 33.0952 38.8531 28.2371C41.4603 23.379 45.2915 19.2628 50.5478 17.2383C53.6496 16.0436 56.9694 15.352 60.2514 14.8658C63.5335 14.3796 66.7191 14.2035 69.9592 14.3209C76.2844 14.5514 82.7269 16.0353 88.2264 19.2502C90.8126 20.7634 93.097 22.788 94.2246 25.6341C95.4653 28.7653 95.8174 32.3072 96.1527 35.6312C96.5174 39.2276 96.8025 42.9497 96.4294 46.5546C96.0815 49.933 94.6521 52.9384 92.8749 55.7887C89.2282 61.6319 84.7347 66.884 80.2539 72.0942C75.8778 77.1786 71.4556 82.2631 67.7419 87.8631C64.1999 93.2032 61.27 99.1093 60.0586 105.443C58.9101 111.454 59.1825 117.825 61.5885 123.509C62.167 124.875 62.8586 126.183 63.676 127.42C64.4137 128.543 66.2287 127.491 65.4868 126.363C62.1083 121.237 61.0688 115.017 61.6514 108.972C62.2718 102.555 64.8496 96.5188 68.1904 91.0655C71.7113 85.3188 76.079 80.1673 80.4593 75.0702C85.0659 69.7133 89.7312 64.369 93.642 58.4714C95.5282 55.6294 97.3222 52.6115 98.0977 49.254C98.9276 45.6743 98.7306 41.8893 98.4791 38.2509C98.2276 34.6126 97.8546 30.9868 96.9995 27.4868C96.2156 24.2676 94.6438 21.455 92.0491 19.3508C89.4545 17.2466 86.4994 15.8592 83.4479 14.7484C80.3964 13.6376 77.1018 12.9125 73.8197 12.5227C67.2221 11.743 60.4442 12.3592 54.0101 13.973C50.8035 14.7778 47.6514 15.943 44.9436 17.8712C42.6591 19.5017 40.731 21.5347 39.113 23.8233C35.8603 28.4215 33.9447 33.8707 32.4693 39.2611C32.1088 40.5857 31.7734 41.9186 31.4507 43.2515C31.1279 44.5845 33.1567 45.121 33.4711 43.809L33.4669 43.8132Z" fill="#231815"/>
<path d="M65.0633 127.214C70.9316 122.767 77.7514 119.858 84.9987 118.613C88.8592 117.951 92.7868 117.728 96.6976 117.695C100.621 117.661 104.553 117.8 108.468 118.076C116.235 118.625 123.956 119.766 131.555 121.484C135.382 122.348 139.176 123.358 142.923 124.506C146.641 125.646 150.288 127.013 153.997 128.187C160.863 130.362 168.471 131.695 175.324 128.74C176.1 128.404 176.842 128.015 177.558 127.575C178.703 126.866 177.651 125.055 176.502 125.764C170.319 129.582 162.691 128.589 156.068 126.631C152.346 125.529 148.712 124.142 145.015 122.968C141.317 121.794 137.495 120.73 133.68 119.828C126.06 118.026 118.301 116.798 110.501 116.144C102.7 115.49 94.7233 115.201 86.952 116.224C79.1807 117.246 72.407 119.673 66.1699 123.865C65.4363 124.36 64.7154 124.875 64.0112 125.412C63.5627 125.751 63.3238 126.317 63.6339 126.845C63.8938 127.29 64.6148 127.566 65.0675 127.222L65.0633 127.214Z" fill="#231815"/>
<path d="M176.125 126.305C175.785 127.868 174.607 129 173.476 130.052C172.281 131.163 171.019 132.202 169.695 133.154C167 135.086 164.065 136.717 160.976 137.928C159.212 138.62 157.401 139.19 155.556 139.634C154.706 139.839 154.5 141.143 155.305 141.549C157.757 142.794 160.36 143.75 163.047 144.345C164.376 144.639 165.725 144.844 167.075 144.974C168.265 145.087 169.519 145.096 170.567 145.733L170.818 143.817C167.419 145.192 164.045 146.663 160.582 147.87C157.304 149.015 153.779 149.891 150.292 149.333C149.826 149.258 149.361 149.384 149.11 149.815C148.883 150.205 148.934 150.771 149.273 151.085C153.943 155.382 160.234 157.767 166.585 157.591C167.93 157.553 167.934 155.457 166.585 155.495C160.788 155.654 155.028 153.533 150.757 149.602L149.738 151.354C153.49 151.957 157.208 151.232 160.767 150.021C164.325 148.809 167.859 147.263 171.38 145.838C172.185 145.511 172.461 144.425 171.631 143.922C170.487 143.23 169.183 143.063 167.876 142.949C166.568 142.836 165.268 142.673 163.977 142.405C161.333 141.855 158.771 140.963 156.365 139.743L156.114 141.658C163.043 139.99 169.515 136.536 174.767 131.716C176.225 130.379 177.709 128.866 178.145 126.866C178.43 125.55 176.414 124.988 176.125 126.309V126.305Z" fill="#231815"/>
<path d="M165.252 155.801C161.664 162.126 157.091 167.84 151.763 172.781C146.436 177.723 140.374 181.852 133.848 185.046C127.33 188.232 120.326 190.437 113.154 191.522C105.806 192.633 98.2444 192.486 90.93 191.204C83.5275 189.909 76.3263 187.49 69.649 184.044C62.9718 180.599 56.8268 176.147 51.537 170.807C45.7022 164.918 40.8609 158.014 38.5639 149.971C36.2836 141.986 36.3339 133.468 37.6836 125.324C39.0333 117.179 41.6573 109.064 45.0567 101.473C48.4561 93.8824 52.7358 86.6602 57.7657 80.0248C58.9939 78.4068 60.2723 76.8308 61.5885 75.2883C62.4604 74.2697 60.9849 72.7775 60.1047 73.8044C54.5675 80.2931 49.7681 87.4021 45.8573 94.9848C41.9507 102.559 38.8489 110.611 36.8537 118.902C34.8585 127.193 33.9908 136.029 35.2651 144.593C35.8854 148.772 37.0633 152.85 38.8154 156.694C40.6303 160.676 43.1076 164.323 45.8908 167.689C50.8789 173.733 56.919 178.897 63.5837 183.017C70.152 187.075 77.3658 190.131 84.8479 192.034C92.3258 193.937 100.122 194.712 107.826 194.188C115.531 193.664 122.703 191.967 129.665 189.175C136.627 186.383 143.158 182.573 149.03 177.887C154.869 173.23 160.004 167.693 164.187 161.502C165.206 159.993 166.166 158.442 167.063 156.857C167.729 155.684 165.918 154.623 165.252 155.801Z" fill="#231815"/>
<path d="M60.3396 73.2721C58.1725 73.6661 55.8168 73.1338 53.7755 72.3835C53.1467 72.153 52.5012 71.8428 51.8222 71.4739C51.0803 71.0715 50.3635 70.6272 49.6677 70.1536C46.7755 68.1793 44.0761 65.6224 42.2653 62.6086C41.4018 61.1709 40.7437 59.5655 40.7311 58.0104C40.7186 56.6607 38.6227 56.6607 38.6353 58.0104C38.6647 61.7074 41.0958 65.0691 43.5311 67.647C46.1174 70.3883 49.2904 72.8278 52.803 74.2446C55.318 75.259 58.2061 75.7871 60.8929 75.2967C61.4504 75.1961 61.7648 74.517 61.6264 74.0057C61.4671 73.4188 60.8971 73.1715 60.3354 73.2721H60.3396Z" fill="#231815"/>
<path d="M32.8549 43.503C29.6861 43.2557 26.6429 44.421 23.9058 45.9174C21.1687 47.4138 18.6579 49.0486 16.2561 50.8845C13.8543 52.7204 11.7039 54.8288 10.065 57.3815C8.58957 59.6785 7.52908 62.2732 6.95064 64.9432C6.27578 68.0534 6.23806 71.2516 6.85423 74.3744C6.94225 74.8229 7.42848 75.1457 7.86441 75.1457C8.36741 75.1457 8.69436 74.8062 8.8746 74.3744C9.79256 72.199 10.7608 69.9103 12.4081 68.1708C14.177 66.2971 16.6082 65.4672 19.0603 64.9097C23.6878 63.8618 28.3615 63.0821 32.922 61.7408C35.4202 61.0073 37.91 60.1354 40.2154 58.9073C41.4059 58.2743 40.3496 56.4636 39.1592 57.0965C34.9172 59.3558 30.0465 60.4456 25.3854 61.46C23.0968 61.9588 20.7914 62.3696 18.507 62.8851C15.8746 63.4804 13.259 64.4277 11.2764 66.3307C9.15124 68.372 7.98178 71.1427 6.85423 73.8085H8.8746C7.88956 68.8205 8.86621 63.5097 11.4399 59.1378C14.2776 54.3174 19.1022 51.1528 23.8178 48.3695C26.5717 46.7432 29.5813 45.3306 32.8549 45.5863C33.4208 45.6324 33.9028 45.0749 33.9028 44.5384C33.9028 43.9348 33.4208 43.5366 32.8549 43.4905V43.503Z" fill="#231815"/>
<path d="M74.1257 139.911C73.0317 150.428 79.9856 160.337 89.0814 164.998C94.0611 167.55 99.6234 168.783 105.194 169.017C107.977 169.135 110.786 169.017 113.544 168.644C116.097 168.296 118.762 167.408 120.074 165.006C121.424 162.529 121.068 159.377 119.714 156.983C118.171 154.259 115.56 152.385 113.062 150.608C112.073 149.904 110.974 151.429 111.792 152.255C114.571 155.055 118.339 156.698 122.262 157C124.153 157.143 126.156 156.962 127.967 156.371C129.032 156.019 129.975 155.424 130.499 154.397C131.023 153.37 131.207 152.272 131.346 151.178C131.668 148.608 131.241 146.043 130.239 143.666L128.806 145.1C131.824 147.305 136.334 147.854 139.574 145.804C142.441 143.993 143.602 140.301 142.441 137.123C141.8 135.367 140.555 133.992 138.777 133.355C138.245 133.166 137.629 133.569 137.486 134.089C137.327 134.671 137.683 135.187 138.22 135.38C139.155 135.715 139.947 136.566 140.337 137.467C140.827 138.595 140.903 139.827 140.651 140.938C140.379 142.128 139.8 143.117 138.756 143.838C137.545 144.681 136.103 145.02 134.636 144.974C132.909 144.92 131.253 144.308 129.862 143.289C129.493 143.017 128.898 143.147 128.592 143.453C128.235 143.809 128.244 144.287 128.428 144.723C129.162 146.458 129.447 148.378 129.338 150.252C129.283 151.174 129.128 152.108 128.831 152.989C128.575 153.747 128.085 154.137 127.33 154.376C124.237 155.353 120.762 155.059 117.786 153.814C116.101 153.106 114.567 152.071 113.28 150.775L112.01 152.423C115.413 154.841 120.133 158.45 118.561 163.279C117.84 165.492 115.568 166.234 113.481 166.557C110.995 166.943 108.417 167.018 105.907 166.951C96.0605 166.683 85.9712 162.969 80.2329 154.586C77.2904 150.285 75.685 145.142 76.2257 139.915C76.2844 139.353 75.7017 138.867 75.1778 138.867C74.5616 138.867 74.1885 139.349 74.1299 139.915L74.1257 139.911Z" fill="#231815"/>
<path d="M97.1209 194.855C97.2047 205.908 97.3137 216.966 97.3556 228.019C97.3976 239.072 97.3305 250.155 96.8401 261.212C96.5676 267.412 96.1568 273.607 95.57 279.786C95.5155 280.351 96.0898 280.833 96.6179 280.833C97.2299 280.833 97.6113 280.351 97.6658 279.786C98.7137 268.808 99.1832 257.779 99.3634 246.755C99.5437 235.685 99.4431 224.611 99.3592 213.541C99.3131 207.312 99.267 201.079 99.2167 194.85C99.2083 193.501 97.1125 193.501 97.1209 194.85V194.855Z" fill="#231815"/>
<path d="M102.864 194.389C103.006 206.227 102.998 218.064 102.847 229.901C102.696 241.738 102.398 253.571 101.954 265.404C101.703 272.085 101.405 278.763 101.061 285.44C100.99 286.79 103.086 286.786 103.157 285.44C103.765 273.62 104.23 261.787 104.549 249.954C104.867 238.121 105.035 226.284 105.06 214.446C105.073 207.761 105.039 201.075 104.96 194.394C104.943 193.044 102.847 193.044 102.864 194.394V194.389Z" fill="#231815"/>
<path d="M104.276 194.381C109.302 201.029 114.026 207.903 118.427 214.983C119.685 217.007 120.913 219.045 122.116 221.098C122.799 222.26 124.61 221.207 123.927 220.042C119.714 212.853 115.175 205.853 110.321 199.076C108.933 197.139 107.521 195.223 106.087 193.325C105.748 192.872 105.182 192.637 104.654 192.947C104.209 193.207 103.933 193.928 104.276 194.381Z" fill="#231815"/>
<path d="M122.065 219.363C119.777 221.425 117.077 222.742 114.193 223.756C111.016 224.871 107.818 225.91 104.628 226.983C103.358 227.411 103.903 229.436 105.186 229.004C108.497 227.889 111.829 226.824 115.116 225.646C118.226 224.536 121.08 223.068 123.549 220.843C124.555 219.937 123.067 218.458 122.065 219.359V219.363Z" fill="#231815"/>
<path d="M75.4882 240.124C82.8864 236.876 90.4984 234.134 98.2613 231.896C99.5566 231.523 99.0033 229.498 97.7038 229.876C89.7649 232.164 81.9936 234.994 74.4319 238.313C73.9121 238.54 73.7948 239.299 74.0546 239.747C74.369 240.284 74.9684 240.351 75.4882 240.124Z" fill="#231815"/>
<path d="M110.748 193.991C116.231 201.515 121.831 208.976 126.903 216.789C128.319 218.969 129.69 221.178 131.002 223.425C131.681 224.59 133.496 223.534 132.813 222.368C128.135 214.358 122.69 206.834 117.232 199.348C115.673 197.21 114.118 195.072 112.559 192.935C112.228 192.478 111.649 192.251 111.125 192.557C110.673 192.822 110.413 193.53 110.748 193.991Z" fill="#231815"/>
<path d="M131.413 222.347C124.601 225.152 117.731 227.809 110.806 230.324C108.82 231.045 106.829 231.753 104.829 232.449C104.297 232.634 103.941 233.166 104.096 233.74C104.238 234.26 104.846 234.658 105.387 234.474C112.341 232.047 119.244 229.473 126.089 226.753C128.055 225.973 130.013 225.177 131.97 224.376C132.494 224.162 132.863 223.68 132.704 223.085C132.569 222.591 131.941 222.138 131.413 222.352V222.347Z" fill="#231815"/>
<path d="M97.3347 234.855C90.5401 237.706 83.7455 240.56 76.9508 243.41C76.4311 243.628 76.0538 244.102 76.2173 244.701C76.3514 245.192 76.9802 245.653 77.5083 245.435C84.3029 242.585 91.0976 239.73 97.8922 236.88C98.412 236.662 98.7892 236.188 98.6258 235.589C98.4916 235.098 97.8629 234.637 97.3347 234.855Z" fill="#231815"/>
<path d="M96.7103 278.809C90.1755 276.856 83.0455 276.633 76.7371 279.496C75.0647 280.255 73.5222 281.24 72.1054 282.405C71.7533 282.695 71.7239 283.302 71.9419 283.675C72.185 284.095 72.6671 284.25 73.1239 284.157C76.9886 283.382 81.088 283.906 84.63 285.633L84.2527 284.199C83.1252 286.744 81.0545 288.827 78.4389 289.824C77.9108 290.026 77.5461 290.529 77.7054 291.116C77.8437 291.623 78.4641 292.05 78.9964 291.849C82.1066 290.663 84.7054 288.32 86.0635 285.26C86.2773 284.774 86.2396 284.095 85.6863 283.826C81.6078 281.839 77.0096 281.248 72.5623 282.141L73.5808 283.893C78.3383 279.987 84.7641 278.884 90.7456 279.651C92.5773 279.886 94.3797 280.309 96.1486 280.838C97.4438 281.223 97.9971 279.203 96.7061 278.817L96.7103 278.809Z" fill="#231815"/>
<path d="M78.3382 291.761C82.337 293.253 86.9897 292.302 90.1754 289.498L88.5281 289.284C90.1293 291.623 90.058 294.972 88.1802 297.147C87.5221 297.91 88.1382 299.189 89.1987 298.899C92.4179 298.015 95.3646 296.141 97.8167 293.907C100.269 291.673 102.36 288.923 103.115 285.717C103.425 284.405 101.405 283.843 101.095 285.159C100.42 288.035 98.479 290.47 96.3329 292.423C94.1868 294.377 91.5125 296.087 88.6412 296.875L89.6598 298.627C92.1245 295.772 92.4891 291.371 90.3346 288.223C89.9364 287.645 89.2197 287.544 88.6873 288.009C86.034 290.348 82.1777 290.965 78.8915 289.736C78.3591 289.539 77.743 289.959 77.6005 290.47C77.4412 291.057 77.8017 291.56 78.334 291.761H78.3382Z" fill="#231815"/>
<path d="M76.4854 245.163C78.5142 247.036 79.1262 249.975 79.3777 252.62C79.5328 254.246 79.5244 255.868 79.21 257.478C78.8705 259.2 78.2795 260.856 77.4872 262.424L79.4405 262.952C79.3106 259.632 78.0238 256.484 75.8064 254.015C75.5256 253.705 74.8884 253.588 74.5363 253.852C71.3046 256.283 69.301 260.009 69.1333 264.063L70.7094 263.157C69.41 262.239 68.5465 260.672 68.4962 259.079C68.4375 257.344 69.2507 255.751 70.5878 254.669C71.0279 254.313 70.9567 253.559 70.5878 253.185C70.1519 252.75 69.5483 252.829 69.104 253.185C67.3351 254.615 66.2662 256.958 66.4046 259.238C66.5429 261.518 67.7585 263.635 69.6489 264.968C70.3363 265.45 71.1956 264.796 71.2249 264.063C71.3549 260.814 72.9812 257.624 75.5884 255.663L74.3184 255.499C76.1585 257.545 77.2316 260.206 77.3405 262.952C77.3783 263.929 78.7992 264.457 79.2938 263.48C81.0376 260.03 81.8465 256.325 81.4567 252.469C81.1424 249.325 80.3795 245.917 77.9651 243.683C76.9759 242.769 75.492 244.249 76.4812 245.167L76.4854 245.163Z" fill="#231815"/>
<path d="M69.8755 252.85C67.8929 252.427 66.0779 253.269 64.5773 254.514C63.0767 255.759 61.7731 257.209 60.4024 258.567C59.4425 259.519 60.9264 260.999 61.8863 260.051C63.1186 258.832 64.3216 257.561 65.6084 256.392C66.5935 255.499 67.9222 254.573 69.3222 254.87C69.8755 254.988 70.454 254.707 70.6132 254.137C70.7558 253.617 70.4372 252.967 69.8797 252.846L69.8755 252.85Z" fill="#231815"/>
<path d="M62.3136 259.037C61.7771 257.281 61.1609 255.403 61.425 253.542C61.6639 251.844 62.6322 250.318 63.5208 248.889C64.4094 247.46 65.4071 246.06 66.6017 244.844C67.7083 243.712 68.949 242.861 70.37 242.17C71.946 241.403 73.6059 240.837 75.2448 240.229C75.7772 240.032 76.1376 239.521 75.9784 238.938C75.84 238.427 75.2239 238.007 74.6873 238.204C71.422 239.412 68.0687 240.522 65.4993 242.983C64.1454 244.278 63.0094 245.8 61.9993 247.372C60.9891 248.943 59.9034 250.679 59.4843 252.557C58.9519 254.937 59.5974 257.314 60.2933 259.586C60.6873 260.873 62.7118 260.324 62.3136 259.028V259.037Z" fill="#231815"/>
<path d="M55.1208 46.9695C54.207 47.1036 53.2848 46.6174 52.6938 45.9048C52.1028 45.1922 51.8094 44.2868 51.6124 43.3856C51.1765 41.3946 51.2393 39.1437 52.4717 37.5215C52.7106 37.2072 52.9914 36.9221 53.3268 36.7167C53.6956 36.4946 54.119 36.3772 54.5465 36.3143C55.0076 36.2431 55.4813 36.2263 55.9465 36.2892C58.2603 36.5994 59.9705 38.997 59.8448 41.3275C59.719 43.6581 58.0004 45.7287 55.8501 46.6383" fill="#231815"/>
<path d="M55.1209 45.9215C53.285 46.1227 52.7066 43.855 52.5012 42.4508C52.279 40.9544 52.388 39.0975 53.4862 37.9364C54.5844 36.7754 56.5838 37.2406 57.594 38.2424C58.6042 39.2442 59.0317 40.7113 58.6712 42.0862C58.2269 43.7796 56.894 45.0413 55.3221 45.7287C54.8024 45.955 54.685 46.7137 54.9449 47.1622C55.2593 47.6988 55.8587 47.7658 56.3784 47.5395C58.3611 46.676 59.9874 44.9407 60.6245 42.8616C61.2617 40.7826 60.6874 38.4478 59.1742 36.8634C58.4659 36.1215 57.5185 35.5388 56.5084 35.325C55.2634 35.061 53.7377 35.1741 52.6562 35.9035C50.6694 37.2406 50.1329 40.0029 50.3718 42.2329C50.5185 43.5742 50.8035 45.0245 51.579 46.1604C52.3545 47.2964 53.6748 48.1766 55.1167 48.0215C55.6784 47.9586 56.1646 47.5856 56.1646 46.9736C56.1646 46.4538 55.6826 45.8628 55.1167 45.9257L55.1209 45.9215Z" fill="#231815"/>
<path d="M15.1617 64.176C13.8707 62.709 12.5252 61.3299 10.6725 60.609C10.1401 60.3994 9.52817 60.8395 9.38146 61.3425C8.94553 62.8389 8.61439 64.3018 8.65212 65.8695C8.68565 67.3407 8.25391 68.7324 7.9102 70.1533C7.59583 71.4653 9.54074 72.006 9.93057 70.7108C10.706 68.1329 11.5821 65.5886 12.5503 63.0736L10.4922 62.797C10.6306 64.0503 11.0749 65.4461 12.324 66.0036L12.5755 64.088C11.6701 64.4275 10.8695 64.918 10.1946 65.6138C9.25571 66.582 10.7354 68.0659 11.6785 67.0976C12.0934 66.6701 12.5713 66.3222 13.133 66.1126C13.527 65.9659 13.833 65.6808 13.8833 65.2407C13.9294 64.8635 13.7617 64.3689 13.3845 64.197C12.8479 63.9581 12.6551 63.3754 12.5923 62.8012C12.4623 61.6192 10.9701 61.3886 10.5342 62.5245C9.56589 65.0353 8.68984 67.5838 7.91439 70.1617L9.93476 70.7192C10.291 69.2437 10.7731 67.7431 10.7605 66.2132C10.7521 65.509 10.7228 64.8132 10.8485 64.1174C10.9827 63.3713 11.1964 62.6377 11.4102 61.9084L10.1192 62.6419C11.5863 63.212 12.6719 64.5198 13.6863 65.6683C14.0593 66.0916 14.7845 66.0497 15.1701 65.6683C15.5935 65.2449 15.5432 64.612 15.1701 64.1844L15.1617 64.176Z" fill="#231815"/>
</svg>
