<svg width="352" height="193" viewBox="0 0 352 193" fill="none" xmlns="http://www.w3.org/2000/svg">
<mask id="path-1-inside-1_307_2376" fill="white">
<path fill-rule="evenodd" clip-rule="evenodd" d="M98.2298 40L74 0L49.7702 40H4C1.79086 40 0 41.7909 0 44V189C0 191.209 1.79086 193 4 193H348C350.209 193 352 191.209 352 189V44C352 41.7909 350.209 40 348 40H98.2298Z"/>
</mask>
<path fill-rule="evenodd" clip-rule="evenodd" d="M98.2298 40L74 0L49.7702 40H4C1.79086 40 0 41.7909 0 44V189C0 191.209 1.79086 193 4 193H348C350.209 193 352 191.209 352 189V44C352 41.7909 350.209 40 348 40H98.2298Z" fill="white"/>
<path d="M74 0L74.8553 -0.518104C74.6741 -0.817261 74.3498 -1 74 -1C73.6502 -1 73.3259 -0.817261 73.1447 -0.518104L74 0ZM98.2298 40L97.3745 40.5181C97.5557 40.8173 97.88 41 98.2298 41V40ZM49.7702 40V41C50.12 41 50.4443 40.8173 50.6255 40.5181L49.7702 40ZM73.1447 0.518104L97.3745 40.5181L99.0851 39.4819L74.8553 -0.518104L73.1447 0.518104ZM50.6255 40.5181L74.8553 0.518104L73.1447 -0.518104L48.9149 39.4819L50.6255 40.5181ZM4 41H49.7702V39H4V41ZM1 44C1 42.3431 2.34315 41 4 41V39C1.23858 39 -1 41.2386 -1 44H1ZM1 189V44H-1V189H1ZM4 192C2.34314 192 1 190.657 1 189H-1C-1 191.761 1.23857 194 4 194V192ZM348 192H4V194H348V192ZM351 189C351 190.657 349.657 192 348 192V194C350.761 194 353 191.761 353 189H351ZM351 44V189H353V44H351ZM348 41C349.657 41 351 42.3431 351 44H353C353 41.2386 350.761 39 348 39V41ZM98.2298 41H348V39H98.2298V41Z" fill="#514848" mask="url(#path-1-inside-1_307_2376)"/>
</svg>
