<svg width="266" height="391" viewBox="0 0 266 391" fill="none" xmlns="http://www.w3.org/2000/svg">
<path d="M196.599 127.042C198.099 129.192 199.766 131.851 201.767 133.503C204.257 133.602 207.116 132.917 209.551 132.452C213.578 131.682 217.792 130.117 221.521 128.441C226.388 126.254 230.26 120.172 229.545 114.653C229.226 112.182 228.089 108.607 225.911 107.138C223.989 105.841 221.414 105.45 219.125 105.257C217.998 105.161 217.67 105.604 216.735 106.052C215.572 106.61 213.914 107.716 213.158 108.777C212.209 110.108 211.043 111.176 210.139 112.532C210.478 110.884 210.381 109.263 210.646 107.603C210.85 106.318 210.442 104.374 210.002 103.166C209.648 102.195 209.724 101.65 208.851 100.934C207.078 99.4794 204.963 97.9675 202.677 97.5575C200.088 97.0931 196.764 98.8587 194.801 100.403C190.413 103.853 188.911 110.895 190.855 115.845C192.345 119.639 194.259 123.69 196.599 127.042Z" fill="#F89797"/>
<path d="M198.43 72.7784C199.918 74.1395 201.618 75.8547 203.398 76.758C205.284 76.4132 207.316 75.4171 209.065 74.6577C211.959 73.4015 214.859 71.5167 217.376 69.6302C220.661 67.1685 222.544 61.9508 221.078 57.9272C220.422 56.1266 218.966 53.6342 217.083 52.8977C215.422 52.2476 213.423 52.3883 211.672 52.6286C210.81 52.7469 210.638 53.1346 210.012 53.6285C209.232 54.2428 208.174 55.3524 207.785 56.2769C207.297 57.4358 206.602 58.4341 206.151 59.6044C206.129 58.31 205.783 57.1091 205.701 55.8186C205.638 54.819 205.004 53.4282 204.471 52.5957C204.041 51.9263 204.006 51.5042 203.231 51.1139C201.655 50.3206 199.812 49.5417 198.027 49.619C196.005 49.7065 193.807 51.5918 192.593 53.0816C189.88 56.4108 189.939 61.9511 192.232 65.3399C193.99 67.9368 196.109 70.6555 198.43 72.7784Z" fill="#F89797"/>
<path d="M198.07 23.4431C199.185 24.0879 200.481 24.9246 201.716 25.2438C202.845 24.7698 203.975 23.8696 204.963 23.1557C206.596 21.9747 208.146 20.4009 209.457 18.8784C211.169 16.8918 211.627 13.3783 210.16 11.0694C209.504 10.0362 208.253 8.68109 206.978 8.48006C205.852 8.30262 204.625 8.66464 203.565 9.05499C203.044 9.24706 202.989 9.51253 202.666 9.90669C202.265 10.3969 201.757 11.2343 201.641 11.8645C201.496 12.6544 201.199 13.3727 201.078 14.1646C200.887 13.3602 200.506 12.6585 200.278 11.8646C200.102 11.2496 199.515 10.4691 199.068 10.023C198.708 9.66428 198.629 9.40575 198.091 9.2687C196.999 8.99014 195.743 8.75715 194.64 9.05038C193.39 9.38261 192.278 10.8604 191.725 11.9565C190.489 14.4058 191.287 17.854 193.182 19.6533C194.635 21.0321 196.33 22.4374 198.07 23.4431Z" fill="#F89797"/>
<path d="M22.5021 106.526C24.9254 106.801 27.8075 107.272 30.191 106.892C31.7922 105.214 33.0725 102.797 34.2453 100.811C36.1854 97.5256 37.6843 93.6215 38.8081 89.987C40.2746 85.2443 38.411 78.8005 34.1179 75.9042C32.1968 74.6081 29.0019 73.2027 26.6362 73.8193C24.5482 74.3634 22.6923 75.9204 21.1489 77.3997C20.3895 78.1276 20.4966 78.6292 20.2343 79.5576C19.908 80.7124 19.6608 82.5497 19.9366 83.7309C20.2823 85.2116 20.3105 86.6829 20.701 88.1481C19.7595 86.8974 18.5679 85.9678 17.5717 84.7625C16.8 83.829 15.1916 82.9183 14.0777 82.4827C13.1821 82.1325 12.8483 81.7441 11.8121 81.913C9.70594 82.2562 7.34956 82.8026 5.65746 84.1462C3.74034 85.6684 2.92865 89.0746 2.79876 91.3949C2.5085 96.5801 6.50146 101.96 11.1529 103.648C14.7175 104.941 18.7226 106.097 22.5021 106.526Z" fill="#F89797"/>
<path d="M33.2246 53.2575C34.7224 54.0873 36.4651 55.1677 38.1132 55.5618C39.6026 54.9044 41.083 53.6805 42.3775 52.7078C44.5189 51.0986 46.5406 48.9694 48.2466 46.9142C50.4727 44.2324 50.9963 39.5521 48.9904 36.5194C48.0928 35.1623 46.3985 33.392 44.6984 33.1559C43.1978 32.9475 41.5755 33.4584 40.1768 34.003C39.4886 34.2709 39.4232 34.625 39.0035 35.1567C38.4815 35.8179 37.8272 36.9431 37.6885 37.7834C37.5147 38.8367 37.1375 39.7986 36.9969 40.8539C36.7224 39.7895 36.1995 38.8663 35.8773 37.8168C35.6278 37.0038 34.8295 35.9808 34.2241 35.3988C33.7373 34.9309 33.6253 34.5893 32.9078 34.4202C31.4495 34.0766 29.7743 33.7976 28.3156 34.2141C26.663 34.686 25.2208 36.677 24.5128 38.1471C22.9306 41.4321 24.074 45.9951 26.6373 48.3401C28.6016 50.1371 30.8885 51.9633 33.2246 53.2575Z" fill="#F89797"/>
<path d="M8.36188 16.8796C9.39826 17.4538 10.604 18.2013 11.7444 18.4741C12.775 18.0192 13.7993 17.1724 14.695 16.4993C16.1767 15.3859 17.5756 13.9126 18.756 12.4906C20.2963 10.635 20.6585 7.39653 19.2706 5.29817C18.6496 4.35917 17.4772 3.1342 16.3008 2.97083C15.2626 2.82664 14.1401 3.18019 13.1723 3.55698C12.6961 3.74236 12.6509 3.98738 12.3604 4.35526C11.9992 4.81278 11.5465 5.59135 11.4506 6.17274C11.3303 6.90156 11.0693 7.56709 10.972 8.29726C10.7821 7.56084 10.4203 6.92203 10.1974 6.19582C10.0247 5.63332 9.47232 4.92545 9.05344 4.5228C8.71664 4.19903 8.6391 3.96265 8.14264 3.84568C7.13363 3.60793 5.9745 3.41486 4.96522 3.70307C3.82171 4.0296 2.82388 5.40722 2.33398 6.42436C1.23924 8.69733 2.03037 11.8546 3.80394 13.4772C5.16308 14.7206 6.7455 15.9842 8.36188 16.8796Z" fill="#F89797"/>
<path d="M81.4172 139.687C73.4172 149.687 78.0839 160.187 81.4172 164.187C84.9171 163.52 92.717 161.587 95.917 159.187C99.117 156.787 107.584 154.52 111.417 153.687C114.584 157.687 120.717 165.987 119.917 167.187C118.917 168.687 105.417 201.187 102.917 209.687C100.417 218.187 104.417 248.687 110.417 260.687C115.217 270.287 147.084 281.353 162.417 285.687V307.687L128.417 319.687L129.917 352.687L151.917 357.687L140.917 365.187L149.917 390.687L188.417 388.687V323.687L221.417 311.187L203.417 284.187C208.917 284.353 222.917 282.787 234.917 275.187C246.917 267.587 260.584 224.02 265.917 203.187C259.417 204.187 244.717 206.087 237.917 205.687C229.417 205.187 202.417 194.687 189.417 193.187C176.417 191.687 147.917 199.187 150.917 191.687C153.917 184.187 173.917 161.187 179.917 151.687C185.917 142.187 188.417 126.687 187.417 116.187C186.417 105.687 171.917 90.1867 159.917 87.1867C147.917 84.1867 135.417 87.1867 119.917 92.6867C107.517 97.0867 102.084 114.52 100.917 122.687C97.7504 124.187 89.4172 129.687 81.4172 139.687Z" fill="white"/>
<path d="M84.6538 147.503L90.0183 151.914L114.679 144.216C114.679 144.216 119.578 153.476 123.423 155.961C127.268 158.446 135.692 161.418 135.692 161.418C135.692 161.418 120.333 182.636 117.853 191.485C115.372 200.333 108.358 221.468 112.051 231.24C115.745 241.012 119.057 251.242 126.718 257.865C134.378 264.489 140.658 269.892 148.902 272.973C157.146 276.054 174.532 281.968 190.462 278.387C206.392 274.807 219.942 266.408 223.229 263.855C231.254 257.618 241.182 242.561 241.182 242.561C241.182 242.561 227.586 238.641 226.52 237.197C225.453 235.753 231.531 236.26 231.531 236.26L245.178 231.127L232.686 226.98C232.686 226.98 245.09 220.956 247.361 219.05C249.631 217.145 251.609 213.904 251.609 213.904C251.609 213.904 241.883 215.974 237.895 215.39C233.907 214.807 217.163 209.493 217.163 209.493C217.163 209.493 211.849 208.049 206.69 206.995C201.531 205.941 185.53 203.108 177.391 203.293C158.049 203.733 150.506 207.045 147.059 208.049C146.526 208.204 146.027 208.443 145.573 208.758L139.68 212.859C139.68 212.859 134.471 200.581 135.306 194.436C136.141 188.291 145.594 172.44 145.594 172.44L166.142 146C166.142 146 173.538 136.387 173.328 130.104C173.118 123.82 171.166 108.331 168.807 107.634C166.448 106.937 157.217 98.2481 145.628 99.0918C134.038 99.9356 125.874 100.464 120.837 104.805C113.369 111.24 107.514 130.771 107.514 130.771L100.097 132.664L89.6363 140.035L84.6538 147.507V147.503Z" fill="#F2A0B8"/>
<path d="M174.176 279.534V330.564L172.329 365.983C172.329 365.983 162.952 363.985 159.283 364.786C155.614 365.588 151.081 368.166 151.081 368.166L161.227 370.453L156.802 376.632C156.802 376.632 162.31 377.984 164.933 375.134C167.557 372.283 166.066 382.962 166.066 382.962C166.066 382.962 171.561 380.762 173.232 378.966C174.902 377.169 177.828 371.637 177.828 371.637L178.781 333.384L179.734 279.534H174.176Z" fill="#F3C6DC"/>
<path d="M180.905 279.533L199.219 306.679L172.329 317.412L149.058 326.718C149.058 326.718 140.411 329.048 139.202 333.099C137.993 337.149 135.424 341.725 136.36 343.353C137.296 344.982 144.105 339.928 144.105 339.928C144.105 339.928 142.69 345.003 143.311 346.556C143.933 348.109 145.272 349.776 145.272 349.776L150.64 340.398L154.301 346.741C154.301 346.741 156.122 343.265 156.227 340.734C156.332 338.203 153.591 330.568 153.591 330.568L184.88 318.159L207.018 309.013L186.887 279.042L180.909 279.538L180.905 279.533Z" fill="#F3C6DC"/>
<path d="M109.088 129.671C110.373 124.328 111.871 118.938 114.482 114.073C117.093 109.208 120.93 105.086 126.194 103.059C129.3 101.862 132.624 101.17 135.911 100.683C139.198 100.196 142.388 100.02 145.633 100.137C151.967 100.368 158.418 101.854 163.926 105.073C166.516 106.589 168.803 108.616 169.932 111.466C171.175 114.602 171.527 118.149 171.863 121.478C172.228 125.079 172.514 128.807 172.14 132.417C171.792 135.8 170.361 138.809 168.581 141.664C164.929 147.515 160.429 152.775 155.942 157.992C151.56 163.084 147.131 168.176 143.412 173.784C139.865 179.131 136.931 185.046 135.718 191.388C134.568 197.408 134.841 203.788 137.25 209.48C137.829 210.848 138.522 212.158 139.34 213.396C140.079 214.521 141.897 213.468 141.154 212.339C137.771 207.205 136.73 200.976 137.313 194.923C137.934 188.496 140.516 182.452 143.861 176.991C147.387 171.236 151.761 166.077 156.148 160.973C160.761 155.608 165.433 150.256 169.349 144.35C171.238 141.504 173.034 138.482 173.811 135.12C174.642 131.535 174.445 127.745 174.193 124.101C173.941 120.458 173.568 116.827 172.711 113.322C171.926 110.098 170.352 107.281 167.754 105.174C165.156 103.067 162.196 101.678 159.14 100.565C156.085 99.4529 152.785 98.7267 149.499 98.3363C142.892 97.5556 136.104 98.1726 129.661 99.7887C126.45 100.595 123.293 101.762 120.581 103.692C118.294 105.325 116.363 107.361 114.743 109.653C111.485 114.258 109.567 119.715 108.089 125.113C107.728 126.439 107.393 127.774 107.069 129.109C106.746 130.444 108.778 130.981 109.093 129.667L109.088 129.671Z" fill="#231815"/>
<path d="M140.73 213.191C146.607 208.737 153.436 205.824 160.694 204.577C164.56 203.914 168.493 203.691 172.409 203.658C176.338 203.624 180.276 203.763 184.196 204.04C191.974 204.59 199.706 205.731 207.316 207.452C211.149 208.317 214.948 209.329 218.7 210.479C222.423 211.621 226.075 212.989 229.79 214.164C236.666 216.343 244.284 217.678 251.148 214.718C251.924 214.383 252.667 213.992 253.385 213.552C254.531 212.842 253.477 211.029 252.327 211.738C246.136 215.562 238.496 214.567 231.864 212.607C228.136 211.503 224.497 210.114 220.795 208.938C217.093 207.763 213.264 206.697 209.445 205.794C201.813 203.989 194.044 202.76 186.232 202.105C178.42 201.45 170.432 201.16 162.65 202.184C154.868 203.209 148.084 205.639 141.838 209.837C141.104 210.332 140.382 210.848 139.676 211.386C139.227 211.726 138.988 212.292 139.299 212.821C139.559 213.266 140.281 213.543 140.734 213.199L140.73 213.191Z" fill="#231815"/>
<path d="M251.949 212.28C251.609 213.846 250.429 214.979 249.296 216.032C248.1 217.145 246.836 218.186 245.51 219.139C242.811 221.074 239.873 222.707 236.779 223.92C235.012 224.612 233.198 225.183 231.351 225.628C230.499 225.834 230.294 227.139 231.1 227.546C233.555 228.793 236.162 229.75 238.853 230.346C240.183 230.64 241.535 230.846 242.886 230.976C244.079 231.089 245.334 231.098 246.383 231.736L246.635 229.817C243.231 231.194 239.852 232.668 236.384 233.876C233.102 235.022 229.572 235.9 226.079 235.341C225.613 235.266 225.147 235.392 224.896 235.824C224.669 236.214 224.719 236.781 225.059 237.096C229.735 241.398 236.036 243.787 242.395 243.611C243.743 243.573 243.747 241.474 242.395 241.512C236.59 241.671 230.823 239.547 226.545 235.61L225.525 237.365C229.282 237.969 233.005 237.243 236.569 236.03C240.133 234.817 243.671 233.268 247.197 231.841C248.003 231.513 248.28 230.426 247.449 229.922C246.303 229.23 244.998 229.062 243.688 228.948C242.379 228.835 241.077 228.671 239.784 228.403C237.136 227.853 234.571 226.959 232.162 225.737L231.91 227.656C238.848 225.985 245.329 222.526 250.589 217.699C252.05 216.36 253.536 214.845 253.972 212.842C254.258 211.524 252.239 210.962 251.949 212.284V212.28Z" fill="#231815"/>
<path d="M241.06 241.818C237.467 248.152 232.888 253.874 227.552 258.822C222.217 263.771 216.148 267.906 209.612 271.105C203.085 274.295 196.071 276.503 188.888 277.59C181.53 278.702 173.958 278.555 166.633 277.271C159.22 275.974 152.008 273.552 145.322 270.101C138.635 266.651 132.481 262.193 127.184 256.845C121.341 250.948 116.493 244.034 114.192 235.979C111.909 227.983 111.959 219.453 113.311 211.297C114.663 203.142 117.29 195.015 120.695 187.413C124.099 179.811 128.384 172.579 133.422 165.934C134.651 164.314 135.932 162.736 137.25 161.191C138.123 160.171 136.645 158.677 135.764 159.705C130.219 166.203 125.413 173.322 121.496 180.915C117.584 188.5 114.478 196.564 112.48 204.867C110.482 213.17 109.613 222.018 110.889 230.594C111.51 234.779 112.69 238.863 114.444 242.712C116.262 246.7 118.743 250.352 121.53 253.722C126.525 259.775 132.574 264.947 139.248 269.073C145.825 273.136 153.049 276.196 160.542 278.102C168.031 280.008 175.838 280.784 183.553 280.26C191.268 279.735 198.451 278.035 205.423 275.239C212.395 272.444 218.935 268.628 224.816 263.935C230.663 259.272 235.805 253.727 239.994 247.527C241.014 246.016 241.975 244.463 242.874 242.876C243.541 241.701 241.728 240.639 241.06 241.818Z" fill="#231815"/>
<path d="M135.999 159.172C133.829 159.567 131.47 159.033 129.425 158.282C128.796 158.051 128.149 157.741 127.469 157.371C126.726 156.968 126.009 156.523 125.312 156.049C122.415 154.072 119.712 151.511 117.899 148.493C117.034 147.054 116.375 145.446 116.363 143.889C116.35 142.537 114.251 142.537 114.264 143.889C114.293 147.591 116.728 150.957 119.167 153.539C121.756 156.284 124.934 158.727 128.452 160.146C130.97 161.162 133.862 161.691 136.553 161.199C137.111 161.099 137.426 160.419 137.287 159.907C137.128 159.319 136.557 159.071 135.995 159.172H135.999Z" fill="#231815"/>
<path d="M108.475 129.361C105.302 129.113 102.255 130.28 99.5136 131.778C96.7726 133.277 94.2583 134.914 91.853 136.752C89.4478 138.591 87.2945 140.702 85.6532 143.259C84.1757 145.559 83.1137 148.157 82.5344 150.831C81.8586 153.946 81.8208 157.149 82.4379 160.276C82.526 160.725 83.0129 161.048 83.4495 161.048C83.9532 161.048 84.2806 160.708 84.4611 160.276C85.3804 158.097 86.35 155.805 87.9997 154.063C89.771 152.187 92.2056 151.356 94.6612 150.798C99.2954 149.748 103.976 148.967 108.543 147.624C111.044 146.89 113.538 146.017 115.846 144.787C117.039 144.153 115.981 142.339 114.789 142.973C110.541 145.236 105.663 146.327 100.995 147.343C98.7035 147.843 96.3948 148.254 94.1071 148.77C91.4711 149.366 88.8518 150.315 86.8663 152.221C84.7381 154.265 83.567 157.039 82.4379 159.709H84.4611C83.4747 154.714 84.4527 149.396 87.03 145.018C89.8718 140.19 94.7032 137.021 99.4255 134.234C102.183 132.605 105.197 131.191 108.475 131.447C109.042 131.493 109.525 130.935 109.525 130.397C109.525 129.793 109.042 129.394 108.475 129.348V129.361Z" fill="#231815"/>
<path d="M149.805 225.905C148.709 236.437 155.673 246.36 164.782 251.028C169.768 253.584 175.338 254.818 180.917 255.053C183.704 255.171 186.517 255.053 189.279 254.68C191.835 254.331 194.505 253.441 195.818 251.036C197.17 248.555 196.813 245.399 195.457 243.002C193.913 240.273 191.298 238.397 188.796 236.617C187.805 235.912 186.706 237.44 187.524 238.267C190.307 241.071 194.081 242.716 198.01 243.019C199.903 243.161 201.909 242.981 203.723 242.389C204.789 242.036 205.733 241.44 206.258 240.412C206.783 239.384 206.967 238.284 207.106 237.188C207.429 234.615 207.001 232.046 205.998 229.666L204.562 231.102C207.584 233.31 212.101 233.859 215.346 231.807C218.217 229.994 219.38 226.295 218.217 223.114C217.575 221.355 216.328 219.978 214.548 219.34C214.015 219.151 213.398 219.554 213.255 220.075C213.096 220.658 213.453 221.174 213.99 221.367C214.926 221.703 215.719 222.555 216.11 223.458C216.601 224.587 216.676 225.821 216.424 226.933C216.152 228.126 215.572 229.116 214.527 229.838C213.314 230.682 211.87 231.022 210.401 230.976C208.671 230.921 207.013 230.308 205.62 229.288C205.25 229.015 204.654 229.146 204.348 229.452C203.991 229.809 204 230.287 204.184 230.724C204.919 232.462 205.204 234.384 205.095 236.261C205.041 237.184 204.885 238.12 204.587 239.002C204.331 239.761 203.84 240.152 203.084 240.391C199.987 241.369 196.507 241.075 193.527 239.828C191.839 239.119 190.303 238.082 189.014 236.785L187.742 238.435C191.151 240.857 195.877 244.471 194.303 249.307C193.581 251.523 191.306 252.266 189.216 252.589C186.726 252.975 184.145 253.051 181.631 252.984C171.771 252.715 161.667 248.996 155.92 240.601C152.974 236.294 151.366 231.144 151.908 225.909C151.966 225.347 151.383 224.86 150.858 224.86C150.241 224.86 149.868 225.343 149.809 225.909L149.805 225.905Z" fill="#231815"/>
<path d="M172.833 280.927C172.917 291.996 173.026 303.069 173.068 314.138C173.11 325.207 173.042 336.306 172.551 347.379C172.279 353.587 171.867 359.791 171.279 365.979C171.225 366.545 171.8 367.028 172.329 367.028C172.942 367.028 173.324 366.545 173.378 365.979C174.428 354.985 174.898 343.941 175.078 332.902C175.259 321.816 175.158 310.726 175.074 299.64C175.028 293.402 174.982 287.161 174.931 280.923C174.923 279.571 172.824 279.571 172.833 280.923V280.927Z" fill="#231815"/>
<path d="M178.584 280.461C178.726 292.315 178.718 304.169 178.567 316.023C178.416 327.877 178.118 339.727 177.673 351.577C177.421 358.267 177.123 364.954 176.779 371.641C176.707 372.993 178.806 372.988 178.877 371.641C179.486 359.804 179.952 347.954 180.271 336.104C180.59 324.254 180.758 312.4 180.783 300.546C180.796 293.851 180.762 287.156 180.682 280.465C180.666 279.114 178.567 279.114 178.584 280.465V280.461Z" fill="#231815"/>
<path d="M179.998 280.453C185.031 287.11 189.762 293.994 194.169 301.084C195.429 303.111 196.658 305.151 197.863 307.208C198.547 308.371 200.361 307.317 199.677 306.15C195.458 298.951 190.912 291.941 186.051 285.154C184.662 283.215 183.247 281.296 181.812 279.395C181.472 278.942 180.905 278.706 180.376 279.017C179.931 279.277 179.654 279.999 179.998 280.453Z" fill="#231815"/>
<path d="M197.813 305.47C195.521 307.535 192.818 308.854 189.93 309.869C186.748 310.986 183.545 312.027 180.351 313.101C179.079 313.53 179.625 315.557 180.909 315.125C184.225 314.008 187.562 312.942 190.853 311.762C193.968 310.65 196.826 309.181 199.299 306.952C200.306 306.045 198.816 304.564 197.813 305.466V305.47Z" fill="#231815"/>
<path d="M151.169 326.261C158.578 323.008 166.201 320.262 173.975 318.021C175.272 317.647 174.718 315.62 173.416 315.998C165.466 318.29 157.684 321.123 150.111 324.447C149.591 324.674 149.473 325.434 149.734 325.883C150.048 326.42 150.649 326.488 151.169 326.261Z" fill="#231815"/>
<path d="M186.479 280.062C191.97 287.597 197.578 295.069 202.657 302.893C204.075 305.076 205.448 307.288 206.762 309.538C207.442 310.705 209.259 309.647 208.575 308.48C203.891 300.458 198.438 292.924 192.973 285.427C191.411 283.286 189.854 281.145 188.293 279.005C187.961 278.547 187.382 278.32 186.857 278.627C186.404 278.891 186.143 279.601 186.479 280.062Z" fill="#231815"/>
<path d="M207.173 308.459C200.352 311.267 193.472 313.928 186.538 316.447C184.548 317.169 182.554 317.878 180.552 318.575C180.019 318.76 179.662 319.293 179.817 319.868C179.96 320.389 180.569 320.787 181.11 320.603C188.074 318.172 194.987 315.595 201.842 312.871C203.811 312.09 205.771 311.292 207.731 310.491C208.256 310.277 208.625 309.794 208.466 309.198C208.332 308.702 207.702 308.249 207.173 308.463V308.459Z" fill="#231815"/>
<path d="M173.047 320.985C166.243 323.839 159.439 326.698 152.635 329.552C152.114 329.77 151.736 330.244 151.9 330.845C152.034 331.336 152.664 331.798 153.193 331.579C159.997 328.725 166.801 325.866 173.606 323.012C174.126 322.794 174.504 322.319 174.34 321.719C174.206 321.228 173.576 320.766 173.047 320.985Z" fill="#231815"/>
<path d="M172.422 365C165.878 363.044 158.738 362.822 152.42 365.689C150.746 366.449 149.201 367.435 147.782 368.602C147.429 368.892 147.4 369.5 147.618 369.874C147.862 370.294 148.345 370.449 148.802 370.357C152.672 369.58 156.777 370.105 160.324 371.834L159.947 370.399C158.818 372.946 156.744 375.033 154.125 376.032C153.596 376.233 153.231 376.737 153.39 377.325C153.529 377.832 154.15 378.261 154.683 378.059C157.798 376.871 160.4 374.525 161.76 371.46C161.974 370.974 161.936 370.294 161.382 370.025C157.298 368.035 152.693 367.443 148.24 368.338L149.26 370.092C154.024 366.18 160.459 365.076 166.449 365.844C168.283 366.079 170.088 366.503 171.859 367.032C173.156 367.418 173.711 365.395 172.418 365.009L172.422 365Z" fill="#231815"/>
<path d="M154.023 377.971C158.028 379.465 162.687 378.512 165.877 375.704L164.228 375.49C165.831 377.832 165.76 381.186 163.879 383.365C163.22 384.129 163.837 385.409 164.899 385.119C168.123 384.234 171.074 382.357 173.53 380.12C175.985 377.883 178.08 375.129 178.835 371.918C179.146 370.604 177.123 370.042 176.812 371.36C176.136 374.239 174.193 376.678 172.044 378.634C169.894 380.59 167.216 382.303 164.341 383.092L165.361 384.847C167.829 381.988 168.194 377.581 166.037 374.428C165.638 373.849 164.92 373.748 164.387 374.214C161.73 376.556 157.868 377.173 154.577 375.944C154.044 375.746 153.427 376.166 153.285 376.678C153.125 377.266 153.486 377.769 154.019 377.971H154.023Z" fill="#231815"/>
<path d="M152.168 331.306C154.2 333.183 154.813 336.125 155.065 338.774C155.22 340.403 155.211 342.027 154.897 343.639C154.557 345.364 153.965 347.022 153.171 348.592L155.128 349.121C154.997 345.796 153.709 342.644 151.488 340.172C151.207 339.861 150.569 339.744 150.216 340.008C146.98 342.443 144.974 346.174 144.806 350.233L146.384 349.327C145.083 348.407 144.218 346.837 144.168 345.242C144.109 343.505 144.923 341.909 146.262 340.827C146.703 340.47 146.632 339.714 146.262 339.341C145.826 338.904 145.221 338.984 144.776 339.341C143.005 340.772 141.935 343.118 142.073 345.402C142.212 347.685 143.429 349.805 145.322 351.14C146.01 351.623 146.871 350.968 146.9 350.233C147.03 346.98 148.659 343.786 151.27 341.821L149.998 341.658C151.841 343.706 152.915 346.372 153.025 349.121C153.062 350.099 154.485 350.628 154.981 349.65C156.727 346.195 157.537 342.485 157.147 338.623C156.832 335.475 156.068 332.062 153.65 329.825C152.659 328.91 151.173 330.391 152.164 331.311L152.168 331.306Z" fill="#231815"/>
<path d="M145.549 339.005C143.563 338.581 141.746 339.424 140.243 340.671C138.74 341.918 137.435 343.37 136.062 344.73C135.101 345.683 136.587 347.165 137.548 346.216C138.782 344.995 139.987 343.723 141.275 342.552C142.262 341.658 143.593 340.73 144.995 341.028C145.549 341.145 146.128 340.864 146.287 340.293C146.43 339.773 146.111 339.122 145.553 339.001L145.549 339.005Z" fill="#231815"/>
<path d="M137.977 345.2C137.439 343.441 136.822 341.561 137.087 339.697C137.326 337.997 138.296 336.469 139.186 335.038C140.075 333.607 141.074 332.205 142.271 330.987C143.379 329.854 144.621 329.002 146.044 328.309C147.623 327.541 149.285 326.974 150.926 326.366C151.459 326.168 151.82 325.656 151.661 325.073C151.522 324.561 150.905 324.141 150.368 324.338C147.098 325.547 143.74 326.66 141.167 329.124C139.811 330.421 138.673 331.944 137.662 333.518C136.65 335.093 135.563 336.83 135.143 338.711C134.61 341.095 135.257 343.475 135.953 345.75C136.348 347.039 138.375 346.489 137.977 345.192V345.2Z" fill="#231815"/>
<path d="M90.7575 150.063C89.4647 148.594 88.1172 147.213 86.2619 146.491C85.7288 146.281 85.116 146.722 84.969 147.226C84.5325 148.724 84.2009 150.189 84.2387 151.759C84.2722 153.232 83.8399 154.626 83.4957 156.049C83.1809 157.363 85.1286 157.904 85.5189 156.607C86.2955 154.026 87.1728 151.478 88.1424 148.959L86.0814 148.682C86.2199 149.937 86.6649 151.335 87.9158 151.893L88.1676 149.975C87.2609 150.315 86.4592 150.806 85.7834 151.503C84.8431 152.473 86.3249 153.958 87.2693 152.989C87.6849 152.561 88.1634 152.212 88.7259 152.002C89.1205 151.855 89.4269 151.57 89.4773 151.129C89.5234 150.752 89.3555 150.256 88.9777 150.084C88.4405 149.845 88.2474 149.261 88.1844 148.686C88.0543 147.503 86.5599 147.272 86.1234 148.409C85.1537 150.924 84.2764 153.476 83.4999 156.057L85.5231 156.616C85.8799 155.138 86.3626 153.635 86.3501 152.103C86.3417 151.398 86.3123 150.701 86.4382 150.004C86.5725 149.257 86.7866 148.523 87.0007 147.792L85.7078 148.527C87.177 149.098 88.2642 150.407 89.28 151.557C89.6536 151.981 90.3797 151.939 90.7659 151.557C91.1899 151.134 91.1395 150.5 90.7659 150.072L90.7575 150.063Z" fill="#231815"/>
<path d="M132.579 117.15C129.728 119.979 126.929 122.858 124.179 125.788C123.747 126.25 123.764 127.123 124.393 127.438C127.701 129.079 131.101 130.54 134.568 131.808C135.101 132.001 135.718 131.589 135.861 131.073C136.021 130.49 135.664 129.978 135.127 129.78C131.827 128.571 128.599 127.186 125.455 125.625L125.669 127.274C128.419 124.344 131.219 121.465 134.069 118.636C135.03 117.683 133.544 116.197 132.583 117.15H132.579Z" fill="#231815"/>
</svg>
