<svg width="80" height="81" viewBox="0 0 80 81" fill="none" xmlns="http://www.w3.org/2000/svg">
<rect x="1" y="1.81665" width="77.9801" height="77.9801" rx="3" fill="#D9D9D9" stroke="#F89797" stroke-width="2"/>
<path d="M11.8965 65L44.8965 25C45.0632 23.8333 45.4965 21.5 45.8965 21.5C46.2965 21.5 46.7298 21.8333 46.8965 22L55.8965 11.5L56.8965 12L56.3965 14L57.3965 15L39.8965 38L58.8965 21.5H59.3965L64.3965 15.5H65.8965L64.8965 18L65.3965 19L57.8965 26.5L53.3965 34L66.3965 19C66.7298 18.8333 67.4965 18.6 67.8965 19C68.2965 19.4 63.7298 25.1667 61.3965 28L62.8965 27L63.8965 28.5L53.8965 36L51.8965 38.5L64.3965 28.5L65.8965 28L69.8965 24H71.3965C71.7965 24 70.8965 25.6667 70.3965 26.5L43.8965 52.5L45.8965 53.5C46.7298 53.3333 48.4965 53.2 48.8965 54C49.2965 54.8 49.7298 56 49.8965 56.5C49.0632 56.8333 47.2965 57.3 46.8965 56.5L45.8965 54.5L42.8965 53.5L37.8965 58L29.3965 71.5L27.3965 70.5L31.3965 65L21.8965 73.5L20.3965 72L20.8965 71.5L20.3965 70.5L20.8965 69.5L20.3965 69L28.3965 60L22.8965 64L21.6258 62.7293C18.3963 66.4058 15.3669 69.7648 14.8965 70C14.0965 70.4 13.5632 69.8333 13.3965 69.5C13.0632 69.3333 12.5965 68.8 13.3965 68C14.1965 67.2 16.7298 63.3333 17.8965 61.5L13.3965 66.5L11.8965 65Z" fill="#696969"/>
</svg>
