<svg width="80" height="80" viewBox="0 0 80 80" fill="none" xmlns="http://www.w3.org/2000/svg">
<rect x="1" y="1" width="77.9801" height="77.9801" rx="3" fill="#D9D9D9" stroke="#F89797" stroke-width="2"/>
<path fill-rule="evenodd" clip-rule="evenodd" d="M55.7725 59.1901C58.5725 59.1901 66.2725 58.5234 69.7725 58.1901L69.2725 56.6901L71.7725 54.6901L69.2725 55.1901L69.7725 53.6901C67.7725 54.1901 62.9725 55.1901 59.7725 55.1901H51.2725C55.7725 53.69 60.2725 51.69 65.2725 47.69C66.9545 46.3444 68.7724 44.1899 69.7725 41.19C70.2725 39.19 69.9725 35.79 68.7725 34.19C67.5724 32.59 64.7724 30.8567 63.7725 30.6901C63.6657 30.5833 63.5247 30.3396 63.333 30.0084C62.9264 29.3059 62.2919 28.2094 61.2725 27.19C59.9595 25.877 58.3095 25.3415 55.9576 24.5782C55.581 24.456 55.1865 24.328 54.7725 24.19C53.4391 23.5233 49.8725 22.0901 48.2725 21.6901C46.6725 21.2901 40.7725 20.69 35.7725 21.1901C33.2725 21.6901 27.8725 22.8901 26.2725 23.6901C24.6725 24.4901 21.6058 28.6901 20.2725 30.6901C19.6058 31.1901 18.2725 32.39 18.2725 33.1901C18.2725 33.9901 17.2725 36.5234 16.7725 37.69C15.2725 38.8567 12.0725 41.39 11.2725 42.19C10.2725 43.19 8.27254 47.69 9.27254 52.19C10.092 55.8777 14.2691 57.5507 16.8512 58.5849C17.4201 58.8127 17.9115 59.0095 18.2725 59.1901C19.8725 59.9901 29.2725 58.8567 33.7725 58.1901C34.7725 58.3567 37.0725 58.6901 38.2725 58.6901C39.4725 58.6901 42.4392 58.3567 43.7725 58.1901C46.6059 58.5234 52.9725 59.1901 55.7725 59.1901ZM36.4999 33.0002C38.5 31.5 45.1666 32.3334 47.4999 33.0001C46.5 34.5 43.5 36 41.9999 36.5001C40.7999 36.9002 36.8332 37.1667 34.9999 37.0001C34.5 36 35.0688 34.0736 36.4999 33.0002ZM64.5 35.5C64.3333 36.5 63.9 38.1 63.5 38.5C63.396 38.604 63.222 38.7892 63.0099 39.0151C62.4063 39.6578 61.4933 40.63 61 41C60.8333 41.6667 60.5 43 60.5 43.5C60.5 43.75 60.375 44.25 60.25 44.75C60.125 45.25 60 45.75 60 46L64.5 42C65 41.1667 66 38.9 66 38.5C66 37 65.5 36 64.5 35.5ZM34 50.5H45L39.5 52.5L33 54L29.5 52.5L26.5 49.5C28.3333 49.8696 32.4 50.5 34 50.5ZM17.5 41C15.8333 42.3333 13 45.9604 13 48C13 50.5 14 52.5 16 53.5C18.6077 54.8038 20.5 55.5 22 55.5C24.0712 55.5 25.4515 55.2961 26.5926 55.1275C26.9104 55.0805 27.2096 55.0363 27.5 55C26.5 54.3333 24.3 52.7 23.5 51.5C22.7 50.3 22.5 48.3333 22.5 47.5C21.8333 47.1667 20.5 46 20 45.5C19.6338 45.1338 19.0771 44.0185 18.5439 42.9501C18.1561 42.1731 17.7807 41.421 17.5 41Z" fill="#696969"/>
</svg>
