<svg width="81" height="80" viewBox="0 0 81 80" fill="none" xmlns="http://www.w3.org/2000/svg">
<rect x="1.89648" y="1" width="77.9801" height="77.9801" rx="3" fill="#D9D9D9" stroke="#F89797" stroke-width="2"/>
<path d="M33.3966 19C33.7966 19.4 34.8966 21.5 35.3966 22.5C34.0633 23.5 31.0966 25.5 29.8966 25.5C28.6966 25.5 24.3966 29.5 22.3966 31.5C21.3967 35.5 21.8967 39 21.3966 40.5C20.6177 42.8361 20.0634 47.5 19.8967 50.5C19.8967 51.5 20.4026 54.4821 19.8966 56C19.3966 57.5 16.8966 60.5 15.8966 62C15.3966 62.5 14.3967 64 15.3966 64.5C16.3965 65 50.2961 67.0167 56.3966 66C62.3967 65 62.3967 65.5 63.3967 65.5C64.3967 65.5 67.3967 64.5 66.8967 64L66.8964 63.9997C66.3953 63.4986 62.8965 59.9998 62.3966 59C61.8966 58 60.3966 42.5 59.8966 39C59.3966 35.5 59.5207 31.843 56.3966 29.5C54.3966 28 50.2299 25.8333 45.8966 24L42.3966 22.5C42.5633 22.1667 42.8966 21.3 42.8966 20.5C42.8966 19.5 43.8966 19 44.3966 18C44.8966 17 46.3966 17 46.8966 16.5C47.2966 16.1 47.3966 15.6667 47.3966 15.5C46.8966 15.1667 45.6966 14.5 44.8966 14.5C43.8966 14.5 40.3966 15.5 39.8966 15.5C39.3966 15.5 36.3966 14.5 35.8966 14C35.3966 13.5 31.3966 15 30.8966 15C30.4966 15 30.3966 16.6667 30.3966 17.5C31.23 17.8333 32.9966 18.6 33.3966 19Z" fill="#696969"/>
</svg>
