<svg width="184" height="184" viewBox="0 0 184 184" fill="none" xmlns="http://www.w3.org/2000/svg">
<circle cx="92" cy="92" r="92" fill="#FFC5C5"/>
<circle cx="92.0001" cy="91.9999" r="77.0233" fill="#F89797"/>
<path d="M126.019 58.0052H112.115L104.088 49.2094H77.7721L69.7457 58.0052H55.8419C53.5154 58.0052 51.2842 58.9319 49.6391 60.5815C47.994 62.231 47.0698 64.4683 47.0698 66.8011V119.576C47.0698 121.909 47.994 124.146 49.6391 125.796C51.2842 127.445 53.5154 128.372 55.8419 128.372H126.019C128.345 128.372 130.576 127.445 132.221 125.796C133.867 124.146 134.791 121.909 134.791 119.576V66.8011C134.791 64.4683 133.867 62.231 132.221 60.5815C130.576 58.9319 128.345 58.0052 126.019 58.0052ZM126.019 119.576H55.8419V66.8011H73.6054L81.6319 58.0052H100.229L108.255 66.8011H126.019V119.576ZM90.9303 71.199C85.114 71.199 79.536 73.5158 75.4233 77.6396C71.3106 81.7635 69.0001 87.3567 69.0001 93.1887C69.0001 99.0207 71.3106 104.614 75.4233 108.738C79.536 112.862 85.114 115.178 90.9303 115.178C96.7465 115.178 102.325 112.862 106.437 108.738C110.55 104.614 112.861 99.0207 112.861 93.1887C112.861 87.3567 110.55 81.7635 106.437 77.6396C102.325 73.5158 96.7465 71.199 90.9303 71.199ZM90.9303 106.382C87.4405 106.382 84.0937 104.992 81.6261 102.518C79.1584 100.044 77.7721 96.6879 77.7721 93.1887C77.7721 89.6895 79.1584 86.3336 81.6261 83.8592C84.0937 81.3849 87.4405 79.9949 90.9303 79.9949C94.42 79.9949 97.7669 81.3849 100.235 83.8592C102.702 86.3336 104.088 89.6895 104.088 93.1887C104.088 96.6879 102.702 100.044 100.235 102.518C97.7669 104.992 94.42 106.382 90.9303 106.382Z" fill="white"/>
</svg>
