<svg width="291" height="217" viewBox="0 0 291 217" fill="none" xmlns="http://www.w3.org/2000/svg">
<path d="M24.237 94.4298C31.227 94.4298 36.6921 99.7921 37.2746 106.628C37.326 107.279 36.8121 107.827 36.161 107.81L24.237 107.827C22.4604 107.827 20.7566 107.121 19.5004 105.865C18.2441 104.609 17.5384 102.905 17.5384 101.128C17.5384 99.3518 18.2441 97.648 19.5004 96.3918C20.7566 95.1355 22.4604 94.4298 24.237 94.4298ZM14.5574 84.8529C14.7845 84.8529 15.0024 84.7626 15.1631 84.602C15.3237 84.4413 15.414 84.2234 15.414 83.9963C15.414 83.7691 15.3237 83.5512 15.1631 83.3905C15.0024 83.2299 14.7845 83.1396 14.5574 83.1396C14.3302 83.1396 14.1123 83.2299 13.9516 83.3905C13.791 83.5512 13.7007 83.7691 13.7007 83.9963C13.7007 84.2234 13.791 84.4413 13.9516 84.602C14.1123 84.7626 14.3302 84.8529 14.5574 84.8529Z" fill="#F89797"/>
<path d="M22.9949 88.2793H22.7123C22.4604 88.2793 22.2086 88.2879 21.955 88.305C22.2991 87.1017 22.359 85.835 22.1301 84.6047C21.9012 83.3743 21.3898 82.2139 20.6361 81.2148C19.8823 80.2158 18.9069 79.4054 17.7867 78.8475C16.6664 78.2897 15.4319 77.9995 14.1804 78H8.88659C6.98277 78 5.15692 78.7563 3.81071 80.1025C2.4645 81.4487 1.70821 83.2746 1.70821 85.1784V87.1486C1.70821 88.9749 2.86634 90.3814 4.35342 90.9348L3.67327 91.6475C1.88218 93.5145 0.679459 95.8668 0.214677 98.4119C-0.250105 100.957 0.0435655 103.583 1.05916 105.962C2.07476 108.342 3.76748 110.37 5.92678 111.795C8.08609 113.22 10.6167 113.979 13.2039 113.978H21.4102V115.691H15.2084C13.9063 115.691 12.8441 116.753 12.8441 118.055V118.689C12.8441 119.391 13.4266 119.974 14.129 119.974C14.8315 119.974 15.414 119.408 15.414 118.672V118.261H29.5994C30.7301 118.261 31.7923 117.627 32.272 116.616C32.4734 116.203 32.5725 115.748 32.5612 115.289C32.5499 114.83 32.4284 114.38 32.2069 113.978H39.1249C42.2138 113.978 44.7494 111.35 44.4753 108.158C43.5878 97.0972 34.1651 88.4215 22.9949 88.2793ZM23.98 115.691V113.978H29.0015L29.9249 115.16C30.0277 115.297 29.9934 115.417 29.9592 115.502C29.9249 115.588 29.8393 115.691 29.6679 115.691H23.98ZM15.8765 94.6353C16.716 93.7102 17.9598 92.905 19.3321 92.3756C20.4088 91.949 21.5542 91.722 22.7123 91.7057H22.9521C32.3919 91.8257 40.3242 99.1754 41.0608 108.444C41.1636 109.592 40.2556 110.551 39.1249 110.551H13.2039C11.2881 110.553 9.41402 109.992 7.81481 108.937C6.21561 107.882 4.96189 106.38 4.20964 104.618C3.4574 102.856 3.23984 100.912 3.58403 99.0273C3.92822 97.1427 4.81897 95.4009 6.14544 94.0186L13.2724 86.5661H11.9875V81.4264H14.1804C15.6332 81.4264 16.9336 82.0946 17.7885 83.1397C18.4699 83.9704 18.8417 85.0119 18.8404 86.0864C18.8404 87.3199 18.3436 88.5192 17.4698 89.3929L8.93799 97.9247C8.44116 98.4216 8.44116 99.2439 8.93799 99.7407C9.43482 100.238 10.2572 100.238 10.754 99.7407L15.8765 94.6353ZM10.2743 81.4264V86.5661H8.50283C8.00943 86.5661 7.51431 86.7203 7.10485 86.9944L6.07692 87.6626C5.98423 87.7202 5.87792 87.7521 5.76883 87.7552C5.65975 87.7583 5.55179 87.7324 5.45599 87.6802C5.36018 87.6279 5.27996 87.5512 5.22351 87.4578C5.16705 87.3644 5.13639 87.2577 5.13465 87.1486V85.1784C5.13468 84.8558 5.17614 84.5345 5.258 84.2224L5.26999 84.1727L5.2974 84.0836C5.532 83.3146 6.00742 82.6413 6.65361 82.1629C7.29981 81.6845 8.08258 81.4263 8.88659 81.4264H10.2743ZM21.4102 126.844V119.974H23.98V127.615C23.98 128.608 23.1577 129.414 22.164 129.414H20.1253C19.7845 129.414 19.4577 129.278 19.2167 129.037C18.9758 128.796 18.8404 128.47 18.8404 128.129C18.8404 127.788 18.9758 127.461 19.2167 127.22C19.4577 126.979 19.7845 126.844 20.1253 126.844H21.4102Z" fill="#F89797"/>
<path d="M231.065 123.353C231.26 122.654 231.491 121.972 231.656 121.261C231.692 121.119 231.703 120.977 231.739 120.835C233.427 114.002 233.42 106.858 231.72 100.028C230.019 93.1983 226.676 86.8901 221.983 81.6549C217.656 75.8196 212.017 71.0896 205.526 67.8486C199.034 64.6076 191.872 62.9469 184.621 63.0013H184.313C183.722 63.0013 183.061 63.0428 182.434 63.0606H181.719C169.231 63.7515 156.818 65.4437 144.599 68.121L118.145 63.8842H117.938C105.338 61.7012 92.3714 63.786 81.0834 69.8097C74.7241 73.6531 69.263 78.8223 65.0701 84.9673L64.8278 85.2932L64.6801 85.5006C59.1331 93.7523 56.1167 103.452 56.0033 113.403C55.8899 123.354 58.6844 133.12 64.0419 141.497C63.9297 141.698 63.8647 141.924 63.7583 142.131C63.2462 143.158 62.8097 144.222 62.4524 145.313C62.2633 145.905 62.1215 146.534 61.9856 147.15C61.8792 147.654 61.7729 148.151 61.702 148.655C61.6291 149.283 61.5857 149.913 61.572 150.545C61.572 151.055 61.5129 151.553 61.5365 152.056C61.5779 152.72 61.6547 153.378 61.7611 154.035C61.832 154.503 61.8674 154.972 61.9738 155.434C62.1511 156.163 62.3874 156.88 62.6592 157.579C62.7951 157.952 62.8838 158.337 63.0492 158.705C63.5338 159.789 64.1247 160.814 64.8219 161.774C67.4954 165.613 71.4402 168.376 75.9544 169.572C75.786 172.099 76.2054 174.63 77.1796 176.967C78.1538 179.303 79.6561 181.38 81.568 183.035C84.9541 186.01 89.1069 187.969 93.5514 188.688C94.4673 191.668 96.0745 194.388 98.2372 196.628C101.188 199.836 105.175 201.893 109.494 202.435C110.522 205.949 112.472 209.125 115.143 211.62C118.434 214.867 122.842 216.716 127.457 216.775C130.851 216.759 134.185 215.874 137.142 214.203C141.538 216.727 146.691 217.581 151.666 216.609C154.278 216.13 156.752 215.08 158.914 213.535C161.076 211.99 162.872 209.987 164.176 207.667C164.3 207.472 164.371 207.3 164.483 207.104C169.505 208.135 174.735 207.229 179.125 204.568C182.986 202.382 185.925 198.866 187.398 194.673C192.68 194.744 197.798 192.836 201.739 189.31C203.899 187.417 205.576 185.034 206.63 182.359C207.685 179.684 208.086 176.795 207.802 173.933C207.802 173.767 207.76 173.637 207.748 173.477C210.832 172.55 213.606 170.799 215.773 168.411C218.574 165.449 220.377 161.68 220.928 157.636C221.479 153.592 220.751 149.477 218.845 145.87C224.158 139.715 228.177 132.548 230.663 124.799C230.805 124.342 230.923 123.845 231.065 123.353ZM220.949 113.279C220.654 116.259 220.002 119.191 219.005 122.014L218.816 122.606C216.852 127.878 214.02 132.781 210.437 137.112C191.9 120.888 164.938 97.2094 162.722 95.0881C160.162 92.6314 156.763 91.2492 153.22 91.2246C152.122 91.2151 151.028 91.373 149.976 91.6927C146.23 92.8778 137.024 95.8406 128.988 98.833C125.915 99.9766 122.405 97.0554 121.335 94.5666C120.626 93.0734 120.508 91.3668 120.993 89.7906C121.956 88.0426 123.575 86.7449 125.489 86.1879C143.667 79.7802 162.658 75.9896 181.897 74.9294H182.612C183.267 74.9294 183.917 74.882 184.52 74.8701C188.934 74.7974 193.315 75.6302 197.396 77.3174C203.447 80.0835 208.76 84.246 212.901 89.4647C216.597 93.6595 219.182 98.7191 220.417 104.178L220.47 104.45C220.755 105.909 220.934 107.386 221.008 108.871C221.026 109.351 221.055 109.955 221.055 110.489C221.055 111.348 221.055 112.201 220.955 113.048L220.949 113.279ZM73.4904 152.738C73.449 152.483 73.449 152.204 73.449 151.938C73.3839 151.367 73.3839 150.79 73.449 150.219C73.5142 149.883 73.5991 149.55 73.7031 149.224C73.8213 148.696 73.9986 148.181 74.2113 147.689C74.4063 147.334 74.6308 146.99 74.879 146.67C75.2307 146.092 75.658 145.564 76.1494 145.1L76.1849 145.07L87.2997 135.619C88.0381 135.048 88.8815 134.63 89.7815 134.387C90.6814 134.144 91.6204 134.081 92.5446 134.202C93.4688 134.323 94.3601 134.625 95.1676 135.092C95.975 135.559 96.6828 136.181 97.2504 136.922C97.6637 137.529 97.932 138.223 98.0345 138.951C98.137 139.678 98.0709 140.42 97.8413 141.118L80.4098 158.148C79.2065 158.169 78.0181 157.878 76.9607 157.301C75.9033 156.725 75.013 155.883 74.3767 154.859C73.9376 154.221 73.6358 153.499 73.4904 152.738ZM88.3574 166.929L107.485 148.24L107.396 148.151C108.472 147.614 109.688 147.423 110.877 147.606C112.395 148.021 113.766 148.874 114.812 150.059C115.852 150.948 116.549 152.169 116.785 153.52C116.873 154.889 116.574 156.254 115.923 157.46C115.863 157.625 115.811 157.793 115.769 157.964L96.4409 176.849C95.0847 176.908 93.7317 176.674 92.4736 176.163C91.2155 175.652 90.0817 174.875 89.1492 173.886C88.3818 172.917 87.9009 171.751 87.7609 170.521C87.6209 169.291 87.8276 168.047 88.3574 166.929ZM104.814 185.21L124.786 165.72C126.057 165.975 127.221 166.627 128.107 167.581C129.332 168.657 130.185 170.095 130.542 171.687C130.635 172.373 130.605 173.069 130.453 173.744L113.181 190.602C112.029 190.816 110.841 190.733 109.73 190.36C108.618 189.987 107.62 189.336 106.829 188.469C105.906 187.56 105.215 186.442 104.814 185.21ZM123.35 203.057C122.282 202.111 121.438 200.937 120.88 199.62L137.195 183.699C138.359 184.084 139.423 184.718 140.315 185.553C141.148 186.221 141.777 187.11 142.129 188.119C142.33 188.866 142.33 189.653 142.129 190.4C141.391 192.791 140.161 194.999 138.519 196.883L134.052 202.097H134.087C133.939 202.192 133.774 202.234 133.638 202.34C131.972 203.865 129.828 204.76 127.575 204.87C125.985 204.844 124.468 204.193 123.35 203.057ZM149.787 204.876C148.913 205.013 148.032 205.054 147.152 204.995L147.589 204.485L147.731 204.313L147.737 204.319C149.528 202.1 151.044 199.67 152.251 197.084L154.863 199.857C154.649 200.416 154.392 200.957 154.095 201.475C153.674 202.327 153.069 203.074 152.323 203.663C151.578 204.251 150.712 204.666 149.787 204.876ZM187.605 182.804L177.093 171.125C176.19 170.065 174.944 169.36 173.573 169.131C172.203 168.903 170.796 169.166 169.6 169.876C168.404 170.585 167.496 171.694 167.036 173.009C166.575 174.323 166.592 175.759 167.083 177.062C167.356 177.801 167.774 178.478 168.312 179.053L176.797 188.534C176.738 189.138 176.614 189.737 176.425 190.311C175.933 191.99 174.81 193.411 173.293 194.276C171.446 195.491 169.204 195.949 167.03 195.556L159.939 188.006C159.173 187.199 158.195 186.626 157.117 186.355C156.04 186.083 154.908 186.123 153.853 186.472C153.761 185.896 153.637 185.326 153.48 184.765C152.505 181.669 150.69 178.905 148.239 176.783C146.522 175.212 144.555 173.94 142.419 173.021C142.46 171.918 142.391 170.815 142.212 169.726C141.45 165.691 139.428 162.003 136.439 159.196C134.266 156.99 131.579 155.361 128.621 154.456C128.651 153.662 128.621 152.874 128.533 152.086C127.98 148.095 126.078 144.415 123.144 141.663C120.472 138.858 117.039 136.899 113.27 136.028C111.987 135.779 110.68 135.69 109.376 135.761C108.912 133.56 107.974 131.487 106.628 129.687C105.111 127.712 103.22 126.056 101.064 124.814C98.9082 123.572 96.5291 122.769 94.063 122.45C91.597 122.131 89.0925 122.303 86.6929 122.957C84.2934 123.61 82.0458 124.731 80.0789 126.256L79.8721 126.422L72.5745 132.585C69.1527 126.336 67.5154 119.262 67.8428 112.141C68.1701 105.02 70.4494 98.1267 74.4299 92.2201L74.554 92.0423C77.7894 87.2048 82.0332 83.129 86.9924 80.0965C96.0389 75.3719 106.398 73.806 116.431 75.6464L119.173 76.0849C115.122 77.9153 111.886 81.179 110.085 85.2517C109.214 87.4862 108.8 89.8735 108.867 92.2717C108.934 94.6699 109.48 97.0301 110.475 99.2122C112.245 103.505 115.546 106.984 119.734 108.969C123.923 110.954 128.698 111.303 133.13 109.949C140.93 107.052 149.876 104.142 153.22 103.082C153.486 103.073 153.751 103.124 153.994 103.232C154.238 103.34 154.454 103.501 154.627 103.704C157.516 106.43 192.397 137.047 206.968 149.781L208.15 150.794C209.068 152.284 209.46 154.041 209.264 155.781C209.068 157.522 208.295 159.146 207.069 160.393C206.227 161.303 205.121 161.925 203.908 162.171L193.667 151.76C192.553 150.696 191.07 150.108 189.531 150.12C187.992 150.132 186.518 150.743 185.421 151.824C184.323 152.905 183.686 154.371 183.646 155.914C183.606 157.456 184.165 158.954 185.206 160.091L194.991 170.034C195.032 170.212 195.08 170.39 195.133 170.562L195.204 170.745C195.647 172.01 195.916 173.33 196.001 174.668C196.165 175.684 196.078 176.725 195.748 177.699C195.417 178.673 194.853 179.551 194.105 180.256C192.338 181.915 190.004 182.827 187.587 182.804H187.605Z" fill="#F89797"/>
<path d="M128.566 10.5636C128.714 10.35 128.861 10.1529 129.026 9.95573V9.9393C130.241 8.42788 131.769 7.1793 133.494 6.27573C132.903 5.4543 131.934 4.92859 130.849 4.92859C129.042 4.92859 127.564 6.40716 127.564 8.2143C127.564 9.1343 127.941 9.97216 128.566 10.5636ZM146.506 6.29216C148.234 7.18844 149.756 8.43635 150.974 9.95573L151.124 10.1479C151.239 10.2909 151.347 10.4322 151.451 10.58C152.059 9.98859 152.453 9.15073 152.453 8.23073C152.453 6.42359 150.974 4.94502 149.167 4.94502C148.083 4.94502 147.114 5.47073 146.506 6.29216ZM133.494 15.6072C132.837 15.6072 132.305 15.9669 131.966 16.4187C131.628 16.8705 131.441 17.457 131.441 18.0714V19.7143C131.441 20.3287 131.628 20.9152 131.966 21.367C132.305 21.8188 132.837 22.1786 133.494 22.1786C134.151 22.1786 134.684 21.8188 135.022 21.367C135.361 20.9152 135.548 20.3287 135.548 19.7143V18.0714C135.548 17.457 135.361 16.8705 135.022 16.4187C134.684 15.9669 134.151 15.6072 133.494 15.6072ZM146.506 15.6072C145.849 15.6072 145.316 15.9669 144.978 16.4187C144.639 16.8705 144.452 17.457 144.452 18.0714V19.7143C144.452 20.3287 144.639 20.9152 144.978 21.367C145.316 21.8188 145.849 22.1786 146.506 22.1786C147.163 22.1786 147.695 21.8188 148.034 21.367C148.372 20.9152 148.559 20.3287 148.559 19.7143V18.0714C148.559 17.457 148.372 16.8705 148.034 16.4187C147.695 15.9669 147.163 15.6072 146.506 15.6072Z" fill="#F89797"/>
<path d="M162.031 17.5786L160.799 16.9707C160.699 16.9138 160.587 16.8815 160.472 16.8766C160.357 16.8717 160.242 16.8943 160.138 16.9425C160.033 16.9907 159.942 17.0631 159.871 17.1537C159.8 17.2444 159.752 17.3506 159.731 17.4636C159.665 17.7921 159.829 18.1371 160.125 18.285L161.768 19.1064C162.524 19.4843 163 20.2564 163 21.0943V31.6907C163 36.2743 159.961 40.2993 155.558 41.5643L140.969 45.7371C140.329 45.9179 139.655 45.9179 139.031 45.7371L124.442 41.5643C122.298 40.9492 120.413 39.6532 119.07 37.872C117.727 36.0908 117.001 33.9212 117 31.6907V21.0943C117 20.24 117.476 19.4679 118.232 19.09L119.875 18.2686C120.187 18.1207 120.351 17.7921 120.269 17.4471C120.154 16.9543 119.661 16.7407 119.201 16.9707L117.969 17.5786C117.868 17.6306 117.755 17.6558 117.641 17.6516C117.527 17.6474 117.416 17.614 117.319 17.5547C117.221 17.4953 117.141 17.4119 117.085 17.3125C117.029 17.2132 117 17.1011 117 16.9871V10.5307C117.002 9.0456 117.593 7.62194 118.643 6.5718C119.693 5.52167 121.117 4.93074 122.602 4.92857H123.571L122.602 2.02071C122.274 1.035 123.013 0 124.064 0H135.071C136.139 0 137.174 0.345 138.012 1.00214C139.195 1.87286 139.918 3.23643 139.984 4.69857H140C140.082 3.23643 140.789 1.87286 141.971 0.985714C142.826 0.345 143.861 0 144.929 0H155.936C156.987 0 157.726 1.035 157.398 2.02071L156.429 4.92857H157.398C158.883 4.93074 160.307 5.52167 161.357 6.5718C162.407 7.62194 162.998 9.0456 163 10.5307V16.9871C163 17.48 162.474 17.8086 162.031 17.5786ZM150.411 32.5992C152.591 32.0898 154.535 30.8574 155.926 29.1025C157.317 27.3476 158.073 25.1736 158.071 22.9343C158.071 20.8479 157.414 18.7943 156.182 17.1021L152.404 11.9107C153.471 10.9743 154.129 9.57786 154.079 8.03357C153.997 5.405 151.796 3.28571 149.167 3.28571C147.393 3.28571 145.849 4.20571 144.978 5.60214C143.645 6.89797 141.859 7.6229 140 7.6229C138.141 7.6229 136.355 6.89797 135.022 5.60214C134.578 4.8923 133.96 4.30722 133.227 3.90198C132.494 3.49673 131.67 3.28466 130.833 3.28571C128.204 3.28571 126.019 5.405 125.921 8.03357C125.871 9.59429 126.529 10.9743 127.596 11.9107L123.818 17.1021C122.586 18.797 121.925 20.8392 121.929 22.9343C121.927 25.1785 122.686 27.357 124.083 29.1138C125.479 30.8705 127.43 32.1016 129.617 32.6058C129.415 31.4599 129.316 30.2981 129.321 29.1344H129.346C129.276 28.4347 129.353 27.7279 129.572 27.0596C129.791 26.3913 130.148 25.7764 130.619 25.2542C131.09 24.7321 131.665 24.3144 132.308 24.0281C132.95 23.7417 133.645 23.5929 134.349 23.5914C134.451 23.5935 134.552 23.5733 134.646 23.5322C134.74 23.491 134.823 23.43 134.891 23.3532L134.894 23.3499L138.163 19.5714C138.39 19.3086 138.671 19.0978 138.986 18.9533C139.302 18.8088 139.645 18.734 139.992 18.734C140.339 18.734 140.682 18.8088 140.997 18.9533C141.313 19.0978 141.594 19.3086 141.82 19.5714L145.083 23.3434C145.153 23.4203 145.238 23.482 145.333 23.5247C145.428 23.5673 145.531 23.5901 145.635 23.5914C146.339 23.5914 147.036 23.739 147.68 24.0246C148.324 24.3102 148.901 24.7276 149.374 25.2498C149.847 25.772 150.205 26.3874 150.425 27.0565C150.646 27.7256 150.724 28.4334 150.654 29.1344H150.679C150.679 30.3863 150.587 31.5396 150.411 32.5992ZM139.08 29.1114L135.876 25.9079C135.719 25.7542 135.626 25.5463 135.617 25.3265C135.607 25.1067 135.682 24.8916 135.826 24.725C135.405 25.0571 134.884 25.2367 134.349 25.2343C132.487 25.2343 130.964 26.7539 130.964 28.635C130.964 29.5369 131.323 30.4019 131.96 31.0397C132.598 31.6774 133.463 32.0357 134.365 32.0357H136.484C137.659 32.0357 138.705 31.4279 139.317 30.5128L139.995 29.4942C139.652 29.4916 139.323 29.3541 139.08 29.1114ZM136.517 24.4129H143.532C143.672 24.4129 143.8 24.4424 143.91 24.495C143.892 24.4755 143.875 24.4558 143.857 24.4359L143.848 24.4244L140.578 20.6458C140.506 20.5611 140.416 20.4932 140.315 20.4466C140.213 20.4 140.103 20.3759 139.992 20.3759C139.88 20.3759 139.77 20.4 139.669 20.4466C139.568 20.4932 139.478 20.5611 139.405 20.6458L136.139 24.4211L136.138 24.4227C136.097 24.472 136.054 24.518 136.01 24.5607C136.16 24.4623 136.337 24.4108 136.517 24.4129ZM144.156 25.9079L140.953 29.1114C140.699 29.358 140.359 29.4954 140.005 29.4942L140.683 30.5128C141.295 31.4295 142.343 32.0357 143.516 32.0357H145.635C146.537 32.0357 147.402 31.6774 148.04 31.0397C148.677 30.4019 149.036 29.5369 149.036 28.635C149.036 27.7331 148.677 26.8681 148.04 26.2303C147.402 25.5926 146.537 25.2343 145.635 25.2343C145.139 25.2343 144.662 25.0749 144.268 24.7989C144.383 24.9673 144.435 25.1709 144.414 25.3738C144.394 25.5766 144.303 25.7658 144.156 25.9079ZM145.635 33.6786H143.516C142.202 33.6776 140.94 33.1629 140 32.2444C139.06 33.1629 137.798 33.6776 136.484 33.6786H134.365C133.255 33.6801 132.176 33.3145 131.296 32.6386C131.728 34.7481 132.561 36.3679 133.637 37.5508C135.242 39.3136 137.473 40.1859 140 40.1859C142.555 40.1859 144.781 39.4105 146.371 37.7151C147.472 36.5437 148.318 34.8811 148.74 32.6091C147.854 33.3035 146.761 33.6801 145.635 33.6786Z" fill="#F89797"/>
<mask id="mask0_345_10" style="mask-type:luminance" maskUnits="userSpaceOnUse" x="245" y="78" width="46" height="46">
<path d="M245 78H291V124H245V78Z" fill="white"/>
</mask>
<g mask="url(#mask0_345_10)">
<path d="M270.156 99.9219V103.516C270.156 103.717 270.314 103.875 270.516 103.875H274.828C275.029 103.875 275.187 103.717 275.187 103.516V102.581C275.187 102.481 275.144 102.394 275.087 102.323L272.427 99.6632C272.354 99.6031 272.263 99.5679 272.169 99.5626H270.516C270.314 99.5626 270.156 99.7207 270.156 99.9219ZM277.703 99.5626H274.612C274.296 99.5626 274.138 99.9507 274.354 100.181L277.444 103.271C277.674 103.487 278.062 103.329 278.062 103.013V99.9219C278.062 99.7207 277.904 99.5626 277.703 99.5626ZM276.266 104.838H269.797C269.596 104.838 269.437 104.996 269.437 105.198V107.871C269.437 108.116 269.682 108.288 269.912 108.216L273.678 106.951C273.721 106.937 273.75 106.937 273.793 106.937H276.28C276.481 106.937 276.639 106.779 276.639 106.578V105.212C276.625 104.996 276.467 104.838 276.266 104.838ZM259.044 96.2851L257.923 91.2251C257.91 91.1436 257.868 91.0696 257.804 91.0168C257.741 90.9639 257.661 90.9358 257.578 90.9376H256.859C256.658 90.9376 256.5 91.0957 256.5 91.2969V96.3569C256.5 96.5582 256.658 96.7163 256.859 96.7163H258.699C258.929 96.7163 259.087 96.5151 259.044 96.2851ZM259.361 105.859C258.944 105.859 258.584 105.571 258.484 105.183C258.328 104.551 258.084 103.422 257.851 102.351C257.678 101.535 257.496 100.72 257.305 99.9076C257.262 99.7207 257.391 99.5626 257.564 99.5626H259.073C259.26 99.5626 259.418 99.6776 259.49 99.8501L259.878 100.842C259.921 100.928 260.022 101 260.137 101H263.4C263.587 101 263.774 101.072 263.903 101.216L264.924 102.236C265.053 102.366 265.139 102.553 265.139 102.739V105.586C265.139 105.729 265.024 105.859 264.866 105.859H259.361ZM266.447 102.323L265.226 101.101C265.163 101.034 265.128 100.947 265.125 100.856V99.9219C265.125 99.7207 265.283 99.5626 265.47 99.5626H268.259C268.46 99.5626 268.618 99.7207 268.618 99.9219V102.078C268.618 102.279 268.46 102.438 268.259 102.438H266.706C266.62 102.438 266.519 102.394 266.447 102.323ZM266.922 108.173H268.273C268.474 108.173 268.632 108.015 268.632 107.814V104.234C268.632 104.033 268.474 103.875 268.273 103.875H266.922C266.721 103.875 266.562 104.033 266.562 104.234V107.814C266.562 108.015 266.721 108.173 266.922 108.173ZM254.329 91.3688L254.847 93.6688C254.861 93.7551 254.933 93.8126 255.019 93.8126H255.637C255.738 93.8126 255.81 93.7263 255.81 93.6401V91.2969C255.824 91.0957 255.652 90.9376 255.465 90.9376H254.689C254.459 90.9376 254.286 91.1532 254.329 91.3688ZM256.5 98.5563C256.5 98.7144 256.629 98.8294 256.773 98.8294H259.102C259.26 98.8294 259.375 98.7144 259.375 98.5563V97.7369C259.375 97.6645 259.346 97.595 259.295 97.5438C259.244 97.4926 259.174 97.4638 259.102 97.4638H256.773C256.701 97.4638 256.631 97.4926 256.58 97.5438C256.529 97.595 256.5 97.6645 256.5 97.7369V98.5563ZM260.036 106.75H264.866C265.01 106.75 265.139 106.865 265.139 107.023V107.914C265.139 108.058 265.024 108.188 264.866 108.188H261.028C260.884 108.188 260.755 108.13 260.654 108.029L259.835 107.224C259.796 107.185 259.77 107.135 259.76 107.081C259.75 107.027 259.756 106.971 259.777 106.92C259.799 106.869 259.835 106.826 259.881 106.796C259.927 106.765 259.981 106.75 260.036 106.75ZM256.859 89.3994C256.859 89.5557 256.797 89.7057 256.687 89.8162C256.576 89.9267 256.426 89.9888 256.27 89.9888C256.114 89.9888 255.964 89.9267 255.853 89.8162C255.743 89.7057 255.681 89.5557 255.681 89.3994C255.681 89.2431 255.743 89.0932 255.853 88.9827C255.964 88.8721 256.114 88.8101 256.27 88.8101C256.426 88.8101 256.576 88.8721 256.687 88.9827C256.797 89.0932 256.859 89.2431 256.859 89.3994ZM279.083 106.549V104.723C279.083 104.421 279.428 104.249 279.658 104.436L280.794 105.327C280.88 105.399 280.937 105.499 280.937 105.614V106.549C280.937 106.75 280.779 106.908 280.578 106.908H279.442C279.241 106.908 279.083 106.75 279.083 106.549ZM278.034 108.533C278.034 108.815 277.922 109.085 277.722 109.285C277.523 109.484 277.252 109.596 276.97 109.596C276.688 109.596 276.417 109.484 276.218 109.285C276.018 109.085 275.906 108.815 275.906 108.533C275.906 108.25 276.018 107.98 276.218 107.78C276.417 107.581 276.688 107.469 276.97 107.469C277.252 107.469 277.523 107.581 277.722 107.78C277.922 107.98 278.034 108.25 278.034 108.533ZM279.744 103.271C279.893 103.271 280.036 103.212 280.141 103.107C280.246 103.002 280.305 102.859 280.305 102.711C280.305 102.562 280.246 102.419 280.141 102.314C280.036 102.209 279.893 102.15 279.744 102.15C279.596 102.15 279.453 102.209 279.348 102.314C279.243 102.419 279.184 102.562 279.184 102.711C279.184 102.859 279.243 103.002 279.348 103.107C279.453 103.212 279.596 103.271 279.744 103.271ZM253.352 87.2576C253.352 87.6601 253.668 87.9763 254.071 87.9763C254.459 87.9763 254.789 87.6601 254.789 87.2576V86.7113C254.789 86.3088 254.473 85.9926 254.071 85.9926C253.668 85.9926 253.352 86.3088 253.352 86.7113V87.2576Z" fill="#F89797"/>
<path d="M253.625 78C253.244 78 252.878 78.1515 252.609 78.421C252.339 78.6906 252.188 79.0563 252.188 79.4375V81.3436C250.96 81.8697 249.952 82.8041 249.334 83.9886C248.489 84.2837 247.756 84.8342 247.237 85.564C246.718 86.2939 246.438 87.167 246.438 88.0625C246.438 89.1664 246.862 90.228 247.622 91.0291C248.382 91.8301 249.419 92.3097 250.521 92.3692L253.491 105.715C253.762 106.95 254.301 108.111 255.069 109.116C255.837 110.121 256.816 110.944 257.938 111.53V112.78L255.149 119.598L255.126 119.664C254.45 121.576 255.729 124 258.167 124H260.525C261.872 124 263.035 123.173 263.519 121.976L266.067 115.731L266.621 116.407C266.659 116.455 266.68 116.512 266.683 116.572V122.877C266.683 123.485 267.172 123.974 267.78 123.974H270.048C270.244 123.975 270.436 123.923 270.604 123.825C270.773 123.726 270.912 123.584 271.007 123.413C271.51 123.777 272.146 124 272.887 124H274.828C275.392 124.002 275.948 123.871 276.452 123.617C276.955 123.362 277.391 122.992 277.723 122.537L281.08 118.065L281.088 118.054C281.364 117.684 281.6 117.283 281.793 116.861L282.842 117.661L282.847 117.663C282.876 117.684 282.899 117.711 282.916 117.743C282.932 117.775 282.939 117.81 282.938 117.846V122.998C282.938 123.587 283.413 124.108 284.055 124.08H286.308C286.452 124.081 286.596 124.053 286.729 123.998C286.863 123.944 286.984 123.863 287.086 123.761C287.188 123.658 287.269 123.537 287.324 123.403C287.379 123.27 287.407 123.127 287.406 122.982V115.254C287.406 114.438 287.07 113.65 286.499 113.079L284.574 111.156C284.446 111.024 284.375 110.847 284.376 110.663V110.184C284.947 109.329 285.251 108.324 285.25 107.296V105.054L286.199 106.089C287.196 107.111 287.845 108.422 288.053 109.835C287.867 109.955 287.714 110.12 287.609 110.314C287.503 110.508 287.449 110.726 287.449 110.947V112.644C287.449 112.96 287.708 113.219 288.024 113.219H288.326C289.304 113.219 290.094 112.399 290.094 111.422V110.947C290.095 110.732 290.043 110.52 289.943 110.33C289.843 110.14 289.698 109.976 289.521 109.855C289.311 108.054 288.506 106.374 287.234 105.082L285.228 102.913C285.076 100.831 284.141 98.8838 282.612 97.4624C281.082 96.0409 279.072 95.2506 276.984 95.25H262.986L261.505 88.58C262.288 88.3518 263.003 87.9362 263.589 87.369C264.175 86.8019 264.613 86.1004 264.866 85.3255C265.604 83.1103 263.936 80.875 261.646 80.875H259.375V79.4375C259.375 79.0563 259.224 78.6906 258.954 78.421C258.684 78.1515 258.319 78 257.938 78C257.556 78 257.191 78.1515 256.921 78.421C256.651 78.6906 256.5 79.0563 256.5 79.4375V80.875H255.062V79.4375C255.062 79.0563 254.911 78.6906 254.641 78.421C254.372 78.1515 254.006 78 253.625 78ZM260.812 109.869C260.812 109.668 260.669 109.496 260.468 109.438C259.439 109.17 258.506 108.623 257.77 107.856C257.034 107.09 256.525 106.135 256.299 105.097L252.829 89.5H252.816L251.878 85.3298C252.124 84.8534 252.496 84.4539 252.954 84.1752C253.411 83.8965 253.937 83.7494 254.473 83.75H261.646C262.006 83.75 262.25 84.095 262.135 84.4256C262.037 84.7326 261.87 85.013 261.646 85.245C261.445 85.4541 261.204 85.6204 260.937 85.734C260.671 85.8477 260.384 85.9062 260.094 85.9062H257.966L260.367 96.7162C260.44 97.0397 260.597 97.3272 260.812 97.5572V99.7062C260.812 99.9075 260.971 100.066 261.172 100.066H263.328C263.529 100.066 263.688 99.9075 263.688 99.7062V98.125H276.984C279.96 98.125 282.375 100.54 282.375 103.516V107.296C282.375 108.576 281.34 109.625 280.046 109.625C279.901 109.625 279.762 109.683 279.66 109.785C279.558 109.887 279.5 110.026 279.5 110.171V114.182C279.5 114.958 279.241 115.72 278.781 116.338L275.403 120.837L275.4 120.842C275.335 120.932 275.249 121.004 275.149 121.054C275.049 121.103 274.939 121.127 274.828 121.125H272.887C272.629 121.125 272.456 120.837 272.571 120.593L275.001 115.749C275.116 115.504 275.188 115.217 275.188 114.944V110.071C275.188 109.826 274.986 109.625 274.742 109.625H264.133C263.889 109.625 263.688 109.826 263.688 110.071V113.233C263.688 113.693 263.601 114.153 263.429 114.584L260.856 120.895C260.839 120.937 260.814 120.976 260.784 121.01C260.751 121.046 260.711 121.075 260.666 121.095C260.622 121.115 260.574 121.125 260.525 121.125H258.167C257.923 121.125 257.751 120.866 257.837 120.622L260.712 113.592C260.781 113.434 260.815 113.263 260.812 113.091V109.869ZM250.697 86.625L251.344 89.5H250.75C249.959 89.5 249.312 88.8531 249.312 88.0625C249.312 87.2906 249.931 86.6537 250.697 86.625ZM272.312 114.696L271.144 117.025V115.999C271.139 115.294 270.899 114.611 270.462 114.058L269.186 112.5H272.312V114.696Z" fill="#F89797"/>
</g>
<path d="M218.139 22.9316C217.993 22.9316 217.85 22.974 217.728 23.0538C217.606 23.1336 217.509 23.2472 217.451 23.3809C217.371 23.5627 217.466 23.7625 217.607 23.9022L218.358 24.6535C218.428 24.7234 218.511 24.7789 218.602 24.8168C218.694 24.8547 218.791 24.8742 218.89 24.8742C218.989 24.8742 219.087 24.8547 219.178 24.8168C219.269 24.7789 219.352 24.7234 219.422 24.6535L220.173 23.9022C220.313 23.7625 220.409 23.5627 220.33 23.3809C220.271 23.2472 220.175 23.1336 220.052 23.0538C219.93 22.974 219.787 22.9316 219.641 22.9316H218.139Z" fill="#F89797"/>
<path d="M208.373 14.7733C208.373 15.5771 208.625 16.3223 209.055 16.9338C207.722 18.6857 206.87 20.8041 206.87 23.16C206.87 26.4895 208.224 28.7161 210.412 30.1089L200.257 35.9715C199.246 36.5542 198.5 37.5062 198.177 38.6274C197.853 39.7485 197.977 40.9514 198.522 41.9831C199.068 43.0147 199.992 43.7946 201.1 44.1589C202.209 44.5231 203.416 44.4432 204.467 43.936C204.115 44.7781 203.989 45.6972 204.1 46.603C204.211 47.5087 204.557 48.3698 205.102 49.1015L206.447 50.909C206.936 51.5675 207.573 52.1022 208.307 52.4704C209.04 52.8386 209.85 53.0301 210.67 53.0295C211.491 53.029 212.3 52.8363 213.033 52.4671C213.766 52.0978 214.402 51.5621 214.891 50.903C216.176 51.3552 217.528 51.5854 218.89 51.5836C220.298 51.5836 221.649 51.3432 222.903 50.8969C223.391 51.5571 224.027 52.0937 224.76 52.4638C225.493 52.834 226.303 53.0274 227.124 53.0286C227.945 53.0297 228.755 52.8386 229.489 52.4706C230.222 52.1025 230.86 51.5677 231.35 50.909L232.696 49.1015C233.243 48.3682 233.588 47.505 233.699 46.5973C233.81 45.6895 233.682 44.7686 233.327 43.9255C234.368 44.4496 235.57 44.5507 236.683 44.2076C237.796 43.8644 238.733 43.1037 239.298 42.085C239.862 41.0662 240.011 39.8684 239.712 38.7427C239.413 37.617 238.689 36.6508 237.693 36.0466L227.653 29.9196C229.672 28.5208 230.91 26.3437 230.91 23.16C230.91 20.8041 230.058 18.6857 228.725 16.9338C229.297 16.1296 229.53 15.1326 229.373 14.1582C229.216 13.1838 228.682 12.3104 227.886 11.7269C227.09 11.1434 226.096 10.8965 225.12 11.0398C224.143 11.1831 223.262 11.7049 222.667 12.4925C221.396 12.0222 220.103 11.7683 218.89 11.7683C217.678 11.7683 216.384 12.0222 215.113 12.4925C214.636 11.8687 213.975 11.41 213.224 11.181C212.473 10.9521 211.669 10.9643 210.925 11.216C210.181 11.4677 209.535 11.9463 209.077 12.5844C208.619 13.2224 208.373 13.9879 208.373 14.7733ZM212.129 12.5196C212.724 12.5196 213.265 12.7509 213.668 13.1266C212.344 13.8 211.136 14.6816 210.092 15.7378C209.929 15.3943 209.856 15.0152 209.879 14.6358C209.902 14.2564 210.021 13.889 210.224 13.5678C210.428 13.2466 210.709 12.9821 211.042 12.7988C211.375 12.6155 211.749 12.5195 212.129 12.5196ZM226.402 41.1294C225.551 41.4939 224.812 42.0777 224.26 42.8212L222.914 44.6287C222.197 45.5887 221.831 46.7654 221.877 47.9626C220.961 48.3593 219.951 48.5786 218.89 48.5786C217.835 48.5786 216.832 48.3623 215.921 47.9702C215.969 46.7704 215.603 45.5907 214.885 44.6287L213.538 42.8212C212.983 42.0724 212.237 41.4857 211.378 41.1219V41.0663C211.378 39.0739 212.169 37.1632 213.578 35.7543C214.987 34.3455 216.898 33.554 218.89 33.554C220.883 33.554 222.793 34.3455 224.202 35.7543C225.611 37.1632 226.402 39.0739 226.402 41.0663V41.1294ZM227.905 14.7733C227.905 15.1188 227.827 15.4464 227.689 15.7378C226.644 14.6816 225.437 13.8 224.113 13.1266C224.434 12.8267 224.835 12.6272 225.268 12.5525C225.701 12.4778 226.146 12.5313 226.549 12.7062C226.952 12.8811 227.295 13.17 227.536 13.5372C227.777 13.9044 227.905 14.3341 227.905 14.7733ZM215.134 21.4292C214.935 21.4292 214.744 21.35 214.603 21.2091C214.462 21.0682 214.383 20.8772 214.383 20.6779C214.383 20.4787 214.462 20.2876 214.603 20.1467C214.744 20.0058 214.935 19.9267 215.134 19.9267C215.333 19.9267 215.524 20.0058 215.665 20.1467C215.806 20.2876 215.885 20.4787 215.885 20.6779C215.885 20.8772 215.806 21.0682 215.665 21.2091C215.524 21.35 215.333 21.4292 215.134 21.4292ZM218.89 29.6927C215.986 29.6927 213.632 27.2587 213.632 25.1853C213.632 23.1119 215.986 21.4292 218.89 21.4292C221.794 21.4292 224.149 23.1119 224.149 25.1853C224.149 27.2587 221.794 29.6927 218.89 29.6927ZM223.398 20.6779C223.398 20.8772 223.318 21.0682 223.178 21.2091C223.037 21.35 222.846 21.4292 222.646 21.4292C222.447 21.4292 222.256 21.35 222.115 21.2091C221.974 21.0682 221.895 20.8772 221.895 20.6779C221.895 20.4787 221.974 20.2876 222.115 20.1467C222.256 20.0058 222.447 19.9267 222.646 19.9267C222.846 19.9267 223.037 20.0058 223.178 20.1467C223.318 20.2876 223.398 20.4787 223.398 20.6779ZM211.775 44.1915L213.121 46.0004C213.356 46.317 213.527 46.6769 213.624 47.0596C213.721 47.4422 213.741 47.8402 213.684 48.2307C213.626 48.6212 213.493 48.9966 213.291 49.3355C213.088 49.6744 212.821 49.9701 212.505 50.2058C212.188 50.4415 211.828 50.6125 211.446 50.7091C211.063 50.8057 210.665 50.826 210.274 50.7688C209.884 50.7116 209.509 50.578 209.17 50.3757C208.831 50.1734 208.535 49.9064 208.299 49.5898L206.953 47.7808C206.477 47.1415 206.275 46.3393 206.391 45.5508C206.506 44.7623 206.931 44.052 207.57 43.5762C208.209 43.1004 209.011 42.8981 209.8 43.0138C210.588 43.1294 211.299 43.5521 211.775 44.1915ZM226.024 44.1915C226.26 43.875 226.555 43.608 226.894 43.4059C227.233 43.2037 227.609 43.0703 227.999 43.0132C228.39 42.9562 228.788 42.9766 229.17 43.0733C229.553 43.17 229.913 43.3412 230.229 43.577C230.546 43.8127 230.813 44.1085 231.015 44.4475C231.217 44.7864 231.35 45.1619 231.407 45.5524C231.465 45.9429 231.444 46.3408 231.347 46.7234C231.251 47.106 231.08 47.4659 230.844 47.7823L229.499 49.5898C229.263 49.9064 228.968 50.1734 228.629 50.3757C228.29 50.578 227.914 50.7116 227.524 50.7688C227.133 50.826 226.735 50.8057 226.353 50.7091C225.97 50.6125 225.61 50.4415 225.294 50.2058C224.977 49.9701 224.71 49.6744 224.508 49.3355C224.305 48.9966 224.172 48.6212 224.115 48.2307C224.057 47.8402 224.078 47.4422 224.174 47.0596C224.271 46.6769 224.442 46.317 224.678 46.0004L226.024 44.1915Z" fill="#F89797"/>
<path d="M48.7018 27.9632C49.4813 27.9632 50.2288 27.6536 50.78 27.1024C51.3312 26.5512 51.6408 25.8037 51.6408 25.0242H45.7628C45.7628 26.6478 47.0783 27.9632 48.7018 27.9632ZM47.896 23.4466C47.9928 23.4466 48.0857 23.4081 48.1542 23.3396C48.2226 23.2711 48.2611 23.1783 48.2611 23.0814C48.2611 22.9846 48.2226 22.8917 48.1542 22.8232C48.0857 22.7547 47.9928 22.7163 47.896 22.7163C47.7991 22.7163 47.7062 22.7547 47.6378 22.8232C47.5693 22.8917 47.5308 22.9846 47.5308 23.0814C47.5308 23.1783 47.5693 23.2711 47.6378 23.3396C47.7062 23.4081 47.7991 23.4466 47.896 23.4466ZM49.8602 23.0807C49.8602 23.1775 49.8218 23.2704 49.7533 23.3389C49.6848 23.4074 49.5919 23.4458 49.4951 23.4458C49.3982 23.4458 49.3054 23.4074 49.2369 23.3389C49.1684 23.2704 49.1299 23.1775 49.1299 23.0807C49.1299 22.9838 49.1684 22.891 49.2369 22.8225C49.3054 22.754 49.3982 22.7155 49.4951 22.7155C49.5919 22.7155 49.6848 22.754 49.7533 22.8225C49.8218 22.891 49.8602 22.9838 49.8602 23.0807ZM46.5005 19.1151C46.308 19.1151 46.1234 19.1916 45.9873 19.3277C45.8511 19.4638 45.7747 19.6485 45.7747 19.841V21.3756C45.7747 21.5682 45.8511 21.7528 45.9873 21.8889C46.1234 22.025 46.308 22.1015 46.5005 22.1015C46.693 22.1015 46.8777 22.025 47.0138 21.8889C47.1499 21.7528 47.2264 21.5682 47.2264 21.3756V19.8425C47.2264 19.7471 47.2076 19.6527 47.1711 19.5647C47.1347 19.4766 47.0812 19.3966 47.0138 19.3292C46.9464 19.2618 46.8664 19.2083 46.7783 19.1718C46.6902 19.1354 46.5959 19.1151 46.5005 19.1151ZM50.2187 19.8425C50.2187 19.6499 50.2952 19.4653 50.4313 19.3292C50.5674 19.1931 50.7521 19.1166 50.9446 19.1166C51.1371 19.1166 51.3217 19.1931 51.4578 19.3292C51.594 19.4653 51.6704 19.6499 51.6704 19.8425V21.3756C51.6704 21.5682 51.594 21.7528 51.4578 21.8889C51.3217 22.025 51.1371 22.1015 50.9446 22.1015C50.7521 22.1015 50.5674 22.025 50.4313 21.8889C50.2952 21.7528 50.2187 21.5682 50.2187 21.3756V19.8425Z" fill="#F89797"/>
<path d="M41.0551 17.89C41.7755 16.702 42.7901 15.7199 44.0009 15.0385C45.2117 14.357 46.5777 13.9994 47.9671 14H49.4366C50.8249 13.9993 52.1899 14.3563 53.4001 15.0366C54.6103 15.7169 55.6247 16.6976 56.3456 17.8841C57.1145 17.9746 57.8489 18.2549 58.4825 18.6998C59.1161 19.1447 59.6291 19.7402 59.9753 20.4327C60.3215 21.1253 60.49 21.893 60.4656 22.6669C60.4412 23.4407 60.2247 24.1963 59.8356 24.8657C68.546 26.7529 71.3605 34.4352 71.6657 38.22C71.6675 38.2402 71.6685 38.2605 71.6686 38.2808V41.3027C71.9679 41.2005 72.2775 41.0509 72.5841 40.8405C73.5499 40.1843 74.3336 39.0185 74.2847 37.2735C74.1943 34.0545 72.5278 32.2561 70.3976 30.3526L69.8747 29.8889C68.9711 29.0935 67.9445 28.1898 67.149 27.2077C66.1269 25.9471 65.327 24.3887 65.327 22.3785C65.327 19.0869 67.5298 17.022 70.0317 16.505C72.4182 16.0102 75.2609 16.8857 76.7526 19.3936C77.0286 19.858 77.1088 20.413 76.9756 20.9365C76.8424 21.46 76.5067 21.9092 76.0423 22.1852C75.5779 22.4612 75.0229 22.5414 74.4994 22.4082C73.9759 22.275 73.5267 21.9393 73.2507 21.4749C72.7737 20.675 71.799 20.2987 70.8569 20.4942C70.0332 20.6646 69.4007 21.2275 69.4007 22.3785C69.4007 23.1932 69.691 23.8747 70.3132 24.642C70.8746 25.3353 71.5857 25.9634 72.4804 26.7544L73.113 27.3158C75.4046 29.3645 78.2162 32.1598 78.3569 37.1579C78.4473 40.3635 76.9289 42.8107 74.8787 44.2076C73.9167 44.8643 72.8198 45.297 71.6686 45.4742V45.5483C71.6686 49.062 68.8704 50.7508 66.6069 50.9167C66.5812 50.9181 66.5555 50.9181 66.5298 50.9167L49.4484 50.9181C48.6455 50.9181 47.9315 50.256 47.9967 49.382C48.3033 45.3468 50.9224 41.6582 54.565 40.1325L51.0838 36.5461C48.1434 38.2452 45.2073 41.9264 44.2963 46.2993C44.9826 46.6907 45.5531 47.2567 45.9499 47.94C46.3467 48.6232 46.5556 49.3992 46.5554 50.1893C46.5554 50.3858 46.4773 50.5742 46.3384 50.7131C46.1995 50.852 46.0111 50.93 45.8147 50.93H38.3383C38.2423 50.9301 38.1472 50.9115 38.0583 50.8752L38.0495 50.8722C37.408 50.6204 37.0066 50.0619 36.7518 49.6131C36.5029 49.1731 36.3607 48.6872 36.3489 48.3288C36.3485 48.3159 36.3485 48.3031 36.3489 48.2902C36.4792 40.2302 40.8181 34.4545 45.117 31.1214C43.1838 30.39 41.6028 28.9483 40.6966 27.0907C39.6177 26.8636 38.6539 26.262 37.976 25.3924C37.2981 24.5229 36.9497 23.4415 36.9927 22.3398C37.0356 21.238 37.467 20.187 38.2106 19.3729C38.9541 18.5587 39.9618 18.0339 41.0551 17.8915V17.89ZM58.218 24.5931C58.538 24.2196 58.7671 23.7771 58.8875 23.3002C59.008 22.8233 59.0163 22.325 58.912 21.8444C58.8077 21.3637 58.5935 20.9138 58.2863 20.5297C57.9791 20.1456 57.5871 19.8379 57.1411 19.6306C57.387 20.4039 57.5203 21.229 57.5203 22.0837V23.5532C57.5203 23.9087 57.4981 24.2583 57.4536 24.602C57.7025 24.5724 57.9573 24.5694 58.218 24.5931ZM40.2537 19.6573C39.7329 19.9113 39.2913 20.3025 38.9762 20.7888C38.6612 21.2751 38.4848 21.8381 38.4659 22.4172C38.447 22.9964 38.5864 23.5697 38.869 24.0755C39.1517 24.5813 39.5669 25.0005 40.07 25.2879C39.9457 24.7185 39.8832 24.1374 39.8834 23.5547V22.0852C39.8834 21.2408 40.0137 20.4246 40.2537 19.6573ZM45.3836 16.5509C44.5095 16.5509 43.6711 16.8981 43.053 17.5163C42.4349 18.1344 42.0876 18.9727 42.0876 19.8469V19.9506C42.0876 21.1223 42.7009 22.1519 43.6223 22.7355C43.5041 23.4707 43.547 24.2229 43.7479 24.9399C43.9488 25.657 44.303 26.3218 44.786 26.8886C45.2689 27.4554 45.8692 27.9106 46.5453 28.2228C47.2214 28.5349 47.9572 28.6966 48.7018 28.6966C49.4465 28.6966 50.1823 28.5349 50.8584 28.2228C51.5344 27.9106 52.1347 27.4554 52.6177 26.8886C53.1007 26.3218 53.4548 25.657 53.6558 24.9399C53.8567 24.2229 53.8995 23.4707 53.7814 22.7355C54.2515 22.4386 54.6388 22.0275 54.9071 21.5406C55.1755 21.0536 55.3162 20.5066 55.316 19.9506V19.8469C55.316 18.9727 54.9688 18.1344 54.3507 17.5163C53.7325 16.8981 52.8942 16.5509 52.02 16.5509H45.3836ZM42.0758 47.1926C41.4099 47.1924 40.7629 47.4141 40.2371 47.8227C39.7113 48.2312 39.3366 48.8034 39.1723 49.4487H44.9822C44.817 48.8033 44.4417 48.2312 43.9155 47.8227C43.3892 47.4142 42.742 47.1925 42.0758 47.1926ZM59.9112 49.4442H65.7181C65.5522 48.8003 65.1769 48.2297 64.6513 47.8224C64.1257 47.415 63.4796 47.194 62.8146 47.194C62.1497 47.194 61.5035 47.415 60.9779 47.8224C60.4523 48.2297 60.0771 48.8003 59.9112 49.4442Z" fill="#F89797"/>
</svg>
