<svg width="56" height="84" viewBox="0 0 56 84" fill="none" xmlns="http://www.w3.org/2000/svg">
<path d="M7.354 65.986H4.582V66.94H7.354V65.986ZM4.582 69.406H7.354V68.38H4.582V69.406ZM9.352 70.936H4.582V80.566H2.458V64.438H9.352V70.936ZM14.464 74.41H12.106V78.226C12.106 79.09 11.962 79.594 11.368 79.864C10.81 80.152 10.036 80.188 8.974 80.188C8.884 79.684 8.596 78.91 8.344 78.424C9.01 78.442 9.676 78.442 9.892 78.442C10.108 78.442 10.18 78.388 10.18 78.19V75.85C9.064 77.146 7.66 78.316 6.31 79.054C5.986 78.586 5.41 77.884 4.978 77.524C6.508 76.876 8.164 75.67 9.226 74.41H5.59V72.682H10.18V71.296H12.106V72.682H14.464V74.41ZM12.628 69.442H15.49V68.38H12.628V69.442ZM15.49 65.986H12.628V66.94H15.49V65.986ZM17.65 64.438V78.01C17.65 79.198 17.398 79.81 16.66 80.152C15.904 80.512 14.788 80.566 13.132 80.566C13.06 79.954 12.7 78.946 12.412 78.37C13.456 78.442 14.662 78.424 15.022 78.406C15.364 78.406 15.49 78.298 15.49 77.974V70.972H10.594V64.438H17.65ZM30.052 66.274C30.556 67.03 31.348 68.344 31.744 69.172L30.142 69.874C29.602 68.722 29.134 67.858 28.486 66.94L30.052 66.274ZM32.464 65.284C32.986 66.022 33.814 67.3 34.21 68.11L32.644 68.866C32.068 67.732 31.582 66.904 30.916 66.004L32.464 65.284ZM25.408 64.834C25.3 65.59 25.21 66.508 25.174 67.228C25.084 69.172 24.94 73.186 24.94 75.436C24.94 77.254 26.038 77.848 27.442 77.848C30.412 77.848 32.284 76.12 33.598 74.158L35.236 76.156C34.066 77.884 31.51 80.278 27.406 80.278C24.454 80.278 22.564 78.982 22.564 75.922C22.564 73.51 22.726 68.776 22.726 67.228C22.726 66.364 22.654 65.5 22.51 64.798L25.408 64.834ZM44.02 76.876C44.02 77.542 44.758 77.992 45.838 77.992C46.216 77.992 46.558 77.974 46.882 77.938C46.774 76.768 46.108 76.012 45.136 76.012C44.452 76.012 44.02 76.426 44.02 76.876ZM40.96 65.284C41.464 65.356 42.094 65.374 42.598 65.374C43.552 65.374 47.404 65.302 48.43 65.212C49.168 65.14 49.582 65.086 49.798 65.014L50.968 66.616C50.554 66.886 50.122 67.138 49.708 67.444C48.736 68.128 46.846 69.712 45.712 70.612C46.306 70.468 46.846 70.414 47.422 70.414C50.482 70.414 52.804 72.322 52.804 74.95C52.804 77.794 50.644 80.044 46.288 80.044C43.786 80.044 41.896 78.892 41.896 77.092C41.896 75.634 43.21 74.284 45.118 74.284C47.35 74.284 48.7 75.652 48.952 77.362C49.942 76.84 50.446 76.012 50.446 74.914C50.446 73.294 48.826 72.196 46.702 72.196C43.948 72.196 42.148 73.654 40.222 75.85L38.584 74.158C39.862 73.132 42.04 71.296 43.102 70.414C44.11 69.586 45.982 68.074 46.864 67.3C45.946 67.318 43.462 67.426 42.508 67.48C42.022 67.516 41.446 67.57 41.032 67.624L40.96 65.284Z" fill="white"/>
<circle cx="28" cy="28" r="27" stroke="#F89797" stroke-width="2"/>
<path d="M38 38L18 18M38 18L18 38" stroke="#F89797" stroke-width="3" stroke-linecap="round"/>
</svg>
