<svg width="52" height="89" viewBox="0 0 52 89" fill="none" xmlns="http://www.w3.org/2000/svg">
<path d="M4 79.4999L15 0H50L43.7333 49.211L50 67V79.4999H4Z" fill="white"/>
<g clip-path="url(#clip0_522_9)">
<path d="M35.372 75.7764H8.33398L18.3045 4.29028H45.3426L35.372 75.7764Z" stroke="#926249" stroke-width="1.5" stroke-miterlimit="10"/>
<path d="M32.4142 71.7767H12.4121L21.0475 7.521H41.0495L32.4142 71.7767Z" fill="#A0D2D8" stroke="#926249" stroke-width="1.5" stroke-miterlimit="10"/>
<path d="M46.7474 70.9347L38.919 51.3826L38.173 56.8686L43.8071 70.9347H36.1122L35.7319 73.6661H46.7503V70.9347H46.7474Z" stroke="#926249" stroke-width="1.5" stroke-miterlimit="10"/>
<path d="M37.1471 9.22217L26.0039 19.1927" stroke="white" stroke-miterlimit="10" stroke-linecap="round"/>
<path d="M28.2985 60.4099L17.1553 70.3776" stroke="white" stroke-miterlimit="10" stroke-linecap="round"/>
<path d="M38.796 14.2087L23.7168 27.6973" stroke="white" stroke-miterlimit="10" stroke-linecap="round"/>
<path d="M29.3956 52.0444L14.3164 65.533" stroke="white" stroke-miterlimit="10" stroke-linecap="round"/>
</g>
<path d="M8.68 76.22C9.70667 76.5533 10.5133 77.2 11.1 78.16C11.6867 79.1067 11.98 80.18 11.98 81.38C11.98 83.1267 11.6267 84.4867 10.92 85.46C10.2133 86.4333 9.14667 86.92 7.72 86.92C7.29333 86.92 6.95333 86.8 6.7 86.56C6.46 86.3067 6.34 86.02 6.34 85.7C6.34 85.3667 6.44667 85.0867 6.66 84.86C6.88667 84.62 7.21333 84.4467 7.64 84.34C8.05333 84.2333 8.33333 84.02 8.48 83.7C8.64 83.38 8.72 82.86 8.72 82.14C8.72 81.5133 8.55333 81.04 8.22 80.72C7.88667 80.4 7.4 80.18 6.76 80.06C6.41333 82.3 6.01333 83.86 5.56 84.74C5.30667 85.2467 5.02 85.62 4.7 85.86C4.38 86.0867 4.00667 86.2 3.58 86.2C3.16667 86.2 2.83333 86.0133 2.58 85.64C2.34 85.2667 2.24667 84.8267 2.3 84.32C2.32667 84.0267 2.41333 83.5333 2.56 82.84C2.77333 81.7067 2.93333 80.7333 3.04 79.92C2.26667 79.9067 1.64667 79.7667 1.18 79.5C0.726667 79.2333 0.5 78.7267 0.5 77.98C0.5 76.7533 1.46 76.0533 3.38 75.88C3.39333 75.8267 3.4 75.74 3.4 75.62C3.44 74.7667 3.61333 74.1133 3.92 73.66C4.24 73.1933 4.76 72.96 5.48 72.96C6.02667 72.96 6.44667 73.1533 6.74 73.54C7.04667 73.9267 7.2 74.44 7.2 75.08C7.2 75.4533 7.19333 75.74 7.18 75.94C7.83333 76.0067 8.33333 76.1 8.68 76.22ZM16.24 79.1C16.3067 79.4333 16.34 79.74 16.34 80.02C16.34 80.58 16.2133 81.0333 15.96 81.38C15.72 81.7267 15.3267 81.9 14.78 81.9C14.3133 81.9 13.9667 81.7467 13.74 81.44C13.5267 81.1333 13.3133 80.6667 13.1 80.04C13.02 79.7467 12.92 79.4733 12.8 79.22C12.6533 78.8733 12.4667 78.56 12.24 78.28C12.0267 78 11.76 77.6933 11.44 77.36C11.0933 76.9867 10.84 76.68 10.68 76.44C10.52 76.2 10.44 75.9533 10.44 75.7C10.44 75.2733 10.5667 74.9333 10.82 74.68C11.0867 74.4267 11.4467 74.3 11.9 74.3C12.58 74.3 13.2267 74.5467 13.84 75.04C14.4533 75.5333 14.9667 76.1533 15.38 76.9C15.8067 77.6333 16.0933 78.3667 16.24 79.1ZM25.5159 76.22C26.5426 76.5533 27.3493 77.2 27.9359 78.16C28.5226 79.1067 28.8159 80.18 28.8159 81.38C28.8159 83.1267 28.4626 84.4867 27.7559 85.46C27.0493 86.4333 25.9826 86.92 24.5559 86.92C24.1293 86.92 23.7893 86.8 23.5359 86.56C23.2959 86.3067 23.1759 86.02 23.1759 85.7C23.1759 85.3667 23.2826 85.0867 23.4959 84.86C23.7226 84.62 24.0493 84.4467 24.4759 84.34C24.8893 84.2333 25.1693 84.02 25.3159 83.7C25.4759 83.38 25.5559 82.86 25.5559 82.14C25.5559 81.5133 25.3893 81.04 25.0559 80.72C24.7226 80.4 24.2359 80.18 23.5959 80.06C23.2493 82.3 22.8493 83.86 22.3959 84.74C22.1426 85.2467 21.8559 85.62 21.5359 85.86C21.2159 86.0867 20.8426 86.2 20.4159 86.2C20.0026 86.2 19.6693 86.0133 19.4159 85.64C19.1759 85.2667 19.0826 84.8267 19.1359 84.32C19.1626 84.0267 19.2493 83.5333 19.3959 82.84C19.6093 81.7067 19.7693 80.7333 19.8759 79.92C19.1026 79.9067 18.4826 79.7667 18.0159 79.5C17.5626 79.2333 17.3359 78.7267 17.3359 77.98C17.3359 76.7533 18.2959 76.0533 20.2159 75.88C20.2293 75.8267 20.2359 75.74 20.2359 75.62C20.2759 74.7667 20.4493 74.1133 20.7559 73.66C21.0759 73.1933 21.5959 72.96 22.3159 72.96C22.8626 72.96 23.2826 73.1533 23.5759 73.54C23.8826 73.9267 24.0359 74.44 24.0359 75.08C24.0359 75.4533 24.0293 75.74 24.0159 75.94C24.6693 76.0067 25.1693 76.1 25.5159 76.22ZM33.0759 79.1C33.1426 79.4333 33.1759 79.74 33.1759 80.02C33.1759 80.58 33.0493 81.0333 32.7959 81.38C32.5559 81.7267 32.1626 81.9 31.6159 81.9C31.1493 81.9 30.8026 81.7467 30.5759 81.44C30.3626 81.1333 30.1493 80.6667 29.9359 80.04C29.8559 79.7467 29.7559 79.4733 29.6359 79.22C29.4893 78.8733 29.3026 78.56 29.0759 78.28C28.8626 78 28.5959 77.6933 28.2759 77.36C27.9293 76.9867 27.6759 76.68 27.5159 76.44C27.3559 76.2 27.2759 75.9533 27.2759 75.7C27.2759 75.2733 27.4026 74.9333 27.6559 74.68C27.9226 74.4267 28.2826 74.3 28.7359 74.3C29.4159 74.3 30.0626 74.5467 30.6759 75.04C31.2893 75.5333 31.8026 76.1533 32.2159 76.9C32.6426 77.6333 32.9293 78.3667 33.0759 79.1ZM31.0959 74.76C30.7226 74.76 30.4559 74.6133 30.2959 74.32C30.1493 74.0133 30.0759 73.56 30.0759 72.96C30.0759 72.44 30.1493 72.0467 30.2959 71.78C30.4559 71.5 30.7226 71.36 31.0959 71.36C31.8026 71.36 32.1559 71.9 32.1559 72.98C32.1559 73.5667 32.0693 74.0133 31.8959 74.32C31.7359 74.6133 31.4693 74.76 31.0959 74.76ZM33.5759 74.76C33.2026 74.76 32.9426 74.6133 32.7959 74.32C32.6626 74.0133 32.5959 73.58 32.5959 73.02C32.5959 71.9133 32.9359 71.36 33.6159 71.36C34.3359 71.36 34.6959 71.8733 34.6959 72.9C34.6959 74.14 34.3226 74.76 33.5759 74.76ZM49.9223 81.16C50.2423 81.4133 50.4623 81.6733 50.5823 81.94C50.7023 82.2067 50.7623 82.5333 50.7623 82.92C50.7623 83.2533 50.6357 83.56 50.3823 83.84C50.1423 84.1067 49.8623 84.24 49.5423 84.24C49.2223 84.24 48.8423 84.1533 48.4023 83.98C47.989 85.0467 47.509 85.8533 46.9623 86.4C46.789 86.5733 46.5757 86.72 46.3223 86.84C46.0823 86.9467 45.849 87 45.6223 87C45.3423 87 45.0957 86.9 44.8823 86.7C44.669 86.4867 44.5623 86.24 44.5623 85.96C44.5623 85.7333 44.5957 85.5133 44.6623 85.3C44.729 85.0867 44.829 84.82 44.9623 84.5C45.2423 83.7133 45.429 83.1667 45.5223 82.86C44.8423 82.6467 44.2023 82.4733 43.6023 82.34C43.189 83.7667 42.7157 84.8 42.1823 85.44C41.7557 85.96 41.2957 86.3467 40.8023 86.6C40.3223 86.84 39.849 86.96 39.3823 86.96C38.6223 86.96 37.9357 86.7867 37.3223 86.44C36.7223 86.0933 36.249 85.62 35.9023 85.02C35.569 84.42 35.4023 83.76 35.4023 83.04C35.4023 81.68 35.8423 80.6 36.7223 79.8C37.6157 78.9867 38.8423 78.58 40.4023 78.58H40.7023C40.7157 78.3667 40.7223 78.0733 40.7223 77.7C40.7223 77.3667 40.7157 77.1467 40.7023 77.04H39.7223C38.7357 77.04 37.9557 77 37.3823 76.92C36.8223 76.84 36.3757 76.6533 36.0423 76.36C35.709 76.0667 35.5423 75.6133 35.5423 75C35.5423 74.4533 35.7757 74.0067 36.2423 73.66C36.709 73.3133 37.3157 73.1067 38.0623 73.04C38.609 72.9867 39.289 72.96 40.1023 72.96C41.5823 72.96 42.6757 73.0933 43.3823 73.36C43.849 73.5333 44.1757 73.8067 44.3623 74.18C44.549 74.5533 44.6423 75.02 44.6423 75.58C44.6423 75.8333 44.609 76.28 44.5423 76.92C44.489 77.56 44.409 78.2467 44.3023 78.98C44.6357 79.0467 45.1357 79.16 45.8023 79.32V78.9C45.8023 78.2467 45.9623 77.76 46.2823 77.44C46.6023 77.1067 46.9957 76.94 47.4623 76.94C47.969 76.94 48.3957 77.1133 48.7423 77.46C49.089 77.8067 49.2623 78.32 49.2623 79C49.2623 79.4667 49.229 80.0133 49.1623 80.64C49.4423 80.8 49.6957 80.9733 49.9223 81.16ZM39.1623 84.02C39.669 84.02 40.0623 83.3067 40.3423 81.88H40.1023C39.609 81.88 39.189 81.9933 38.8423 82.22C38.4957 82.4333 38.3223 82.7067 38.3223 83.04C38.3223 83.3333 38.3957 83.5733 38.5423 83.76C38.7023 83.9333 38.909 84.02 39.1623 84.02Z" fill="#222222"/>
<path d="M8.68 76.22L8.35289 77.165L8.36201 77.1681L8.37119 77.1711L8.68 76.22ZM11.1 78.16L10.2467 78.6815L10.25 78.6868L11.1 78.16ZM10.92 85.46L10.1108 84.8725L10.1108 84.8725L10.92 85.46ZM6.7 86.56L5.97405 87.2477L5.99264 87.2674L6.01226 87.286L6.7 86.56ZM6.66 84.86L5.93299 84.1734L5.9318 84.1746L6.66 84.86ZM7.64 84.34L7.88254 85.3102L7.88988 85.3083L7.64 84.34ZM8.48 83.7L7.58557 83.2528L7.578 83.2679L7.57094 83.2833L8.48 83.7ZM8.22 80.72L7.52747 81.4414H7.52747L8.22 80.72ZM6.76 80.06L6.94429 79.0771L5.92965 78.8869L5.77177 79.9071L6.76 80.06ZM5.56 84.74L4.67096 84.282L4.66557 84.2928L5.56 84.74ZM4.7 85.86L5.27802 86.676L5.28912 86.6682L5.3 86.66L4.7 85.86ZM2.58 85.64L1.73882 86.1808L1.74554 86.1912L1.75252 86.2015L2.58 85.64ZM2.3 84.32L3.29451 84.4247L3.29525 84.4176L3.29589 84.4105L2.3 84.32ZM2.56 82.84L3.53835 83.047L3.54067 83.036L3.54274 83.025L2.56 82.84ZM3.04 79.92L4.03151 80.05L4.17716 78.9395L3.05724 78.9201L3.04 79.92ZM1.18 79.5L0.67294 80.362L0.683861 80.3682L1.18 79.5ZM3.38 75.88L3.46991 76.8759L4.17776 76.812L4.35014 76.1225L3.38 75.88ZM3.4 75.62L2.4011 75.5732L2.4 75.5966V75.62H3.4ZM3.92 73.66L3.09526 73.0945L3.09172 73.0997L3.92 73.66ZM6.74 73.54L5.94331 74.1444L5.94981 74.153L5.9565 74.1614L6.74 73.54ZM7.18 75.94L6.18222 75.8735L6.11799 76.8368L7.07849 76.9348L7.18 75.94ZM16.24 79.1L15.2594 79.2961L16.24 79.1ZM15.96 81.38L15.1526 80.79L15.1451 80.8003L15.1378 80.8108L15.96 81.38ZM13.74 81.44L12.9191 82.0111L12.9273 82.0228L12.9358 82.0344L13.74 81.44ZM13.1 80.04L12.1352 80.3031L12.1434 80.333L12.1534 80.3623L13.1 80.04ZM12.8 79.22L11.879 79.6096L11.8872 79.629L11.8963 79.6481L12.8 79.22ZM12.24 78.28L11.4446 78.886L11.4535 78.8978L11.4628 78.9092L12.24 78.28ZM11.44 77.36L10.7072 78.0405L10.7129 78.0465L10.7186 78.0525L11.44 77.36ZM10.68 76.44L11.5121 75.8853V75.8853L10.68 76.44ZM10.82 74.68L10.1313 73.955L10.122 73.9638L10.1129 73.9729L10.82 74.68ZM15.38 76.9L14.5051 77.3843L14.5103 77.3937L14.5157 77.4029L15.38 76.9ZM8.37119 77.1711C9.16068 77.4275 9.77874 77.9157 10.2467 78.6814L11.9533 77.6385C11.2479 76.4843 10.2527 75.6792 8.98881 75.2689L8.37119 77.1711ZM10.25 78.6868C10.731 79.4629 10.98 80.3511 10.98 81.38H12.98C12.98 80.0089 12.6423 78.7504 11.95 77.6332L10.25 78.6868ZM10.98 81.38C10.98 83.0071 10.6488 84.1315 10.1108 84.8725L11.7292 86.0475C12.6046 84.8418 12.98 83.2462 12.98 81.38H10.98ZM10.1108 84.8725C9.62875 85.5364 8.89409 85.92 7.72 85.92V87.92C9.39925 87.92 10.7979 87.3302 11.7292 86.0475L10.1108 84.8725ZM7.72 85.92C7.48909 85.92 7.41585 85.8607 7.38774 85.834L6.01226 87.286C6.49081 87.7393 7.09758 87.92 7.72 87.92V85.92ZM7.42595 85.8723C7.34452 85.7863 7.34 85.7399 7.34 85.7H5.34C5.34 86.3001 5.57548 86.827 5.97405 87.2477L7.42595 85.8723ZM7.34 85.7C7.34 85.6016 7.36257 85.5726 7.3882 85.5454L5.9318 84.1746C5.53077 84.6007 5.34 85.1317 5.34 85.7H7.34ZM7.38701 85.5466C7.44569 85.4845 7.58103 85.3855 7.88254 85.3101L7.39746 83.3699C6.84564 83.5078 6.32764 83.7555 5.93299 84.1734L7.38701 85.5466ZM7.88988 85.3083C8.5263 85.144 9.09016 84.7688 9.38906 84.1167L7.57094 83.2833C7.56599 83.2941 7.56339 83.2974 7.55396 83.3046C7.53996 83.3152 7.49452 83.3448 7.39012 83.3717L7.88988 85.3083ZM9.37443 84.1472C9.64418 83.6077 9.72 82.8887 9.72 82.14H7.72C7.72 82.8313 7.63582 83.1523 7.58557 83.2528L9.37443 84.1472ZM9.72 82.14C9.72 81.3413 9.50445 80.5669 8.91253 79.9986L7.52747 81.4414C7.60222 81.5131 7.72 81.6854 7.72 82.14H9.72ZM8.91253 79.9986C8.39237 79.4993 7.70048 79.2189 6.94429 79.0771L6.57571 81.0429C7.09952 81.1411 7.38097 81.3007 7.52747 81.4414L8.91253 79.9986ZM5.77177 79.9071C5.42585 82.1422 5.04345 83.5591 4.67103 84.282L6.44898 85.198C6.98322 84.1609 7.40082 82.4578 7.74824 80.2129L5.77177 79.9071ZM4.66557 84.2928C4.45463 84.7147 4.25511 84.9437 4.1 85.06L5.3 86.66C5.78489 86.2963 6.1587 85.7787 6.45443 85.1872L4.66557 84.2928ZM4.12198 85.044C3.98596 85.1403 3.81876 85.2 3.58 85.2V87.2C4.19457 87.2 4.77404 87.033 5.27802 86.676L4.12198 85.044ZM3.58 85.2C3.53 85.2 3.51389 85.1905 3.5086 85.1875C3.49999 85.1827 3.46259 85.1597 3.40748 85.0785L1.75252 86.2015C2.17189 86.8195 2.80099 87.2 3.58 87.2V85.2ZM3.42118 85.0992C3.32211 84.9451 3.26129 84.7402 3.29451 84.4247L1.30549 84.2153C1.23204 84.9131 1.3579 85.5882 1.73882 86.1808L3.42118 85.0992ZM3.29589 84.4105C3.31667 84.182 3.3917 83.7402 3.53835 83.047L1.58165 82.633C1.43497 83.3264 1.33667 83.8713 1.30411 84.2295L3.29589 84.4105ZM3.54274 83.025C3.75825 81.8801 3.92168 80.8874 4.03151 80.05L2.04849 79.79C1.94498 80.5792 1.78842 81.5332 1.57726 82.655L3.54274 83.025ZM3.05724 78.9201C2.38292 78.9085 1.94665 78.7863 1.67614 78.6318L0.683861 80.3682C1.34669 80.747 2.15041 80.9048 3.02276 80.9199L3.05724 78.9201ZM1.68702 78.6381C1.65851 78.6213 1.5 78.537 1.5 77.98H-0.5C-0.5 78.9163 -0.205175 79.8454 0.67298 80.3619L1.68702 78.6381ZM1.5 77.98C1.5 77.6739 1.59706 77.4977 1.80917 77.343C2.07825 77.1468 2.58924 76.9555 3.46991 76.8759L3.29009 74.884C2.25076 74.9779 1.32176 75.2232 0.630828 75.727C-0.117065 76.2723 -0.5 77.0594 -0.5 77.98H1.5ZM4.35014 76.1225C4.39543 75.9414 4.4 75.749 4.4 75.62H2.4C2.4 75.6409 2.39971 75.658 2.39927 75.6715C2.39883 75.6852 2.39829 75.6939 2.39795 75.6983C2.39758 75.703 2.39763 75.7005 2.3988 75.6923C2.39942 75.688 2.40046 75.6813 2.40212 75.6725C2.40376 75.6639 2.40623 75.652 2.40986 75.6375L4.35014 76.1225ZM4.3989 75.6668C4.43472 74.9028 4.58705 74.4587 4.74828 74.2203L3.09172 73.0997C2.63962 73.768 2.44528 74.6305 2.4011 75.5732L4.3989 75.6668ZM4.74473 74.2255C4.82776 74.1044 4.98905 73.96 5.48 73.96V71.96C4.53095 71.96 3.65224 72.2822 3.09527 73.0945L4.74473 74.2255ZM5.48 73.96C5.75906 73.96 5.86479 74.0409 5.94331 74.1444L7.53669 72.9356C7.02854 72.2658 6.29428 71.96 5.48 71.96V73.96ZM5.9565 74.1614C6.08605 74.3247 6.2 74.598 6.2 75.08H8.2C8.2 74.282 8.00728 73.5286 7.5235 72.9186L5.9565 74.1614ZM6.2 75.08C6.2 75.4465 6.19332 75.707 6.18222 75.8735L8.17779 76.0065C8.19335 75.773 8.2 75.4601 8.2 75.08H6.2ZM7.07849 76.9348C7.70513 76.9988 8.11509 77.0827 8.35289 77.165L9.00711 75.275C8.55158 75.1173 7.96154 75.0146 7.28151 74.9452L7.07849 76.9348ZM15.2594 79.2961C15.3158 79.5781 15.34 79.8181 15.34 80.02H17.34C17.34 79.6619 17.2975 79.2886 17.2206 78.9039L15.2594 79.2961ZM15.34 80.02C15.34 80.4323 15.2475 80.6601 15.1526 80.79L16.7674 81.97C17.1792 81.4065 17.34 80.7277 17.34 80.02H15.34ZM15.1378 80.8108C15.125 80.8293 15.113 80.8411 15.0817 80.8549C15.0417 80.8726 14.9508 80.9 14.78 80.9V82.9C15.5467 82.9 16.3013 82.6438 16.7822 81.9492L15.1378 80.8108ZM14.78 80.9C14.6546 80.9 14.5946 80.8793 14.5745 80.8705C14.5609 80.8645 14.555 80.8602 14.5442 80.8456L12.9358 82.0344C13.3938 82.654 14.0756 82.9 14.78 82.9V80.9ZM14.5609 80.8689C14.4268 80.6762 14.2493 80.3129 14.0467 79.7177L12.1534 80.3623C12.3774 81.0204 12.6265 81.5905 12.9191 82.0111L14.5609 80.8689ZM14.0648 79.7769C13.9706 79.4316 13.8509 79.1026 13.7037 78.7919L11.8963 79.6481C11.9891 79.8441 12.0694 80.0617 12.1352 80.3031L14.0648 79.7769ZM13.721 78.8304C13.5395 78.4014 13.3054 78.0067 13.0172 77.6508L11.4628 78.9092C11.6279 79.1133 11.7672 79.3453 11.879 79.6096L13.721 78.8304ZM13.0354 77.674C12.7933 77.3561 12.5001 77.0203 12.1614 76.6675L10.7186 78.0525C11.0199 78.3664 11.2601 78.6439 11.4446 78.886L13.0354 77.674ZM12.1728 76.6795C11.8395 76.3206 11.6282 76.0595 11.5121 75.8853L9.84795 76.9947C10.0518 77.3005 10.3472 77.6528 10.7072 78.0405L12.1728 76.6795ZM11.5121 75.8853C11.4459 75.7861 11.44 75.7295 11.44 75.7H9.44C9.44 76.1772 9.59409 76.6139 9.84795 76.9947L11.5121 75.8853ZM11.44 75.7C11.44 75.4842 11.4965 75.4177 11.5271 75.3871L10.1129 73.9729C9.63682 74.449 9.44 75.0624 9.44 75.7H11.44ZM11.5087 75.405C11.5486 75.3672 11.6403 75.3 11.9 75.3V73.3C11.2531 73.3 10.6248 73.4862 10.1313 73.955L11.5087 75.405ZM11.9 75.3C12.317 75.3 12.7482 75.4452 13.2132 75.8192L14.4668 74.2608C13.7051 73.6482 12.843 73.3 11.9 73.3V75.3ZM13.2132 75.8192C13.7173 76.2246 14.1493 76.7415 14.5051 77.3843L16.2549 76.4157C15.7841 75.5652 15.1894 74.842 14.4668 74.2608L13.2132 75.8192ZM14.5157 77.4029C14.8943 78.0537 15.137 78.6842 15.2594 79.2961L17.2206 78.9039C17.0496 78.0491 16.719 77.213 16.2443 76.3971L14.5157 77.4029ZM25.5159 76.22L25.1888 77.165L25.1979 77.1681L25.2071 77.1711L25.5159 76.22ZM27.9359 78.16L27.0826 78.6815L27.0859 78.6868L27.9359 78.16ZM27.7559 85.46L26.9467 84.8725V84.8725L27.7559 85.46ZM23.5359 86.56L22.81 87.2477L22.8286 87.2674L22.8482 87.286L23.5359 86.56ZM23.4959 84.86L22.7689 84.1734L22.7677 84.1746L23.4959 84.86ZM24.4759 84.34L24.7185 85.3102L24.7258 85.3083L24.4759 84.34ZM25.3159 83.7L24.4215 83.2528L24.4139 83.2679L24.4069 83.2833L25.3159 83.7ZM25.0559 80.72L24.3634 81.4414H24.3634L25.0559 80.72ZM23.5959 80.06L23.7802 79.0771L22.7656 78.8869L22.6077 79.9071L23.5959 80.06ZM22.3959 84.74L21.5069 84.282L21.5015 84.2928L22.3959 84.74ZM21.5359 85.86L22.114 86.676L22.1251 86.6682L22.1359 86.66L21.5359 85.86ZM19.4159 85.64L18.5748 86.1808L18.5815 86.1912L18.5885 86.2015L19.4159 85.64ZM19.1359 84.32L20.1304 84.4247L20.1312 84.4176L20.1318 84.4105L19.1359 84.32ZM19.3959 82.84L20.3743 83.047L20.3766 83.036L20.3787 83.025L19.3959 82.84ZM19.8759 79.92L20.8674 80.05L21.0131 78.9395L19.8932 78.9201L19.8759 79.92ZM18.0159 79.5L17.5089 80.362L17.5198 80.3682L18.0159 79.5ZM20.2159 75.88L20.3058 76.8759L21.0137 76.812L21.1861 76.1225L20.2159 75.88ZM20.2359 75.62L19.237 75.5732L19.2359 75.5966V75.62H20.2359ZM20.7559 73.66L19.9312 73.0945L19.9277 73.0997L20.7559 73.66ZM23.5759 73.54L22.7792 74.1444L22.7858 74.153L22.7924 74.1614L23.5759 73.54ZM24.0159 75.94L23.0182 75.8735L22.9539 76.8368L23.9144 76.9348L24.0159 75.94ZM33.0759 79.1L32.0954 79.2961L33.0759 79.1ZM32.7959 81.38L31.9885 80.79L31.981 80.8003L31.9737 80.8108L32.7959 81.38ZM30.5759 81.44L29.755 82.0111L29.7632 82.0228L29.7718 82.0344L30.5759 81.44ZM29.9359 80.04L28.9712 80.3031L28.9793 80.333L28.9893 80.3623L29.9359 80.04ZM29.6359 79.22L28.715 79.6096L28.7232 79.629L28.7322 79.6481L29.6359 79.22ZM29.0759 78.28L28.2805 78.886L28.2894 78.8978L28.2987 78.9092L29.0759 78.28ZM28.2759 77.36L27.5431 78.0405L27.5488 78.0465L27.5546 78.0525L28.2759 77.36ZM27.5159 76.44L28.348 75.8853V75.8853L27.5159 76.44ZM27.6559 74.68L26.9672 73.955L26.9579 73.9638L26.9488 73.9729L27.6559 74.68ZM32.2159 76.9L31.341 77.3843L31.3462 77.3937L31.3516 77.4029L32.2159 76.9ZM30.2959 74.32L29.3938 74.7515L29.4053 74.7755L29.418 74.7989L30.2959 74.32ZM30.2959 71.78L29.4277 71.2839L29.4237 71.2909L29.4197 71.2981L30.2959 71.78ZM31.8959 74.32L31.0254 73.8279L31.0217 73.8345L31.018 73.8411L31.8959 74.32ZM32.7959 74.32L31.8789 74.7187L31.8895 74.7433L31.9015 74.7672L32.7959 74.32ZM25.2071 77.1711C25.9966 77.4275 26.6147 77.9157 27.0827 78.6814L28.7892 77.6385C28.0839 76.4843 27.0886 75.6792 25.8247 75.2689L25.2071 77.1711ZM27.0859 78.6868C27.5669 79.4629 27.8159 80.3511 27.8159 81.38H29.8159C29.8159 80.0089 29.4783 78.7504 28.7859 77.6332L27.0859 78.6868ZM27.8159 81.38C27.8159 83.0071 27.4847 84.1315 26.9467 84.8725L28.5652 86.0475C29.4405 84.8418 29.8159 83.2462 29.8159 81.38H27.8159ZM26.9467 84.8725C26.4647 85.5364 25.73 85.92 24.5559 85.92V87.92C26.2352 87.92 27.6339 87.3302 28.5652 86.0475L26.9467 84.8725ZM24.5559 85.92C24.325 85.92 24.2518 85.8607 24.2237 85.834L22.8482 87.286C23.3268 87.7393 23.9335 87.92 24.5559 87.92V85.92ZM24.2619 85.8723C24.1805 85.7863 24.1759 85.7399 24.1759 85.7H22.1759C22.1759 86.3001 22.4114 86.827 22.81 87.2477L24.2619 85.8723ZM24.1759 85.7C24.1759 85.6016 24.1985 85.5726 24.2241 85.5454L22.7677 84.1746C22.3667 84.6007 22.1759 85.1317 22.1759 85.7H24.1759ZM24.2229 85.5466C24.2816 85.4845 24.417 85.3855 24.7185 85.3101L24.2334 83.3699C23.6816 83.5078 23.1636 83.7555 22.7689 84.1734L24.2229 85.5466ZM24.7258 85.3083C25.3622 85.144 25.9261 84.7688 26.225 84.1167L24.4069 83.2833C24.4019 83.2941 24.3993 83.2974 24.3899 83.3046C24.3759 83.3152 24.3305 83.3448 24.2261 83.3717L24.7258 85.3083ZM26.2104 84.1472C26.4801 83.6077 26.5559 82.8887 26.5559 82.14H24.5559C24.5559 82.8313 24.4718 83.1523 24.4215 83.2528L26.2104 84.1472ZM26.5559 82.14C26.5559 81.3413 26.3404 80.5669 25.7485 79.9986L24.3634 81.4414C24.4382 81.5131 24.5559 81.6854 24.5559 82.14H26.5559ZM25.7485 79.9986C25.2283 79.4993 24.5364 79.2189 23.7802 79.0771L23.4116 81.0429C23.9355 81.1411 24.2169 81.3007 24.3634 81.4414L25.7485 79.9986ZM22.6077 79.9071C22.2618 82.1422 21.8794 83.5591 21.507 84.282L23.2849 85.198C23.8192 84.1609 24.2368 82.4578 24.5842 80.2129L22.6077 79.9071ZM21.5015 84.2928C21.2906 84.7147 21.091 84.9437 20.9359 85.06L22.1359 86.66C22.6208 86.2963 22.9946 85.7787 23.2904 85.1872L21.5015 84.2928ZM20.9579 85.044C20.8219 85.1403 20.6547 85.2 20.4159 85.2V87.2C21.0305 87.2 21.61 87.033 22.114 86.676L20.9579 85.044ZM20.4159 85.2C20.3659 85.2 20.3498 85.1905 20.3445 85.1875C20.3359 85.1827 20.2985 85.1597 20.2434 85.0785L18.5885 86.2015C19.0078 86.8195 19.6369 87.2 20.4159 87.2V85.2ZM20.2571 85.0992C20.158 84.9451 20.0972 84.7402 20.1304 84.4247L18.1414 84.2153C18.068 84.9131 18.1938 85.5882 18.5748 86.1808L20.2571 85.0992ZM20.1318 84.4105C20.1526 84.182 20.2276 83.7402 20.3743 83.047L18.4176 82.633C18.2709 83.3264 18.1726 83.8713 18.14 84.2295L20.1318 84.4105ZM20.3787 83.025C20.5942 81.8801 20.7576 80.8874 20.8674 80.05L18.8844 79.79C18.7809 80.5792 18.6244 81.5332 18.4132 82.655L20.3787 83.025ZM19.8932 78.9201C19.2189 78.9085 18.7826 78.7863 18.5121 78.6318L17.5198 80.3682C18.1826 80.747 18.9863 80.9048 19.8587 80.9199L19.8932 78.9201ZM18.523 78.6381C18.4944 78.6213 18.3359 78.537 18.3359 77.98H16.3359C16.3359 78.9163 16.6308 79.8454 17.5089 80.3619L18.523 78.6381ZM18.3359 77.98C18.3359 77.6739 18.433 77.4977 18.6451 77.343C18.9142 77.1468 19.4252 76.9555 20.3058 76.8759L20.126 74.884C19.0867 74.9779 18.1577 75.2232 17.4668 75.727C16.7189 76.2723 16.3359 77.0594 16.3359 77.98H18.3359ZM21.1861 76.1225C21.2314 75.9414 21.2359 75.749 21.2359 75.62H19.2359C19.2359 75.6409 19.2356 75.658 19.2352 75.6715C19.2348 75.6852 19.2342 75.6939 19.2339 75.6983C19.2335 75.703 19.2336 75.7005 19.2347 75.6923C19.2354 75.688 19.2364 75.6813 19.2381 75.6725C19.2397 75.6639 19.2422 75.652 19.2458 75.6375L21.1861 76.1225ZM21.2348 75.6668C21.2707 74.9028 21.423 74.4587 21.5842 74.2203L19.9277 73.0997C19.4756 73.768 19.2812 74.6305 19.237 75.5732L21.2348 75.6668ZM21.5807 74.2255C21.6637 74.1044 21.825 73.96 22.3159 73.96V71.96C21.3669 71.96 20.4882 72.2822 19.9312 73.0945L21.5807 74.2255ZM22.3159 73.96C22.595 73.96 22.7007 74.0409 22.7792 74.1444L24.3726 72.9356C23.8645 72.2658 23.1302 71.96 22.3159 71.96V73.96ZM22.7924 74.1614C22.922 74.3247 23.0359 74.598 23.0359 75.08H25.0359C25.0359 74.282 24.8432 73.5286 24.3594 72.9186L22.7924 74.1614ZM23.0359 75.08C23.0359 75.4465 23.0293 75.707 23.0182 75.8735L25.0137 76.0065C25.0293 75.773 25.0359 75.4601 25.0359 75.08H23.0359ZM23.9144 76.9348C24.5411 76.9988 24.951 77.0827 25.1888 77.165L25.843 75.275C25.3875 75.1173 24.7975 75.0146 24.1175 74.9452L23.9144 76.9348ZM32.0954 79.2961C32.1517 79.5781 32.1759 79.8181 32.1759 80.02H34.1759C34.1759 79.6619 34.1335 79.2886 34.0565 78.9039L32.0954 79.2961ZM32.1759 80.02C32.1759 80.4323 32.0834 80.6601 31.9885 80.79L33.6033 81.97C34.0151 81.4065 34.1759 80.7277 34.1759 80.02H32.1759ZM31.9737 80.8108C31.9609 80.8293 31.9489 80.8411 31.9177 80.8549C31.8776 80.8726 31.7868 80.9 31.6159 80.9V82.9C32.3826 82.9 33.1372 82.6438 33.6181 81.9492L31.9737 80.8108ZM31.6159 80.9C31.4906 80.9 31.4305 80.8793 31.4104 80.8705C31.3969 80.8645 31.3909 80.8602 31.3801 80.8456L29.7718 82.0344C30.2297 82.654 30.9115 82.9 31.6159 82.9V80.9ZM31.3968 80.8689C31.2628 80.6762 31.0852 80.3129 30.8826 79.7177L28.9893 80.3623C29.2134 81.0204 29.4624 81.5905 29.755 82.0111L31.3968 80.8689ZM30.9007 79.7769C30.8065 79.4316 30.6868 79.1026 30.5397 78.7919L28.7322 79.6481C28.825 79.8441 28.9053 80.0617 28.9712 80.3031L30.9007 79.7769ZM30.5569 78.8304C30.3754 78.4014 30.1413 78.0067 29.8532 77.6508L28.2987 78.9092C28.4639 79.1133 28.6031 79.3453 28.715 79.6096L30.5569 78.8304ZM29.8714 77.674C29.6292 77.3561 29.336 77.0203 28.9973 76.6675L27.5546 78.0525C27.8559 78.3664 28.096 78.6439 28.2805 78.886L29.8714 77.674ZM29.0087 76.6795C28.6754 76.3206 28.4641 76.0595 28.348 75.8853L26.6839 76.9947C26.8878 77.3005 27.1831 77.6528 27.5431 78.0405L29.0087 76.6795ZM28.348 75.8853C28.2818 75.7861 28.2759 75.7295 28.2759 75.7H26.2759C26.2759 76.1772 26.43 76.6139 26.6839 76.9947L28.348 75.8853ZM28.2759 75.7C28.2759 75.4842 28.3325 75.4177 28.363 75.3871L26.9488 73.9729C26.4728 74.449 26.2759 75.0624 26.2759 75.7H28.2759ZM28.3447 75.405C28.3845 75.3672 28.4762 75.3 28.7359 75.3V73.3C28.089 73.3 27.4607 73.4862 26.9672 73.955L28.3447 75.405ZM28.7359 75.3C29.1529 75.3 29.5841 75.4452 30.0492 75.8192L31.3027 74.2608C30.5411 73.6482 29.6789 73.3 28.7359 73.3V75.3ZM30.0492 75.8192C30.5532 76.2246 30.9852 76.7415 31.341 77.3843L33.0908 76.4157C32.62 75.5652 32.0253 74.842 31.3027 74.2608L30.0492 75.8192ZM31.3516 77.4029C31.7302 78.0537 31.973 78.6842 32.0954 79.2961L34.0565 78.9039C33.8856 78.0491 33.555 77.213 33.0803 76.3971L31.3516 77.4029ZM31.0959 73.76C31.04 73.76 31.0536 73.7495 31.0979 73.7738C31.119 73.7854 31.1384 73.8004 31.1538 73.8164C31.1688 73.8318 31.1744 73.8423 31.1738 73.8411L29.418 74.7989C29.777 75.457 30.409 75.76 31.0959 75.76V73.76ZM31.1981 73.8885C31.1477 73.7832 31.0759 73.5082 31.0759 72.96H29.0759C29.0759 73.6118 29.1509 74.2435 29.3938 74.7515L31.1981 73.8885ZM31.0759 72.96C31.0759 72.5041 31.1454 72.3106 31.1722 72.2619L29.4197 71.2981C29.1532 71.7827 29.0759 72.3759 29.0759 72.96H31.0759ZM31.1642 72.2761C31.1623 72.2795 31.1542 72.2924 31.1375 72.3089C31.1204 72.3257 31.1005 72.34 31.0808 72.3504C31.0404 72.3716 31.0331 72.36 31.0959 72.36V70.36C30.4314 70.36 29.797 70.6377 29.4277 71.2839L31.1642 72.2761ZM31.0959 72.36C31.1443 72.36 31.138 72.3687 31.1058 72.3523C31.0698 72.334 31.0529 72.3107 31.0541 72.3125C31.0598 72.3211 31.0874 72.3686 31.1127 72.4843C31.1378 72.5995 31.1559 72.7614 31.1559 72.98H33.1559C33.1559 72.3628 33.0608 71.7264 32.7277 71.2175C32.3464 70.6347 31.7487 70.36 31.0959 70.36V72.36ZM31.1559 72.98C31.1559 73.4958 31.0749 73.7402 31.0254 73.8279L32.7665 74.8121C33.0636 74.2864 33.1559 73.6375 33.1559 72.98H31.1559ZM31.018 73.8411C31.0174 73.8423 31.0231 73.8318 31.038 73.8164C31.0535 73.8004 31.0729 73.7854 31.094 73.7738C31.1383 73.7495 31.1519 73.76 31.0959 73.76V75.76C31.7828 75.76 32.4149 75.457 32.7738 74.7989L31.018 73.8411ZM33.5759 73.76C33.5189 73.76 33.5392 73.7491 33.5923 73.779C33.6181 73.7936 33.6421 73.8127 33.6616 73.8338C33.6805 73.8542 33.6888 73.8697 33.6904 73.8728L31.9015 74.7672C32.0548 75.0738 32.289 75.3401 32.6096 75.521C32.9227 75.6976 33.2597 75.76 33.5759 75.76V73.76ZM33.713 73.9213C33.6592 73.7976 33.5959 73.5232 33.5959 73.02H31.5959C31.5959 73.6368 31.666 74.2291 31.8789 74.7187L33.713 73.9213ZM33.5959 73.02C33.5959 72.7915 33.6138 72.6194 33.6394 72.4944C33.6652 72.3682 33.6944 72.3124 33.7029 72.2985C33.7074 72.2913 33.6908 72.3187 33.6465 72.3427C33.6043 72.3656 33.5838 72.36 33.6159 72.36V70.36C32.9483 70.36 32.361 70.6622 31.9989 71.2515C31.6858 71.761 31.5959 72.3968 31.5959 73.02H33.5959ZM33.6159 72.36C33.6773 72.36 33.6829 72.3707 33.6592 72.3594C33.6478 72.354 33.6353 72.3461 33.624 72.3364C33.6186 72.3318 33.6145 72.3277 33.6115 72.3244C33.6101 72.3228 33.609 72.3215 33.6083 72.3206C33.6079 72.3201 33.6077 72.3198 33.6075 72.3195C33.6073 72.3193 33.6072 72.3192 33.6072 72.3192C33.6075 72.3196 33.6315 72.3545 33.6547 72.4539C33.678 72.5535 33.6959 72.6986 33.6959 72.9H35.6959C35.6959 72.3004 35.5964 71.6723 35.2447 71.1708C34.8476 70.6046 34.2461 70.36 33.6159 70.36V72.36ZM33.6959 72.9C33.6959 73.4523 33.607 73.6999 33.5593 73.7791C33.5444 73.8039 33.5489 73.7869 33.5816 73.7689C33.6129 73.7516 33.6216 73.76 33.5759 73.76V75.76C34.2864 75.76 34.8981 75.4328 35.2726 74.8108C35.5982 74.2701 35.6959 73.5877 35.6959 72.9H33.6959ZM49.9223 81.16L49.2866 81.9319L49.2941 81.9381L49.3016 81.944L49.9223 81.16ZM50.5823 81.94L51.4943 81.5296V81.5296L50.5823 81.94ZM50.3823 83.84L49.6408 83.1691L49.639 83.171L50.3823 83.84ZM48.4023 83.98L48.7689 83.0496L47.8332 82.681L47.4699 83.6187L48.4023 83.98ZM46.9623 86.4L47.6695 87.1071L46.9623 86.4ZM46.3223 86.84L46.7285 87.7538L46.7395 87.7489L46.7504 87.7437L46.3223 86.84ZM44.8823 86.7L44.1752 87.4071L44.1866 87.4185L44.1984 87.4295L44.8823 86.7ZM44.6623 85.3L45.6168 85.5983V85.5983L44.6623 85.3ZM44.9623 84.5L45.8854 84.8846L45.8956 84.8602L45.9044 84.8353L44.9623 84.5ZM45.5223 82.86L46.479 83.1512L46.7677 82.2026L45.8217 81.9059L45.5223 82.86ZM43.6023 82.34L43.8193 81.3638L42.903 81.1602L42.6418 82.0617L43.6023 82.34ZM42.1823 85.44L41.4141 84.7998L41.4093 84.8057L42.1823 85.44ZM40.8023 86.6L41.2496 87.4945L41.2591 87.4896L40.8023 86.6ZM37.3223 86.44L36.822 87.3059L36.8303 87.3106L37.3223 86.44ZM35.9023 85.02L35.0282 85.5056L35.0323 85.513L35.0365 85.5203L35.9023 85.02ZM36.7223 79.8L37.395 80.5399L37.3956 80.5394L36.7223 79.8ZM40.7023 78.58V79.58H41.6418L41.7004 78.6424L40.7023 78.58ZM40.7023 77.04L41.6946 76.916L41.5851 76.04H40.7023V77.04ZM37.3823 76.92L37.2409 77.91L37.2441 77.9104L37.3823 76.92ZM36.0423 76.36L35.3817 77.1107L35.3817 77.1107L36.0423 76.36ZM36.2423 73.66L35.646 72.8573V72.8573L36.2423 73.66ZM38.0623 73.04L38.1513 74.0361L38.1594 74.0353L38.0623 73.04ZM43.3823 73.36L43.0293 74.2956L43.0342 74.2974L43.3823 73.36ZM44.5423 76.92L43.5477 76.8164L43.5467 76.8267L43.5458 76.837L44.5423 76.92ZM44.3023 78.98L43.3128 78.8361L43.1762 79.7746L44.1062 79.9606L44.3023 78.98ZM45.8023 79.32L45.569 80.2924L46.8023 80.5884V79.32H45.8023ZM46.2823 77.44L46.9895 78.1471L46.9967 78.1399L47.0037 78.1325L46.2823 77.44ZM49.1623 80.64L48.168 80.5342L48.0988 81.184L48.6662 81.5082L49.1623 80.64ZM40.3423 81.88L41.3236 82.0726L41.5577 80.88H40.3423V81.88ZM38.8423 82.22L39.3664 83.0717L39.3781 83.0645L39.3896 83.057L38.8423 82.22ZM38.5423 83.76L37.756 84.3778L37.7806 84.4091L37.8075 84.4383L38.5423 83.76ZM49.3016 81.944C49.5429 82.1351 49.637 82.276 49.6704 82.3504L51.4943 81.5296C51.2877 81.0707 50.9418 80.6916 50.543 80.376L49.3016 81.944ZM49.6704 82.3504C49.7169 82.4536 49.7623 82.6314 49.7623 82.92H51.7623C51.7623 82.4353 51.6878 81.9598 51.4943 81.5296L49.6704 82.3504ZM49.7623 82.92C49.7623 82.9722 49.7515 83.0468 49.6408 83.1691L51.1239 84.5109C51.5199 84.0732 51.7623 83.5345 51.7623 82.92H49.7623ZM49.639 83.171C49.5934 83.2217 49.5664 83.2352 49.5624 83.2371C49.5598 83.2384 49.5587 83.2386 49.5579 83.2388C49.557 83.239 49.5524 83.24 49.5423 83.24V85.24C50.1819 85.24 50.7215 84.958 51.1256 84.509L49.639 83.171ZM49.5423 83.24C49.3927 83.24 49.1428 83.1969 48.7689 83.0496L48.0358 84.9104C48.5419 85.1098 49.052 85.24 49.5423 85.24V83.24ZM47.4699 83.6187C47.0848 84.6125 46.6681 85.28 46.2552 85.6929L47.6695 87.1071C48.3499 86.4266 48.8932 85.4809 49.3348 84.3413L47.4699 83.6187ZM46.2552 85.6929C46.1737 85.7745 46.0587 85.8584 45.8943 85.9363L46.7504 87.7437C47.0927 87.5816 47.4043 87.3722 47.6695 87.1071L46.2552 85.6929ZM45.9162 85.9262C45.7839 85.985 45.6886 86 45.6223 86V88C46.0094 88 46.3808 87.9084 46.7285 87.7538L45.9162 85.9262ZM45.6223 86C45.6122 86 45.6068 85.9991 45.6051 85.9988C45.6036 85.9985 45.6032 85.9983 45.6031 85.9983C45.6028 85.9982 45.6002 85.9971 45.5949 85.9936C45.5894 85.9901 45.5797 85.9831 45.5663 85.9705L44.1984 87.4295C44.588 87.7948 45.0761 88 45.6223 88V86ZM45.5895 85.9929C45.5748 85.9783 45.567 85.968 45.5632 85.9627C45.5597 85.9575 45.5593 85.9561 45.5602 85.9581C45.5611 85.9602 45.562 85.9629 45.5624 85.9652C45.5629 85.9674 45.5623 85.9661 45.5623 85.96H43.5623C43.5623 86.5271 43.7904 87.0223 44.1752 87.4071L45.5895 85.9929ZM45.5623 85.96C45.5623 85.833 45.5808 85.7137 45.6168 85.5983L43.7079 85.0017C43.6106 85.313 43.5623 85.6336 43.5623 85.96H45.5623ZM45.6168 85.5983C45.6708 85.4255 45.7582 85.1899 45.8854 84.8846L44.0393 84.1154C43.8998 84.4501 43.7872 84.7479 43.7079 85.0017L45.6168 85.5983ZM45.9044 84.8353C46.184 84.05 46.378 83.4829 46.479 83.1512L44.5657 82.5688C44.48 82.8504 44.3007 83.3767 44.0202 84.1647L45.9044 84.8353ZM45.8217 81.9059C45.1187 81.6853 44.451 81.5042 43.8193 81.3638L43.3854 83.3162C43.9537 83.4425 44.566 83.608 45.223 83.8141L45.8217 81.9059ZM42.6418 82.0617C42.2415 83.4435 41.815 84.3188 41.4141 84.7998L42.9506 86.0802C43.6164 85.2812 44.1365 84.0898 44.5628 82.6183L42.6418 82.0617ZM41.4093 84.8057C41.0514 85.2419 40.6941 85.5315 40.3455 85.7104L41.2591 87.4896C41.8973 87.1619 42.46 86.6781 42.9554 86.0743L41.4093 84.8057ZM40.3551 85.7056C39.9931 85.8866 39.672 85.96 39.3823 85.96V87.96C40.026 87.96 40.6516 87.7934 41.2496 87.4944L40.3551 85.7056ZM39.3823 85.96C38.7808 85.96 38.2659 85.8246 37.8144 85.5694L36.8303 87.3106C37.6055 87.7487 38.4639 87.96 39.3823 87.96V85.96ZM37.8226 85.5741C37.3744 85.3152 37.0272 84.9679 36.7682 84.5197L35.0365 85.5203C35.4709 86.2721 36.0703 86.8715 36.8221 87.3059L37.8226 85.5741ZM36.7765 84.5344C36.5298 84.0903 36.4023 83.5987 36.4023 83.04H34.4023C34.4023 83.9213 34.6082 84.7497 35.0282 85.5056L36.7765 84.5344ZM36.4023 83.04C36.4023 81.9171 36.7544 81.1223 37.395 80.5399L36.0497 79.0601C34.9303 80.0777 34.4023 81.4429 34.4023 83.04H36.4023ZM37.3956 80.5394C38.0561 79.938 39.0166 79.58 40.4023 79.58V77.58C38.668 77.58 37.1752 78.0353 36.0491 79.0606L37.3956 80.5394ZM40.4023 79.58H40.7023V77.58H40.4023V79.58ZM41.7004 78.6424C41.7156 78.3985 41.7223 78.0813 41.7223 77.7H39.7223C39.7223 78.0654 39.7157 78.3348 39.7043 78.5176L41.7004 78.6424ZM41.7223 77.7C41.7223 77.3787 41.717 77.0952 41.6946 76.916L39.7101 77.164C39.7098 77.162 39.7112 77.1729 39.713 77.2024C39.7147 77.2301 39.7164 77.2673 39.7178 77.3153C39.7207 77.4115 39.7223 77.5389 39.7223 77.7H41.7223ZM40.7023 76.04H39.7223V78.04H40.7023V76.04ZM39.7223 76.04C38.7546 76.04 38.0273 76.0003 37.5205 75.9296L37.2441 77.9104C37.8841 77.9997 38.7168 78.04 39.7223 78.04V76.04ZM37.5238 75.9301C37.104 75.8701 36.8549 75.743 36.703 75.6093L35.3817 77.1107C35.8964 77.5636 36.5407 77.8099 37.2409 77.9099L37.5238 75.9301ZM36.703 75.6093C36.6583 75.57 36.5423 75.44 36.5423 75H34.5423C34.5423 75.7866 34.7597 76.5633 35.3817 77.1107L36.703 75.6093ZM36.5423 75C36.5423 74.7924 36.6072 74.6347 36.8387 74.4627L35.646 72.8573C34.9442 73.3786 34.5423 74.1142 34.5423 75H36.5423ZM36.8387 74.4627C37.1201 74.2537 37.536 74.091 38.1513 74.036L37.9734 72.044C37.0953 72.1224 36.2979 72.373 35.646 72.8573L36.8387 74.4627ZM38.1594 74.0353C38.6625 73.9862 39.3076 73.96 40.1023 73.96V71.96C39.2704 71.96 38.5555 71.9871 37.9652 72.0447L38.1594 74.0353ZM40.1023 73.96C41.5547 73.96 42.4982 74.0952 43.0293 74.2956L43.7354 72.4244C42.8532 72.0915 41.61 71.96 40.1023 71.96V73.96ZM43.0342 74.2974C43.3118 74.4005 43.4158 74.5231 43.4679 74.6272L45.2568 73.7328C44.9355 73.0903 44.3862 72.6661 43.7305 72.4226L43.0342 74.2974ZM43.4679 74.6272C43.5656 74.8226 43.6423 75.1246 43.6423 75.58H45.6423C45.6423 74.9153 45.5324 74.2841 45.2568 73.7328L43.4679 74.6272ZM43.6423 75.58C43.6423 75.7751 43.6146 76.1743 43.5477 76.8164L45.537 77.0236C45.6034 76.3857 45.6423 75.8915 45.6423 75.58H43.6423ZM43.5458 76.837C43.4944 77.4538 43.4169 78.12 43.3128 78.8361L45.2919 79.1239C45.4011 78.3734 45.4836 77.6662 45.5389 77.003L43.5458 76.837ZM44.1062 79.9606C44.4201 80.0234 44.9049 80.133 45.569 80.2924L46.0357 78.3476C45.3664 78.187 44.8513 78.07 44.4985 77.9994L44.1062 79.9606ZM46.8023 79.32V78.9H44.8023V79.32H46.8023ZM46.8023 78.9C46.8023 78.3938 46.9266 78.21 46.9895 78.1471L45.5752 76.7329C44.9981 77.31 44.8023 78.0995 44.8023 78.9H46.8023ZM47.0037 78.1325C47.133 77.9978 47.2649 77.94 47.4623 77.94V75.94C46.7264 75.94 46.0716 76.2155 45.561 76.7475L47.0037 78.1325ZM47.4623 77.94C47.7137 77.94 47.883 78.0149 48.0352 78.1671L49.4495 76.7529C48.9083 76.2118 48.2243 75.94 47.4623 75.94V77.94ZM48.0352 78.1671C48.1315 78.2634 48.2623 78.4807 48.2623 79H50.2623C50.2623 78.1593 50.0465 77.3499 49.4495 76.7529L48.0352 78.1671ZM48.2623 79C48.2623 79.4216 48.2321 79.9314 48.168 80.5342L50.1567 80.7458C50.2259 80.0953 50.2623 79.5118 50.2623 79H48.2623ZM48.6662 81.5082C48.9018 81.6429 49.1077 81.7846 49.2866 81.9319L50.5581 80.3881C50.2837 80.1621 49.9829 79.9571 49.6585 79.7718L48.6662 81.5082ZM39.1623 85.02C39.9666 85.02 40.4542 84.4372 40.713 83.9679C40.9844 83.4758 41.1767 82.8211 41.3236 82.0726L39.3611 81.6874C39.228 82.3656 39.0837 82.7809 38.9616 83.0021C38.8271 83.2461 38.8647 83.02 39.1623 83.02V85.02ZM40.3423 80.88H40.1023V82.88H40.3423V80.88ZM40.1023 80.88C39.4523 80.88 38.8334 81.0311 38.2951 81.383L39.3896 83.057C39.5446 82.9556 39.7657 82.88 40.1023 82.88V80.88ZM38.3182 81.3683C37.7517 81.717 37.3223 82.2788 37.3223 83.04H39.3223C39.3223 83.0443 39.3216 83.0575 39.3164 83.076C39.311 83.0946 39.3035 83.1101 39.2969 83.1205C39.2839 83.1409 39.2901 83.1186 39.3664 83.0717L38.3182 81.3683ZM37.3223 83.04C37.3223 83.5033 37.4408 83.9767 37.756 84.3778L39.3287 83.1422C39.3359 83.1514 39.3364 83.1565 39.3337 83.1478C39.3304 83.1369 39.3223 83.1039 39.3223 83.04H37.3223ZM37.8075 84.4383C38.172 84.8331 38.653 85.02 39.1623 85.02V83.02C39.1512 83.02 39.17 83.0185 39.2041 83.0328C39.2398 83.0478 39.2652 83.0687 39.2771 83.0817L37.8075 84.4383Z" fill="white"/>
<defs>
<clipPath id="clip0_522_9">
<rect width="39.0405" height="72.0667" fill="white" transform="translate(8 4)"/>
</clipPath>
</defs>
</svg>
